<svg width="21" height="21" viewBox="0 0 21 21" fill="none" xmlns="http://www.w3.org/2000/svg">
<path d="M17.6988 18.9693C15.7445 20.9236 10.7395 19.0873 6.51999 14.8677C2.30044 10.6482 0.46411 5.64325 2.41842 3.68893L3.70519 2.40216C4.59352 1.51383 6.05726 1.53731 6.97456 2.45461L8.96764 4.4477C9.88494 5.36499 9.90842 6.82874 9.02009 7.71706L8.74371 7.99345C8.26409 8.47307 8.21717 9.24679 8.66282 9.78685C9.09269 10.3078 9.55612 10.8266 10.0586 11.3291C10.5611 11.8316 11.0799 12.295 11.6008 12.7249C12.1409 13.1705 12.9146 13.1236 13.3942 12.644L13.6706 12.3676C14.559 11.4793 16.0227 11.5028 16.94 12.4201L18.9331 14.4131C19.8504 15.3304 19.8739 16.7942 18.9855 17.6825L17.6988 18.9693Z" fill="#DDB762" stroke="#DDB762" stroke-width="1.5"/>
<path d="M16.2649 7.75083C16.0209 7.15565 15.6573 6.59802 15.174 6.11475C14.718 5.65877 14.1958 5.3093 13.6384 5.06634" stroke="#DDB762" stroke-width="1.5" stroke-linecap="round"/>
<path d="M13.6379 1.66341C14.9725 2.14691 16.2247 2.92365 17.2947 3.99364C18.3916 5.09049 19.1802 6.37883 19.6608 7.75113" stroke="#DDB762" stroke-width="1.5" stroke-linecap="round"/>
</svg>
