<svg width="21" height="19" viewBox="0 0 21 19" fill="none" xmlns="http://www.w3.org/2000/svg">
<path d="M16.4922 12.9888H14.4922V14.9888H16.4922M16.4922 8.98877H14.4922V10.9888H16.4922M18.4922 16.9888H10.4922V14.9888H12.4922V12.9888H10.4922V10.9888H12.4922V8.98877H10.4922V6.98877H18.4922M8.49219 4.98877H6.49219V2.98877H8.49219M8.49219 8.98877H6.49219V6.98877H8.49219M8.49219 12.9888H6.49219V10.9888H8.49219M8.49219 16.9888H6.49219V14.9888H8.49219M4.49219 4.98877H2.49219V2.98877H4.49219M4.49219 8.98877H2.49219V6.98877H4.49219M4.49219 12.9888H2.49219V10.9888H4.49219M4.49219 16.9888H2.49219V14.9888H4.49219M10.4922 4.98877V0.98877H0.492188V18.9888H20.4922V4.98877H10.4922Z" fill="#DDB762"/>
</svg>
