<svg width="16" height="16" viewBox="0 0 16 16" fill="none" xmlns="http://www.w3.org/2000/svg">
<g clip-path="url(#clip0_1210_18036)">
<path d="M8 16C12.4183 16 16 12.4183 16 8C16 3.58172 12.4183 0 8 0C3.58172 0 0 3.58172 0 8C0 12.4183 3.58172 16 8 16Z" fill="#EBD4A1"/>
<path fill-rule="evenodd" clip-rule="evenodd" d="M8.15708 3.10766L9.15014 6.18409C9.19539 6.32428 9.32067 6.41531 9.46798 6.41503L12.7007 6.40881C12.7743 6.40866 12.8368 6.45403 12.8595 6.52397C12.8823 6.59391 12.8583 6.66738 12.7987 6.7105L10.1797 8.60563C10.0604 8.692 10.0125 8.83925 10.0583 8.97928L11.0632 12.0519C11.086 12.1218 11.0623 12.1953 11.0028 12.2385C10.9433 12.2817 10.866 12.2817 10.8066 12.2383L8.19489 10.3331C8.07586 10.2463 7.92101 10.2463 7.80201 10.3331L5.19033 12.2383C5.13092 12.2817 5.05367 12.2817 4.99414 12.2385C4.93464 12.1953 4.91083 12.1217 4.9337 12.0519L5.93857 8.97928C5.98436 8.83925 5.93651 8.692 5.81717 8.60563L3.19817 6.7105C3.13857 6.66738 3.11464 6.59394 3.13739 6.52397C3.16011 6.45403 3.22267 6.40866 3.2962 6.40881L6.52895 6.41503C6.67626 6.41531 6.80154 6.32428 6.84679 6.18409L7.83986 3.10766C7.86245 3.03766 7.92492 2.99219 7.99845 2.99219C8.07201 2.99219 8.13445 3.03766 8.15708 3.10766Z" fill="white"/>
</g>
<defs>
<clipPath id="clip0_1210_18036">
<rect width="16" height="16" fill="white"/>
</clipPath>
</defs>
</svg>
