<svg width="40" height="40" viewBox="0 0 40 40" fill="none" xmlns="http://www.w3.org/2000/svg">
<circle cx="20" cy="20" r="20" fill="#FFD2DA"/>
<path fill-rule="evenodd" clip-rule="evenodd" d="M18.4245 11.666C17.8112 11.666 17.3137 12.1635 17.3137 12.7768C17.3137 12.8499 17.2993 12.9223 17.2713 12.9897C17.2433 13.0572 17.2023 13.1186 17.1506 13.1702C17.0989 13.2218 17.0375 13.2627 16.97 13.2906C16.9025 13.3185 16.8301 13.3328 16.757 13.3327H14.1654C13.9444 13.3327 13.7324 13.4205 13.5761 13.5768C13.4198 13.733 13.332 13.945 13.332 14.166C13.332 14.387 13.4198 14.599 13.5761 14.7553C13.7324 14.9116 13.9444 14.9993 14.1654 14.9993H25.832C26.053 14.9993 26.265 14.9116 26.4213 14.7553C26.5776 14.599 26.6654 14.387 26.6654 14.166C26.6654 13.945 26.5776 13.733 26.4213 13.5768C26.265 13.4205 26.053 13.3327 25.832 13.3327H23.2387C23.0914 13.3325 22.9503 13.2738 22.8462 13.1696C22.7421 13.0654 22.6837 12.9241 22.6837 12.7768C22.6837 12.1635 22.1862 11.666 21.5729 11.666H18.4245ZM14.9987 16.666C14.8834 16.666 14.7693 16.6898 14.6638 16.7361C14.5582 16.7824 14.4633 16.8501 14.3852 16.9349C14.3071 17.0198 14.2475 17.1199 14.2101 17.2289C14.1727 17.338 14.1583 17.4536 14.1679 17.5685L14.8104 25.2768C14.88 26.1099 15.2601 26.8865 15.8753 27.4525C16.4906 28.0185 17.296 28.3327 18.132 28.3327H21.8654C22.7015 28.3326 23.5071 28.0184 24.1223 27.4522C24.7376 26.886 25.1176 26.1093 25.187 25.276L25.8287 17.5685C25.8383 17.4537 25.8239 17.3381 25.7865 17.2291C25.7492 17.1201 25.6896 17.0201 25.6116 16.9352C25.5336 16.8504 25.4389 16.7827 25.3334 16.7364C25.2279 16.69 25.1139 16.6661 24.9987 16.666H14.9987Z" fill="#E32144"/>
</svg>
