<svg width="19" height="22" viewBox="0 0 19 22" fill="none" xmlns="http://www.w3.org/2000/svg">
<path fill-rule="evenodd" clip-rule="evenodd" d="M0.886719 5C0.886719 2.37665 3.01337 0.25 5.63672 0.25H13.6367C16.2601 0.25 18.3867 2.37665 18.3867 5V17C18.3867 19.6234 16.2601 21.75 13.6367 21.75H5.63672C3.01337 21.75 0.886719 19.6234 0.886719 17V5ZM5.63672 5.25C5.22251 5.25 4.88672 5.58579 4.88672 6C4.88672 6.41421 5.22251 6.75 5.63672 6.75H13.6367C14.0509 6.75 14.3867 6.41421 14.3867 6C14.3867 5.58579 14.0509 5.25 13.6367 5.25H5.63672ZM4.88672 11C4.88672 10.5858 5.22251 10.25 5.63672 10.25H13.6367C14.0509 10.25 14.3867 10.5858 14.3867 11C14.3867 11.4142 14.0509 11.75 13.6367 11.75H5.63672C5.22251 11.75 4.88672 11.4142 4.88672 11ZM5.63672 15.25C5.22251 15.25 4.88672 15.5858 4.88672 16C4.88672 16.4142 5.22251 16.75 5.63672 16.75H9.63672C10.0509 16.75 10.3867 16.4142 10.3867 16C10.3867 15.5858 10.0509 15.25 9.63672 15.25H5.63672Z" fill="#DDB762"/>
</svg>
