<svg width="20" height="20" viewBox="0 0 20 20" fill="none" xmlns="http://www.w3.org/2000/svg">
<g clip-path="url(#clip0_1191_12890)">
<path fill-rule="evenodd" clip-rule="evenodd" d="M9.9987 19.1673C15.0612 19.1673 19.1654 15.0632 19.1654 10.0007C19.1654 4.93815 15.0612 0.833984 9.9987 0.833984C4.9362 0.833984 0.832031 4.93815 0.832031 10.0007C0.832031 15.0632 4.9362 19.1673 9.9987 19.1673ZM10.832 5.00065C10.832 4.77964 10.7442 4.56768 10.588 4.4114C10.4317 4.25512 10.2197 4.16732 9.9987 4.16732C9.77769 4.16732 9.56572 4.25512 9.40944 4.4114C9.25316 4.56768 9.16537 4.77964 9.16537 5.00065V5.48899C7.98953 5.76065 7.08203 6.78232 7.08203 8.05149C7.08203 9.31399 7.99453 10.3682 9.2187 10.6265L10.3795 10.8698C10.9095 10.9815 11.2487 11.419 11.2487 11.8807C11.2487 12.4215 10.782 12.9173 10.1345 12.9173H9.9987C9.3937 12.9173 8.91703 12.5223 8.7862 12.0348C8.75786 11.9291 8.70897 11.83 8.64233 11.7432C8.57569 11.6564 8.4926 11.5835 8.3978 11.5288C8.30301 11.4741 8.19837 11.4386 8.08986 11.4243C7.98134 11.4101 7.87108 11.4173 7.76537 11.4457C7.65965 11.474 7.56055 11.5229 7.47373 11.5895C7.38691 11.6562 7.31407 11.7393 7.25936 11.834C7.20465 11.9288 7.16915 12.0335 7.15488 12.142C7.14061 12.2505 7.14785 12.3608 7.1762 12.4665C7.4362 13.4373 8.20203 14.1873 9.16537 14.4665V15.0007C9.16537 15.2217 9.25316 15.4336 9.40944 15.5899C9.56572 15.7462 9.77769 15.834 9.9987 15.834C10.2197 15.834 10.4317 15.7462 10.588 15.5899C10.7442 15.4336 10.832 15.2217 10.832 15.0007V14.4973C12.0129 14.199 12.9154 13.1623 12.9154 11.8807C12.9154 10.5857 11.9795 9.50232 10.722 9.23899L9.5612 8.99482C9.0637 8.89065 8.7487 8.48065 8.7487 8.05149C8.7487 7.54899 9.18287 7.08399 9.79037 7.08399H9.9987C10.6037 7.08399 11.0804 7.47899 11.2112 7.96649C11.2395 8.0722 11.2884 8.1713 11.3551 8.25812C11.4217 8.34494 11.5048 8.41778 11.5996 8.47249C11.6944 8.5272 11.799 8.5627 11.9075 8.57697C12.0161 8.59124 12.1263 8.584 12.232 8.55565C12.3377 8.52731 12.4368 8.47842 12.5237 8.41178C12.6105 8.34514 12.6833 8.26205 12.738 8.16726C12.7927 8.07246 12.8282 7.96782 12.8425 7.85931C12.8568 7.75079 12.8495 7.64053 12.8212 7.53482C12.5612 6.56399 11.7954 5.81398 10.832 5.53482V5.00065Z" fill="#DDB762"/>
</g>
<defs>
<clipPath id="clip0_1191_12890">
<rect width="20" height="20" fill="white"/>
</clipPath>
</defs>
</svg>
