<svg width="25" height="22" viewBox="0 0 25 22" fill="none" xmlns="http://www.w3.org/2000/svg">
<path d="M23.176 2.16115C21.9429 0.767496 20.2323 0 18.3594 0C15.7252 0 14.0575 1.56709 13.1223 2.88176C12.8797 3.2229 12.6733 3.56497 12.5 3.88685C12.3267 3.56497 12.1204 3.2229 11.8777 2.88176C10.9425 1.56709 9.27481 0 6.64062 0C4.76768 0 3.05708 0.767545 1.82397 2.1612C0.647803 3.49065 0 5.27116 0 7.17473C0 9.24682 0.812158 11.1741 2.55591 13.2398C4.11436 15.0861 6.3564 16.9891 8.95264 19.1929C9.92007 20.014 10.9205 20.8633 11.9856 21.7915L12.0176 21.8194C12.1557 21.9398 12.3278 22 12.5 22C12.6722 22 12.8443 21.9398 12.9824 21.8194L13.0144 21.7915C14.0795 20.8633 15.0799 20.0141 16.0475 19.1928C18.6436 16.9892 20.8856 15.0861 22.4441 13.2398C24.1878 11.174 25 9.24682 25 7.17473C25 5.27116 24.3522 3.49065 23.176 2.16115ZM15.0973 18.0823C14.2633 18.7901 13.405 19.5187 12.5 20.3024C11.595 19.5188 10.7367 18.7902 9.90254 18.0822C4.82153 13.7694 1.46484 10.9201 1.46484 7.17473C1.46484 5.6266 1.98267 4.18869 2.92295 3.12592C3.87402 2.05108 5.19429 1.45912 6.64062 1.45912C8.64888 1.45912 9.94707 2.69149 10.6824 3.72532C11.342 4.65254 11.6862 5.58726 11.8036 5.94605C11.8515 6.09244 11.9447 6.21999 12.0697 6.31043C12.1948 6.40088 12.3454 6.44959 12.5 6.44959C12.6546 6.44959 12.8052 6.40088 12.9303 6.31043C13.0553 6.21999 13.1485 6.09244 13.1964 5.94605C13.3138 5.58726 13.658 4.65254 14.3176 3.72527C15.0529 2.69149 16.3511 1.45912 18.3594 1.45912C19.8057 1.45912 21.126 2.05108 22.077 3.12592C23.0173 4.18869 23.5352 5.6266 23.5352 7.17473C23.5352 10.9201 20.1785 13.7694 15.0973 18.0823Z" fill="white"/>
</svg>
