<svg width="16" height="16" viewBox="0 0 16 16" fill="none" xmlns="http://www.w3.org/2000/svg">
<path d="M12.8971 4.8L14.8471 2.08C14.9323 1.96114 14.9842 1.81981 14.9969 1.67184C15.0097 1.52388 14.9828 1.37511 14.9193 1.24223C14.8558 1.10934 14.7581 0.997587 14.6373 0.919479C14.5165 0.841372 14.3773 0.8 14.2353 0.8H5.05882C5.05882 0.587827 4.97826 0.384344 4.83485 0.234315C4.69144 0.0842854 4.49693 0 4.29412 0C4.0913 0 3.8968 0.0842854 3.75339 0.234315C3.60998 0.384344 3.52941 0.587827 3.52941 0.8V14.4H2.76471C2.56189 14.4 2.36739 14.4843 2.22398 14.6343C2.08057 14.7843 2 14.9878 2 15.2C2 15.4122 2.08057 15.6157 2.22398 15.7657C2.36739 15.9157 2.56189 16 2.76471 16H5.82353C6.02634 16 6.22085 15.9157 6.36426 15.7657C6.50767 15.6157 6.58823 15.4122 6.58823 15.2C6.58823 14.9878 6.50767 14.7843 6.36426 14.6343C6.22085 14.4843 6.02634 14.4 5.82353 14.4H5.05882V8.8H14.2353C14.3773 8.8 14.5165 8.75863 14.6373 8.68052C14.7581 8.60241 14.8558 8.49065 14.9193 8.35777C14.9828 8.22489 15.0097 8.07613 14.9969 7.92816C14.9842 7.78019 14.9323 7.63886 14.8471 7.52L12.8971 4.8Z" fill="#DDB762"/>
</svg>
