<svg width="20" height="21" viewBox="0 0 20 21" fill="none" xmlns="http://www.w3.org/2000/svg">
<g clip-path="url(#clip0_1210_19860)">
<path d="M19.8404 8.22565C19.7325 8.0308 19.5743 7.86847 19.3822 7.75561C19.1902 7.64274 18.9714 7.58347 18.7487 7.58399H6.9037C6.50435 7.58407 6.1158 7.71366 5.79636 7.95332C5.47692 8.19298 5.24381 8.52977 5.13203 8.91315L2.78745 16.9507C2.66404 17.3738 2.40674 17.7454 2.05416 18.0099C1.70159 18.2743 1.27276 18.4173 0.832031 18.4173H15.727C16.1678 18.4173 16.5967 18.2744 16.9494 18.0099C17.302 17.7455 17.5594 17.3738 17.6829 16.9507L19.9337 9.23399C19.986 9.06817 20.0047 8.8936 19.9887 8.72047C19.9728 8.54734 19.9221 8.37912 19.8404 8.22565Z" fill="#DDB762"/>
<path d="M1.9875 16.7173L4.33333 8.67982C4.49676 8.12417 4.83532 7.63619 5.29857 7.28856C5.76183 6.94093 6.32499 6.75226 6.90417 6.75065H17.5V6.33398C17.5 5.89196 17.3244 5.46803 17.0118 5.15547C16.6993 4.84291 16.2754 4.66732 15.8333 4.66732H9.48167C9.35748 4.66734 9.23484 4.63968 9.12269 4.58634C9.01054 4.53301 8.91169 4.45534 8.83333 4.35898L8.01417 3.3519C7.81907 3.11201 7.57296 2.91862 7.29374 2.78578C7.01452 2.65295 6.70921 2.58401 6.4 2.58398H1.66667C1.22464 2.58398 0.800716 2.75958 0.488155 3.07214C0.175595 3.3847 0 3.80862 0 4.25065L0 16.7507C0 16.9717 0.0877974 17.1836 0.244078 17.3399C0.400358 17.4962 0.61232 17.584 0.833333 17.584C1.09344 17.5833 1.34635 17.4985 1.55434 17.3423C1.76234 17.1861 1.91428 16.9669 1.9875 16.7173Z" fill="#DDB762"/>
</g>
<defs>
<clipPath id="clip0_1210_19860">
<rect width="20" height="20" fill="white" transform="translate(0 0.5)"/>
</clipPath>
</defs>
</svg>
