<svg width="23" height="23" viewBox="0 0 23 23" fill="none" xmlns="http://www.w3.org/2000/svg">
<path d="M1.0333 20.8916L11.6136 10.3205L10.0706 8.75685L9.27709 9.53867C9.17513 9.64075 9.05402 9.72173 8.9207 9.77699C8.78737 9.83225 8.64445 9.86069 8.5001 9.86069C8.35576 9.86069 8.21284 9.83225 8.07951 9.77699C7.94619 9.72173 7.82508 9.64075 7.72312 9.53867L6.94062 8.75685C6.83845 8.65497 6.75739 8.53397 6.70209 8.40076C6.64678 8.26755 6.61831 8.12475 6.61831 7.98053C6.61831 7.83632 6.64678 7.69352 6.70209 7.56031C6.75739 7.4271 6.83845 7.30609 6.94062 7.20422L13.1786 0.971684C13.2805 0.869603 13.4016 0.788616 13.535 0.733359C13.6683 0.678101 13.8112 0.649658 13.9556 0.649658C14.0999 0.649658 14.2428 0.678101 14.3761 0.733359C14.5095 0.788616 14.6306 0.869603 14.7325 0.971684L15.515 1.7535C15.9449 2.18295 15.9449 2.87668 15.515 3.30613L14.7325 4.06593L16.2975 5.64058C16.3995 5.5385 16.5206 5.45751 16.6539 5.40225C16.7873 5.347 16.9302 5.31855 17.0745 5.31855C17.2189 5.31855 17.3618 5.347 17.4951 5.40225C17.6284 5.45751 17.7496 5.5385 17.8515 5.64058C18.2813 6.07003 18.2813 6.77477 17.8515 7.20422L19.4055 8.75685L20.188 7.97503C20.6178 7.54558 21.3232 7.54558 21.753 7.97503L22.5245 8.75685C22.9543 9.1863 22.9543 9.89104 22.5245 10.3205L16.2975 16.542C15.8677 16.9715 15.1624 16.9715 14.7325 16.542L13.9611 15.7712C13.8564 15.6696 13.7732 15.5481 13.7164 15.4138C13.6596 15.2795 13.6304 15.1352 13.6304 14.9894C13.6304 14.8436 13.6596 14.6993 13.7164 14.565C13.7732 14.4307 13.8564 14.3092 13.9611 14.2076L14.7325 13.4257L13.1786 11.8731L2.58728 22.4552C2.48532 22.5573 2.36421 22.6383 2.23089 22.6935C2.09756 22.7488 1.95463 22.7772 1.81029 22.7772C1.66595 22.7772 1.52303 22.7488 1.3897 22.6935C1.25637 22.6383 1.13527 22.5573 1.0333 22.4552C0.603482 22.0258 0.603482 21.321 1.0333 20.8916ZM20.5407 19.4821C21.1253 19.4821 21.6859 19.7141 22.0993 20.1271C22.5127 20.5401 22.7449 21.1003 22.7449 21.6844V22.7856H11.7238V21.6844C11.7238 21.1003 11.956 20.5401 12.3694 20.1271C12.7828 19.7141 13.3434 19.4821 13.928 19.4821H20.5407Z" fill="#DDB762"/>
</svg>
