<svg width="145" height="49" viewBox="0 0 145 49" fill="none" xmlns="http://www.w3.org/2000/svg">
<g filter="url(#filter0_d_287_5898)">
<rect x="4.40625" y="0.874756" width="136" height="40" rx="4" fill="white"/>
<path d="M37.7015 20.0938C37.7127 19.2244 37.9443 18.372 38.3746 17.6159C38.805 16.8598 39.4201 16.2245 40.1628 15.7692C39.691 15.0972 39.0686 14.5442 38.3449 14.1541C37.6213 13.764 36.8164 13.5475 35.9942 13.5219C34.2403 13.3383 32.5399 14.5684 31.6461 14.5684C30.7351 14.5684 29.359 13.5401 27.8771 13.5705C26.9187 13.6014 25.9845 13.8793 25.1658 14.3772C24.3471 14.8751 23.6716 15.5761 23.2053 16.4117C21.1853 19.8992 22.6921 25.0248 24.627 27.8438C25.5952 29.2243 26.7266 30.7662 28.2071 30.7115C29.6559 30.6516 30.1969 29.7903 31.9457 29.7903C33.6782 29.7903 34.1859 30.7115 35.6964 30.6768C37.251 30.6516 38.2304 29.2902 39.1646 27.8967C39.8602 26.9131 40.3955 25.826 40.7506 24.6757C39.8474 24.2948 39.0766 23.6572 38.5344 22.8424C37.9922 22.0276 37.7025 21.0716 37.7015 20.0938Z" fill="black"/>
<path d="M34.848 11.6679C35.6956 10.6532 36.1132 9.34899 36.0121 8.03223C34.7171 8.16786 33.5209 8.78504 32.6618 9.76079C32.2418 10.2375 31.9201 10.792 31.7151 11.3928C31.5102 11.9935 31.4259 12.6286 31.4673 13.2618C32.115 13.2685 32.7558 13.1285 33.3413 12.8524C33.9269 12.5763 34.4421 12.1713 34.848 11.6679Z" fill="black"/>
<path d="M55.0815 27.3556H50.3273L49.1856 30.7174H47.1719L51.675 18.2797H53.7672L58.2703 30.7174H56.2223L55.0815 27.3556ZM50.8197 25.8043H54.5882L52.7305 20.3484H52.6784L50.8197 25.8043Z" fill="black"/>
<path d="M67.9956 26.1838C67.9956 29.0018 66.4831 30.8123 64.2006 30.8123C63.6224 30.8424 63.0474 30.7096 62.5414 30.429C62.0354 30.1485 61.6188 29.7314 61.3395 29.2258H61.2963V33.7173H59.4297V21.6493H61.2364V23.1575H61.2708C61.563 22.6543 61.9866 22.2394 62.4964 21.9571C63.0063 21.6748 63.5834 21.5357 64.1663 21.5544C66.4743 21.5544 67.9956 23.3737 67.9956 26.1838ZM66.077 26.1838C66.077 24.3479 65.1256 23.1409 63.6739 23.1409C62.2477 23.1409 61.2884 24.3733 61.2884 26.1838C61.2884 28.011 62.2477 29.2346 63.6739 29.2346C65.1256 29.2346 66.077 28.0364 66.077 26.1838H66.077Z" fill="black"/>
<path d="M78.0039 26.1838C78.0039 29.0018 76.4909 30.8123 74.2084 30.8123C73.6302 30.8424 73.0552 30.7096 72.5492 30.429C72.0432 30.1485 71.6267 29.7314 71.3473 29.2258H71.3041V33.7173H69.4375V21.6493H71.2442V23.1575H71.2786C71.5708 22.6543 71.9944 22.2394 72.5043 21.9571C73.0141 21.6748 73.5912 21.5357 74.1741 21.5544C76.4821 21.5544 78.0039 23.3737 78.0039 26.1838ZM76.0848 26.1838C76.0848 24.3479 75.1334 23.1409 73.6817 23.1409C72.2555 23.1409 71.2963 24.3733 71.2963 26.1838C71.2963 28.011 72.2555 29.2346 73.6817 29.2346C75.1334 29.2346 76.0848 28.0364 76.0848 26.1838Z" fill="black"/>
<path d="M84.6178 27.2519C84.7561 28.4853 85.9577 29.2952 87.5996 29.2952C89.1729 29.2952 90.3048 28.4853 90.3048 27.3732C90.3048 26.4078 89.6221 25.8297 88.0057 25.4336L86.3892 25.0453C84.0989 24.4936 83.0357 23.4255 83.0357 21.6923C83.0357 19.5463 84.9111 18.0723 87.5731 18.0723C90.2097 18.0723 92.0164 19.5463 92.0773 21.6923H90.193C90.0802 20.451 89.0513 19.7018 87.5476 19.7018C86.044 19.7018 85.015 20.4599 85.015 21.5632C85.015 22.4425 85.6722 22.9599 87.2798 23.356L88.654 23.6925C91.2131 24.296 92.2754 25.3211 92.2754 27.1403C92.2754 29.4673 90.4176 30.9247 87.4613 30.9247C84.6952 30.9247 82.8277 29.5015 82.707 27.2518L84.6178 27.2519Z" fill="black"/>
<path d="M96.307 19.5033V21.6493H98.0362V23.1233H96.307V28.1224C96.307 28.8991 96.6532 29.261 97.4134 29.261C97.6187 29.2574 97.8236 29.243 98.0274 29.2179V30.6831C97.6856 30.7468 97.3383 30.7756 96.9906 30.7692C95.1496 30.7692 94.4316 30.0796 94.4316 28.321V23.1233H93.1094V21.6493H94.4315V19.5033H96.307Z" fill="black"/>
<path d="M99.0352 26.1839C99.0352 23.3307 100.72 21.5378 103.348 21.5378C105.985 21.5378 107.662 23.3307 107.662 26.1839C107.662 29.0449 105.993 30.8299 103.348 30.8299C100.704 30.8299 99.0352 29.0449 99.0352 26.1839ZM105.76 26.1839C105.76 24.2267 104.86 23.0715 103.348 23.0715C101.836 23.0715 100.936 24.2355 100.936 26.1839C100.936 28.1489 101.836 29.2953 103.348 29.2953C104.86 29.2953 105.76 28.1489 105.76 26.1839H105.76Z" fill="black"/>
<path d="M109.203 21.6493H110.983V23.1928H111.027C111.147 22.7107 111.43 22.2847 111.829 21.9864C112.227 21.688 112.716 21.5355 113.214 21.5544C113.429 21.5537 113.644 21.577 113.853 21.6239V23.3649C113.582 23.2822 113.299 23.2442 113.015 23.2524C112.744 23.2415 112.473 23.2892 112.222 23.3922C111.971 23.4953 111.746 23.6512 111.561 23.8494C111.376 24.0476 111.237 24.2834 111.152 24.5405C111.067 24.7975 111.039 25.0699 111.07 25.3388V30.7174H109.203L109.203 21.6493Z" fill="black"/>
<path d="M122.457 28.054C122.206 29.7002 120.598 30.8299 118.541 30.8299C115.896 30.8299 114.254 29.0625 114.254 26.2269C114.254 23.3826 115.905 21.5378 118.463 21.5378C120.979 21.5378 122.561 23.2613 122.561 26.0108V26.6485H116.138V26.761C116.108 27.0947 116.15 27.4309 116.261 27.7472C116.372 28.0636 116.549 28.3528 116.78 28.5958C117.011 28.8387 117.292 29.0298 117.603 29.1563C117.914 29.2828 118.249 29.3418 118.584 29.3295C119.026 29.3707 119.468 29.2688 119.847 29.039C120.225 28.8092 120.519 28.4638 120.684 28.054L122.457 28.054ZM116.147 25.3476H120.693C120.71 25.0475 120.664 24.7472 120.559 24.4656C120.454 24.1839 120.292 23.927 120.082 23.7109C119.873 23.4948 119.621 23.3242 119.342 23.2098C119.063 23.0954 118.764 23.0396 118.463 23.0461C118.159 23.0443 117.858 23.1025 117.576 23.2174C117.295 23.3324 117.039 23.5017 116.824 23.7157C116.609 23.9297 116.438 24.184 116.322 24.4641C116.206 24.7442 116.146 25.0445 116.147 25.3476V25.3476Z" fill="black"/>
<path d="M50.5866 8.91779C50.978 8.88979 51.3706 8.94874 51.7364 9.0904C52.1021 9.23206 52.4317 9.45289 52.7015 9.73696C52.9712 10.021 53.1744 10.3613 53.2964 10.7331C53.4183 11.105 53.456 11.4992 53.4066 11.8873C53.4066 13.7966 52.3718 14.8941 50.5866 14.8941H48.4219V8.91779H50.5866ZM49.3527 14.0489H50.4827C50.7623 14.0656 51.0421 14.0199 51.3018 13.9151C51.5615 13.8103 51.7945 13.6491 51.9838 13.4432C52.1731 13.2373 52.314 12.9919 52.3962 12.7249C52.4785 12.4579 52.4999 12.1759 52.4591 11.8995C52.497 11.6243 52.4733 11.344 52.3898 11.079C52.3063 10.8139 52.1651 10.5705 51.9762 10.3662C51.7873 10.162 51.5555 10.0019 51.2972 9.89751C51.039 9.7931 50.7609 9.74695 50.4827 9.76234H49.3527V14.0489Z" fill="black"/>
<path d="M54.4593 12.637C54.4309 12.3406 54.4649 12.0415 54.5591 11.759C54.6534 11.4765 54.8058 11.2167 55.0066 10.9964C55.2075 10.7761 55.4522 10.6 55.7253 10.4796C55.9983 10.3591 56.2936 10.2969 56.5922 10.2969C56.8908 10.2969 57.1861 10.3591 57.4591 10.4796C57.7322 10.6 57.9769 10.7761 58.1778 10.9964C58.3786 11.2167 58.531 11.4765 58.6253 11.759C58.7195 12.0415 58.7535 12.3406 58.7251 12.637C58.7541 12.9337 58.7205 13.2331 58.6265 13.5161C58.5324 13.7991 58.3801 14.0593 58.1792 14.2801C57.9784 14.5008 57.7334 14.6772 57.4601 14.798C57.1868 14.9187 56.8911 14.9811 56.5922 14.9811C56.2933 14.9811 55.9976 14.9187 55.7243 14.798C55.451 14.6772 55.206 14.5008 55.0051 14.2801C54.8043 14.0593 54.6519 13.7991 54.5579 13.5161C54.4639 13.2331 54.4303 12.9337 54.4593 12.637ZM57.807 12.637C57.807 11.6593 57.3666 11.0876 56.5937 11.0876C55.8178 11.0876 55.3813 11.6593 55.3813 12.637C55.3813 13.6224 55.8178 14.1897 56.5937 14.1897C57.3666 14.1897 57.807 13.6185 57.807 12.637H57.807Z" fill="black"/>
<path d="M64.3931 14.894H63.4672L62.5324 11.5723H62.4618L61.531 14.894H60.6139L59.3672 10.3839H60.2725L61.0827 13.8254H61.1494L62.0793 10.3839H62.9356L63.8654 13.8254H63.936L64.7423 10.3839H65.6349L64.3931 14.894Z" fill="black"/>
<path d="M66.6836 10.384H67.5428V11.1004H67.6095C67.7227 10.8431 67.9135 10.6274 68.1555 10.4834C68.3974 10.3393 68.6784 10.2742 68.9592 10.2969C69.1793 10.2804 69.4002 10.3135 69.6057 10.3937C69.8112 10.474 69.996 10.5993 70.1463 10.7604C70.2967 10.9215 70.4087 11.1142 70.4742 11.3244C70.5397 11.5345 70.5569 11.7567 70.5246 11.9744V14.894H69.6321V12.1979C69.6321 11.4731 69.3162 11.1127 68.6561 11.1127C68.5067 11.1057 68.3575 11.1311 68.2189 11.187C68.0802 11.2429 67.9553 11.3281 67.8527 11.4366C67.7502 11.5452 67.6723 11.6746 67.6246 11.8159C67.5769 11.9573 67.5603 12.1073 67.5762 12.2556V14.8941H66.6836L66.6836 10.384Z" fill="black"/>
<path d="M71.9492 8.62329H72.8418V14.894H71.9492V8.62329Z" fill="black"/>
<path d="M74.0804 12.6371C74.052 12.3406 74.086 12.0416 74.1803 11.7591C74.2745 11.4765 74.427 11.2168 74.6278 10.9964C74.8287 10.7761 75.0735 10.6 75.3465 10.4796C75.6196 10.3591 75.9149 10.2969 76.2135 10.2969C76.5121 10.2969 76.8074 10.3591 77.0805 10.4796C77.3535 10.6 77.5983 10.7761 77.7992 10.9964C78 11.2168 78.1525 11.4765 78.2467 11.7591C78.341 12.0416 78.375 12.3406 78.3466 12.6371C78.3756 12.9338 78.3419 13.2332 78.2479 13.5162C78.1539 13.7992 78.0015 14.0594 77.8006 14.2801C77.5997 14.5009 77.3547 14.6773 77.0814 14.798C76.8081 14.9188 76.5124 14.9811 76.2135 14.9811C75.9146 14.9811 75.6189 14.9188 75.3456 14.798C75.0723 14.6773 74.8273 14.5009 74.6264 14.2801C74.4255 14.0594 74.2731 13.7992 74.1791 13.5162C74.0851 13.2332 74.0514 12.9338 74.0804 12.6371ZM77.428 12.6371C77.428 11.6594 76.9876 11.0877 76.2147 11.0877C75.4389 11.0877 75.0024 11.6594 75.0024 12.6371C75.0024 13.6225 75.4389 14.1898 76.2147 14.1898C76.9876 14.1898 77.4281 13.6186 77.4281 12.6371H77.428Z" fill="black"/>
<path d="M79.2852 13.6185C79.2852 12.8067 79.8913 12.3387 80.9673 12.2722L82.1924 12.2017V11.8125C82.1924 11.3361 81.8766 11.0671 81.2665 11.0671C80.7682 11.0671 80.423 11.2496 80.3239 11.5684H79.4597C79.551 10.7938 80.2817 10.2969 81.3077 10.2969C82.4416 10.2969 83.0811 10.8598 83.0811 11.8125V14.894H82.2219V14.2602H82.1512C82.0079 14.4875 81.8066 14.6729 81.5679 14.7973C81.3293 14.9217 81.0618 14.9807 80.7927 14.9683C80.6029 14.988 80.411 14.9678 80.2294 14.909C80.0479 14.8502 79.8807 14.7542 79.7386 14.627C79.5966 14.4998 79.4829 14.3444 79.4048 14.1707C79.3266 13.997 79.2859 13.8089 79.2852 13.6185ZM82.1924 13.2332V12.8561L81.088 12.9265C80.4651 12.9681 80.1826 13.1794 80.1826 13.577C80.1826 13.9829 80.5357 14.2191 81.0213 14.2191C81.1636 14.2335 81.3073 14.2191 81.4439 14.177C81.5805 14.1348 81.7072 14.0657 81.8165 13.9737C81.9257 13.8817 82.0153 13.7688 82.0799 13.6415C82.1445 13.5143 82.1828 13.3754 82.1924 13.2332Z" fill="black"/>
<path d="M84.2578 12.637C84.2578 11.2119 84.9925 10.3091 86.1352 10.3091C86.4178 10.2961 86.6984 10.3636 86.944 10.5037C87.1896 10.6438 87.3901 10.8508 87.5221 11.1003H87.5888V8.62329H88.4814V14.894H87.6261V14.1814H87.5555C87.4132 14.4293 87.2057 14.6337 86.9554 14.7724C86.705 14.9111 86.4214 14.9788 86.1352 14.9683C84.9846 14.9684 84.2578 14.0655 84.2578 12.637ZM85.1799 12.637C85.1799 13.5936 85.632 14.1692 86.3883 14.1692C87.1406 14.1692 87.6055 13.5853 87.6055 12.6409C87.6055 11.7009 87.1357 11.1087 86.3883 11.1087C85.6369 11.1087 85.1798 11.6882 85.1798 12.637H85.1799Z" fill="black"/>
<path d="M92.1742 12.637C92.1457 12.3406 92.1797 12.0415 92.274 11.759C92.3682 11.4765 92.5207 11.2167 92.7215 10.9964C92.9223 10.7761 93.1671 10.6 93.4401 10.4796C93.7132 10.3591 94.0085 10.2969 94.307 10.2969C94.6056 10.2969 94.9009 10.3591 95.1739 10.4796C95.447 10.6 95.6918 10.7761 95.8926 10.9964C96.0934 11.2167 96.2458 11.4765 96.3401 11.759C96.4343 12.0415 96.4683 12.3406 96.4399 12.637C96.4689 12.9337 96.4353 13.2331 96.3413 13.5161C96.2473 13.7991 96.0949 14.0593 95.8941 14.2801C95.6932 14.5008 95.4482 14.6772 95.1749 14.798C94.9016 14.9187 94.606 14.9811 94.307 14.9811C94.0081 14.9811 93.7125 14.9187 93.4391 14.798C93.1658 14.6772 92.9209 14.5008 92.72 14.2801C92.5191 14.0593 92.3668 13.7991 92.2728 13.5161C92.1788 13.2331 92.1452 12.9337 92.1742 12.637ZM95.5218 12.637C95.5218 11.6593 95.0814 11.0876 94.3085 11.0876C93.5326 11.0876 93.0962 11.6593 93.0962 12.637C93.0962 13.6224 93.5327 14.1897 94.3085 14.1897C95.0814 14.1897 95.5218 13.6185 95.5218 12.637Z" fill="black"/>
<path d="M97.6367 10.384H98.496V11.1004H98.5627C98.6758 10.8431 98.8666 10.6274 99.1086 10.4834C99.3505 10.3393 99.6315 10.2742 99.9123 10.2969C100.132 10.2804 100.353 10.3135 100.559 10.3937C100.764 10.474 100.949 10.5993 101.099 10.7604C101.25 10.9215 101.362 11.1142 101.427 11.3244C101.493 11.5345 101.51 11.7567 101.478 11.9744V14.894H100.585V12.1979C100.585 11.4731 100.269 11.1127 99.6092 11.1127C99.4598 11.1057 99.3107 11.1311 99.172 11.187C99.0333 11.2429 98.9084 11.3281 98.8059 11.4366C98.7033 11.5452 98.6255 11.6746 98.5777 11.8159C98.53 11.9573 98.5135 12.1073 98.5293 12.2556V14.8941H97.6367V10.384Z" fill="black"/>
<path d="M106.522 9.26111V10.4045H107.502V11.1543H106.522V13.4734C106.522 13.9458 106.717 14.1527 107.161 14.1527C107.275 14.1523 107.389 14.1454 107.502 14.1321V14.8735C107.341 14.9021 107.179 14.9173 107.016 14.919C106.023 14.919 105.628 14.5708 105.628 13.7013V11.1542H104.91V10.4045H105.628V9.26111H106.522Z" fill="black"/>
<path d="M108.719 8.62329H109.603V11.1087H109.674C109.793 10.849 109.989 10.632 110.236 10.4874C110.482 10.3429 110.768 10.2777 111.053 10.3008C111.272 10.2889 111.491 10.3253 111.694 10.4075C111.897 10.4897 112.08 10.6155 112.229 10.7761C112.377 10.9367 112.489 11.1281 112.555 11.3366C112.621 11.545 112.64 11.7655 112.611 11.9821V14.894H111.717V12.2017C111.717 11.4813 111.381 11.1165 110.75 11.1165C110.597 11.104 110.442 11.125 110.298 11.1781C110.154 11.2313 110.023 11.3152 109.914 11.4241C109.806 11.533 109.722 11.6643 109.67 11.8086C109.618 11.953 109.598 12.107 109.611 12.2599V14.894H108.719L108.719 8.62329Z" fill="black"/>
<path d="M117.814 13.6763C117.693 14.0885 117.43 14.4451 117.072 14.6836C116.714 14.9221 116.283 15.0275 115.855 14.9811C115.557 14.989 115.261 14.9321 114.987 14.8144C114.713 14.6966 114.468 14.5209 114.27 14.2994C114.071 14.078 113.923 13.816 113.836 13.5317C113.749 13.2474 113.725 12.9477 113.765 12.6532C113.726 12.3579 113.75 12.0575 113.837 11.7723C113.924 11.4872 114.071 11.224 114.269 11.0006C114.467 10.7772 114.71 10.5987 114.983 10.4773C115.256 10.3559 115.552 10.2944 115.851 10.297C117.109 10.297 117.868 11.1543 117.868 12.5706V12.8811H114.675V12.931C114.661 13.0965 114.682 13.2631 114.736 13.4201C114.79 13.5771 114.877 13.7211 114.99 13.8427C115.104 13.9644 115.241 14.061 115.394 14.1265C115.547 14.192 115.713 14.2249 115.879 14.2231C116.093 14.2486 116.309 14.2103 116.501 14.1129C116.692 14.0156 116.85 13.8636 116.955 13.6763L117.814 13.6763ZM114.675 12.2229H116.959C116.97 12.0715 116.95 11.9194 116.898 11.7765C116.847 11.6336 116.767 11.5029 116.662 11.3928C116.557 11.2828 116.43 11.1959 116.29 11.1376C116.149 11.0793 115.998 11.051 115.846 11.0545C115.691 11.0526 115.538 11.0815 115.395 11.1395C115.252 11.1975 115.122 11.2835 115.013 11.3924C114.904 11.5013 114.818 11.6309 114.76 11.7735C114.702 11.9161 114.673 12.0689 114.675 12.2229H114.675Z" fill="black"/>
</g>
<defs>
<filter id="filter0_d_287_5898" x="0.40625" y="0.874756" width="144" height="48" filterUnits="userSpaceOnUse" color-interpolation-filters="sRGB">
<feFlood flood-opacity="0" result="BackgroundImageFix"/>
<feColorMatrix in="SourceAlpha" type="matrix" values="0 0 0 0 0 0 0 0 0 0 0 0 0 0 0 0 0 0 127 0" result="hardAlpha"/>
<feOffset dy="4"/>
<feGaussianBlur stdDeviation="2"/>
<feComposite in2="hardAlpha" operator="out"/>
<feColorMatrix type="matrix" values="0 0 0 0 0 0 0 0 0 0 0 0 0 0 0 0 0 0 0.25 0"/>
<feBlend mode="normal" in2="BackgroundImageFix" result="effect1_dropShadow_287_5898"/>
<feBlend mode="normal" in="SourceGraphic" in2="effect1_dropShadow_287_5898" result="shape"/>
</filter>
</defs>
</svg>
