<svg width="137" height="41" viewBox="0 0 137 41" fill="none" xmlns="http://www.w3.org/2000/svg">
<rect x="0.53125" y="0.403809" width="136" height="40" rx="4" fill="white"/>
<path d="M50.4775 27.214H45.5553L44.3527 30.4727H42.1992L47.0096 18.2456H49.0512L53.9734 30.4727H51.7081L50.4775 27.214ZM46.1706 25.5429H49.8343L48.5198 22.0335C48.352 21.56 48.1562 21.003 47.9884 20.4181C47.8206 20.9473 47.6528 21.4765 47.485 22.0056L46.1706 25.5429Z" fill="black"/>
<path d="M54.8411 23.5928C54.8411 22.9244 54.8131 22.1724 54.7852 21.3646H56.7429C56.8268 21.7546 56.8547 22.1167 56.8827 22.5066C57.6937 21.6153 58.6167 21.1697 59.6794 21.1697C60.2947 21.1697 60.854 21.3089 61.3854 21.6153C61.9168 21.9217 62.3363 22.3952 62.6439 23.0636C62.9516 23.7321 63.1194 24.5676 63.1194 25.5703C63.1194 26.6287 62.9236 27.5478 62.56 28.2998C62.1965 29.0518 61.6931 29.6367 61.0218 29.9988C60.3786 30.3887 59.6235 30.5837 58.7565 30.5837C58.1412 30.5837 57.5259 30.4723 56.9107 30.2773V34.0931L54.8131 34.2602V23.5928H54.8411ZM60.3506 28.2441C60.7701 27.6871 60.9939 26.8515 60.9939 25.7374C60.9939 24.7069 60.8261 23.9827 60.4625 23.5371C60.0989 23.0915 59.6515 22.8408 59.0641 22.8408C58.6446 22.8408 58.2811 22.9244 57.9455 23.1193C57.6098 23.3143 57.2742 23.565 56.9666 23.8992V28.7733C57.1624 28.8847 57.4141 28.9683 57.6937 29.024C57.9734 29.0797 58.2531 29.1075 58.5048 29.1075C59.2879 29.1075 59.9032 28.829 60.3506 28.2441Z" fill="black"/>
<path d="M64.3762 23.5928C64.3762 22.9244 64.3483 22.1724 64.3203 21.3646H66.278C66.3619 21.7546 66.3899 22.1167 66.4179 22.5066C67.2289 21.6153 68.1518 21.1697 69.2146 21.1697C69.8299 21.1697 70.3892 21.3089 70.9206 21.6153C71.452 21.9217 71.8715 22.3952 72.1791 23.0636C72.4867 23.7321 72.6545 24.5676 72.6545 25.5703C72.6545 26.6287 72.4588 27.5478 72.0952 28.2998C71.7316 29.0518 71.2282 29.6367 70.557 29.9988C69.9138 30.3887 69.1586 30.5837 68.2917 30.5837C67.6764 30.5837 67.0611 30.4723 66.4458 30.2773V34.0931L64.3483 34.2602V23.5928H64.3762ZM69.8858 28.2441C70.3053 27.6871 70.529 26.8515 70.529 25.7374C70.529 24.7069 70.3612 23.9827 69.9977 23.5371C69.6341 23.0915 69.1866 22.8408 68.5993 22.8408C68.1798 22.8408 67.8162 22.9244 67.4806 23.1193C67.145 23.3143 66.8094 23.565 66.5018 23.8992V28.7733C66.6975 28.8847 66.9492 28.9683 67.2289 29.024C67.5086 29.0797 67.7882 29.1075 68.0399 29.1075C68.823 29.1075 69.4663 28.829 69.8858 28.2441Z" fill="black"/>
<path d="M76.4881 29.8877C75.5932 29.3863 74.894 28.69 74.4186 27.743C73.9431 26.8239 73.6914 25.7098 73.6914 24.4565C73.6914 23.0917 73.9711 21.9219 74.5304 20.975C75.0898 20.028 75.8449 19.3038 76.8237 18.8304C77.7746 18.3569 78.8653 18.1062 80.0679 18.1062C80.7671 18.1062 81.4383 18.1898 82.0815 18.329C82.7248 18.4961 83.3121 18.6911 83.8714 18.9696L83.34 20.585C82.2214 20.0559 81.1586 19.8052 80.1518 19.8052C79.3128 19.8052 78.5577 20.0001 77.9144 20.3622C77.2712 20.7243 76.7678 21.2535 76.4322 21.9498C76.0686 22.6461 75.9008 23.5095 75.9008 24.4843C75.9008 25.3478 76.0406 26.1276 76.3203 26.7961C76.6 27.4645 77.0195 27.9937 77.6068 28.4115C78.1941 28.8014 78.9492 28.9964 79.8442 28.9964C80.2637 28.9964 80.6552 28.9685 81.0747 28.885C81.4942 28.8014 81.8578 28.7179 82.2214 28.5786V26.0998H79.3967V24.4843H84.2629V29.637C83.5638 29.9712 82.8366 30.2219 82.0536 30.389C81.2705 30.5561 80.5154 30.6397 79.7603 30.6397C78.4738 30.6397 77.411 30.389 76.4881 29.8877Z" fill="black"/>
<path d="M91.6184 30.472C91.5345 30.1099 91.5065 29.72 91.4786 29.2744C91.143 29.6643 90.7514 29.9707 90.2201 30.2492C89.7166 30.5277 89.1293 30.6391 88.4581 30.6391C87.9267 30.6391 87.4513 30.5277 87.0318 30.3328C86.6123 30.1378 86.2487 29.8314 85.997 29.4136C85.7453 28.9958 85.6055 28.4945 85.6055 27.9096C85.6055 27.0183 85.9131 26.322 86.5564 25.7928C87.1996 25.2637 88.2623 25.013 89.7446 25.013C90.304 25.013 90.8633 25.0408 91.3947 25.1244V24.9573C91.3947 24.1496 91.2269 23.5925 90.8913 23.2583C90.5557 22.9241 90.0522 22.757 89.409 22.757C88.9615 22.757 88.4861 22.8127 87.9827 22.9519C87.4793 23.0912 87.0318 23.2305 86.6403 23.4254L86.3046 21.9214C86.6682 21.7543 87.1716 21.5872 87.7869 21.4479C88.4022 21.3087 89.0454 21.2251 89.7166 21.2251C90.4997 21.2251 91.1709 21.3365 91.7303 21.5872C92.2896 21.8378 92.7091 22.2278 93.0168 22.8127C93.3244 23.3976 93.4922 24.1774 93.4922 25.1523V28.773C93.4922 29.163 93.5202 29.72 93.5482 30.472H91.6184ZM90.3879 28.773C90.8353 28.5781 91.1709 28.2995 91.4506 27.9932V26.2942C90.8913 26.2385 90.4158 26.2106 90.0523 26.2106C89.1853 26.2106 88.598 26.3499 88.2624 26.6284C87.9267 26.9069 87.7589 27.269 87.7589 27.7425C87.7589 28.1881 87.8708 28.5224 88.1225 28.7452C88.3742 28.968 88.6819 29.0794 89.1014 29.0794C89.5209 29.1073 89.9404 28.9958 90.3879 28.773Z" fill="black"/>
<path d="M95.1406 28.2998V17.5488L97.2102 17.3817V27.9377C97.2102 28.3276 97.2661 28.6061 97.406 28.7733C97.5458 28.9404 97.7416 29.0239 98.0492 29.0239C98.189 29.0239 98.3568 28.9961 98.6085 28.9404L98.8602 30.4444C98.6645 30.5279 98.4128 30.5836 98.1331 30.6393C97.8534 30.6951 97.5738 30.7229 97.3221 30.7229C95.8678 30.6393 95.1406 29.8595 95.1406 28.2998Z" fill="black"/>
<path d="M100.344 28.2998V17.5488L102.413 17.3817V27.9377C102.413 28.3276 102.469 28.6061 102.609 28.7733C102.749 28.9404 102.945 29.0239 103.252 29.0239C103.392 29.0239 103.56 28.9961 103.812 28.9404L104.063 30.4444C103.868 30.5279 103.616 30.5836 103.336 30.6393C103.057 30.6951 102.777 30.7229 102.525 30.7229C101.071 30.6393 100.344 29.8595 100.344 28.2998Z" fill="black"/>
<path d="M112.622 26.1831H106.637C106.721 28.077 107.644 29.0518 109.378 29.0518C109.797 29.0518 110.245 28.9961 110.692 28.8847C111.14 28.7733 111.559 28.6341 111.979 28.4669L112.426 29.8874C111.392 30.3887 110.245 30.6394 108.986 30.6394C108.008 30.6394 107.197 30.4445 106.525 30.0824C105.854 29.7203 105.351 29.1911 105.015 28.4948C104.68 27.7985 104.512 26.9908 104.512 26.016C104.512 25.0133 104.68 24.1499 105.043 23.4257C105.407 22.7015 105.882 22.1445 106.525 21.7546C107.169 21.3646 107.896 21.1697 108.735 21.1697C109.602 21.1697 110.329 21.3646 110.888 21.7824C111.476 22.1724 111.895 22.7294 112.175 23.3979C112.454 24.0663 112.594 24.8183 112.594 25.626V26.1831H112.622ZM110.581 24.874C110.553 24.1499 110.357 23.5928 110.021 23.2307C109.686 22.8687 109.266 22.6737 108.707 22.6737C108.175 22.6737 107.728 22.8687 107.392 23.2307C107.029 23.5928 106.805 24.1499 106.693 24.8462H110.581V24.874Z" fill="black"/>
<path d="M114.189 23.6482C114.189 23.1469 114.161 22.3949 114.133 21.3644H116.091C116.118 21.615 116.146 21.9214 116.174 22.2835C116.202 22.6456 116.23 22.9241 116.23 23.1469C116.482 22.757 116.706 22.4227 116.957 22.1442C117.181 21.8657 117.461 21.6429 117.769 21.4758C118.076 21.3087 118.44 21.2251 118.831 21.2251C119.167 21.2251 119.419 21.2529 119.67 21.3365L119.419 23.1469C119.223 23.0912 118.999 23.0633 118.747 23.0633C118.244 23.0633 117.824 23.1747 117.461 23.4254C117.097 23.6761 116.706 24.0939 116.286 24.6509V30.4999H114.217V23.6482H114.189Z" fill="black"/>
<path d="M120.845 34.2043C120.537 34.1486 120.286 34.0929 120.09 34.0094L120.481 32.5054C120.621 32.5332 120.789 32.5889 121.013 32.6168C121.236 32.6446 121.432 32.6725 121.628 32.6725C122.551 32.6725 123.25 32.0876 123.698 30.8899L123.837 30.5557L120.481 21.3924H122.719L124.425 26.5172C124.704 27.3806 124.872 28.0769 124.956 28.5225C125.124 27.8541 125.292 27.2135 125.515 26.545L127.221 21.3645H129.319L125.963 30.5836C125.655 31.447 125.292 32.1711 124.928 32.7003C124.565 33.2295 124.117 33.6195 123.642 33.898C123.138 34.1486 122.551 34.2879 121.824 34.2879C121.488 34.2879 121.153 34.2601 120.845 34.2043Z" fill="black"/>
<path d="M42.1992 6.63135H45.9188L45.807 7.52262H43.2899V9.24945H45.6671V10.085H43.2899V12.0068H45.9468L45.8629 12.8981H42.1992V6.63135Z" fill="black"/>
<path d="M48.4933 9.72293L46.5356 6.63135H47.7662L49.1086 8.88737L50.507 6.63135H51.7096L49.7518 9.66723L51.8494 12.9259H50.5909L49.0806 10.4471L47.5424 12.9259H46.3398L48.4933 9.72293Z" fill="black"/>
<path d="M52.6602 6.63135H54.3662C55.1772 6.63135 55.7925 6.79846 56.212 7.13269C56.6315 7.46691 56.8552 7.9404 56.8552 8.55314C56.8552 8.97093 56.7713 9.333 56.5756 9.63938C56.3798 9.94575 56.1281 10.1964 55.7645 10.3635C55.4289 10.5306 55.0374 10.6142 54.5899 10.6142C54.3382 10.6142 54.0585 10.5864 53.7509 10.5306V12.9259H52.6602V6.63135ZM55.4009 9.44441C55.6247 9.2216 55.7365 8.94307 55.7365 8.55314C55.7365 8.16321 55.6247 7.88469 55.373 7.71758C55.1492 7.55047 54.7857 7.46691 54.3382 7.46691H53.7509V9.69508C54.0306 9.75079 54.2263 9.75079 54.3662 9.75079C54.8416 9.75079 55.1772 9.63938 55.4009 9.44441Z" fill="black"/>
<path d="M57.9453 6.63135H59.036V12.0068H61.6649L61.581 12.9259H57.9733V6.63135H57.9453Z" fill="black"/>
<path d="M63.313 12.6193C62.8376 12.3686 62.502 11.9787 62.2503 11.5052C61.9986 11.0317 61.8867 10.4747 61.8867 9.83406C61.8867 9.16561 62.0266 8.58071 62.2783 8.07937C62.53 7.57803 62.9215 7.1881 63.3969 6.93744C63.9004 6.65891 64.4597 6.51965 65.1309 6.51965C65.7742 6.51965 66.3055 6.65891 66.781 6.90958C67.2284 7.16025 67.592 7.55018 67.8437 8.02367C68.0954 8.49716 68.2073 9.0542 68.2073 9.66695C68.2073 10.3354 68.0675 10.9203 67.8158 11.4216C67.5641 11.923 67.1725 12.3129 66.6971 12.5636C66.2216 12.8421 65.6343 12.9814 64.9911 12.9814C64.3199 13.0092 63.7605 12.8699 63.313 12.6193ZM66.1377 11.8394C66.4454 11.6444 66.6691 11.3659 66.8369 11.0038C66.9767 10.6418 67.0606 10.224 67.0606 9.77835C67.0606 9.33272 67.0047 8.91494 66.8649 8.58071C66.725 8.21863 66.5293 7.94011 66.2216 7.74515C65.914 7.52233 65.5504 7.43877 65.075 7.43877C64.6275 7.43877 64.2639 7.55018 63.9563 7.74515C63.6487 7.96796 63.4249 8.24649 63.2571 8.60856C63.0893 8.97064 63.0334 9.36057 63.0334 9.80621C63.0334 10.2518 63.1173 10.6696 63.2571 11.0317C63.3969 11.3938 63.6207 11.6723 63.9283 11.8951C64.236 12.1179 64.5995 12.2015 65.047 12.2015C65.4665 12.1458 65.8301 12.0622 66.1377 11.8394Z" fill="black"/>
<path d="M69.4102 6.63135H71.3958C72.123 6.63135 72.6543 6.77061 73.0459 7.04913C73.4374 7.32765 73.6052 7.74543 73.6052 8.27462C73.6052 8.60885 73.5493 8.91522 73.4095 9.16589C73.2696 9.41656 73.1018 9.63938 72.906 9.77864C72.7103 9.94575 72.5145 10.0572 72.2908 10.1407L74.2485 12.9259H72.962L71.3119 10.4192H70.5009V12.9259H69.4102V6.63135ZM71.1161 9.61153C71.3679 9.61153 71.6196 9.55582 71.8153 9.44441C72.0111 9.333 72.1789 9.19374 72.2908 8.99878C72.4026 8.80381 72.4586 8.581 72.4586 8.35818C72.4586 8.05181 72.3467 7.80114 72.1509 7.66188C71.9552 7.52262 71.6475 7.43906 71.284 7.43906H70.5009V9.58367H71.1161V9.61153Z" fill="black"/>
<path d="M75.0898 6.63135H78.8095L78.6976 7.52262H76.1806V9.24945H78.5578V10.085H76.1806V12.0068H78.8374L78.7536 12.8981H75.0898V6.63135Z" fill="black"/>
<path d="M82.8633 6.63135H83.954V12.9259H82.8633V6.63135Z" fill="black"/>
<path d="M86.8639 7.52191H84.9062L84.9901 6.60278H89.9124L89.8005 7.52191H87.9267V12.9252H86.836V7.52191H86.8639Z" fill="black"/>
<path d="M94.6646 12.6193C94.1892 12.3686 93.8536 11.9787 93.6019 11.5052C93.3501 11.0317 93.2383 10.4747 93.2383 9.83406C93.2383 9.16561 93.3781 8.58071 93.6298 8.07937C93.8815 7.57803 94.2731 7.1881 94.7485 6.93744C95.2519 6.65891 95.8113 6.51965 96.4825 6.51965C97.1257 6.51965 97.6571 6.65891 98.1326 6.90958C98.58 7.16025 98.9436 7.55018 99.1953 8.02367C99.447 8.49716 99.5589 9.0542 99.5589 9.66695C99.5589 10.3354 99.4191 10.9203 99.1674 11.4216C98.9156 11.923 98.5241 12.3129 98.0487 12.5636C97.5732 12.8421 96.9859 12.9814 96.3427 12.9814C95.6714 13.0092 95.1121 12.8699 94.6646 12.6193ZM97.4893 11.8394C97.797 11.6444 98.0207 11.3659 98.1885 11.0038C98.3283 10.6418 98.4122 10.224 98.4122 9.77835C98.4122 9.33272 98.3563 8.91494 98.2165 8.58071C98.0766 8.21863 97.8809 7.94011 97.5732 7.74515C97.2656 7.52233 96.902 7.43877 96.4266 7.43877C95.9791 7.43877 95.6155 7.55018 95.3079 7.74515C95.0002 7.96796 94.7765 8.24649 94.6087 8.60856C94.4409 8.97064 94.3849 9.36057 94.3849 9.80621C94.3849 10.2518 94.4688 10.6696 94.6087 11.0317C94.7485 11.3938 94.9723 11.6723 95.2799 11.8951C95.5875 12.1179 95.9511 12.2015 96.3986 12.2015C96.7901 12.1458 97.1817 12.0622 97.4893 11.8394Z" fill="black"/>
<path d="M100.762 6.63135H102.02L105.153 11.5055C105.125 11.032 105.125 10.6142 105.125 10.2243V6.63135H106.131V12.9259H104.929L101.741 7.96825C101.769 8.52529 101.797 9.02663 101.797 9.47227V12.9259H100.79V6.63135H100.762Z" fill="black"/>
<path fill-rule="evenodd" clip-rule="evenodd" d="M26.8158 6.65894H15.2094C9.72786 6.65894 7.74219 8.66429 7.74219 14.0955V25.6541C7.74219 31.1131 9.75582 33.0906 15.2094 33.0906H26.8158C32.2974 33.0906 34.283 31.0853 34.283 25.6541V14.0955C34.311 8.66429 32.2974 6.65894 26.8158 6.65894Z" fill="#C8102E"/>
<path d="M13.0003 19.8893H13.6995V23.343H13.0003V21.9503H11.4062V23.343H10.707V19.8893H11.4062V21.2819H13.0003V19.8893ZM16.9717 21.8668C16.9717 22.4238 16.692 22.7302 16.1886 22.7302C15.6852 22.7302 15.4055 22.4238 15.4055 21.8389V19.8893H14.7063V21.8668C14.7063 22.8416 15.2377 23.3987 16.1886 23.3987C17.1395 23.3987 17.6988 22.8416 17.6988 21.8389V19.8893H16.9996V21.8668H16.9717ZM25.1101 22.2567L24.327 19.8893H23.7397L22.9566 22.2567L22.2015 19.8893H21.4464L22.649 23.343H23.2363L24.0194 21.0591L24.8025 23.343H25.3898L26.5924 19.8893H25.8652L25.1101 22.2567ZM27.8789 21.8668H29.1654V21.2262H27.8789V20.5299H29.7527V19.8893H27.2077V23.343H29.8366V22.7024H27.9068V21.8668H27.8789ZM30.6476 23.343H31.3468V19.8893H30.6476V23.343ZM19.0692 22.6188L18.7616 23.343H18.0344L19.5447 19.8893H20.1599L21.6702 23.343H20.943L20.6633 22.6188H19.0692ZM19.3209 22.006H20.3837L19.8523 20.7806L19.3209 22.006Z" fill="white"/>
<path d="M21.0282 15.4883C18.595 15.4883 16.6094 13.5108 16.6094 11.0876H17.2247C17.2247 13.1766 18.9307 14.8755 21.0282 14.8755C23.1257 14.8755 24.8317 13.1766 24.8317 11.0876H25.447C25.447 13.5108 23.4613 15.4883 21.0282 15.4883Z" fill="white"/>
</svg>
