<svg width="137" height="41" viewBox="0 0 137 41" fill="none" xmlns="http://www.w3.org/2000/svg">
<rect x="0.96875" y="0.403809" width="136" height="40" rx="4" fill="white"/>
<path d="M48.2147 10.0737C48.2314 10.4455 48.1726 10.8167 48.0419 11.1652C47.9113 11.5136 47.7114 11.832 47.4544 12.1011C47.1665 12.3985 46.8189 12.6316 46.4346 12.7854C46.0503 12.9391 45.6378 13.0099 45.2243 12.9932C44.8083 13.0025 44.3948 12.9263 44.0095 12.7694C43.6241 12.6125 43.2751 12.3781 42.9839 12.0809C42.3932 11.4767 42.0625 10.6652 42.0625 9.82027C42.0625 8.97529 42.3932 8.16388 42.9839 7.55967C43.4355 7.11838 44.0075 6.8204 44.6279 6.70316C45.2484 6.58593 45.8896 6.65467 46.4711 6.90075C46.8367 7.05101 47.1627 7.28341 47.424 7.57994L46.8868 8.11721C46.6854 7.8747 46.4304 7.68247 46.1418 7.55577C45.8532 7.42907 45.539 7.3714 45.2243 7.38733C44.8269 7.39008 44.4363 7.49012 44.0865 7.67869C43.7367 7.86727 43.4385 8.13865 43.2178 8.46911C42.9971 8.79957 42.8607 9.17905 42.8206 9.57438C42.7804 9.96971 42.8377 10.3689 42.9875 10.7369C43.1372 11.105 43.3748 11.4308 43.6795 11.6859C43.9842 11.9409 44.3468 12.1174 44.7355 12.2C45.1241 12.2826 45.5271 12.2687 45.9092 12.1596C46.2913 12.0505 46.6409 11.8494 46.9273 11.574C47.237 11.2345 47.4165 10.7964 47.4342 10.3373H45.2243V9.60739H48.1742C48.1973 9.76185 48.2108 9.91758 48.2147 10.0737Z" fill="black" stroke="black" stroke-width="0.191797" stroke-miterlimit="10"/>
<path d="M52.8559 7.53946H50.1188V9.46554H52.6126V10.1954H50.1188V12.1215H52.8559V12.8716H49.3281V6.78931H52.8559V7.53946Z" fill="black" stroke="black" stroke-width="0.191797" stroke-miterlimit="10"/>
<path d="M56.1828 12.8716H55.4023V7.53946H53.6992V6.78931H57.9264V7.53946H56.1828V12.8716Z" fill="black" stroke="black" stroke-width="0.191797" stroke-miterlimit="10"/>
<path d="M60.9062 12.8716V6.78931H61.6868V12.8716H60.9062Z" fill="black" stroke="black" stroke-width="0.191797" stroke-miterlimit="10"/>
<path d="M65.1555 12.8716H64.3749V7.53946H62.6719V6.78931H66.8484V7.53946H65.1555V12.8716Z" fill="black" stroke="black" stroke-width="0.191797" stroke-miterlimit="10"/>
<path d="M74.7627 12.0809C74.4699 12.374 74.1223 12.6064 73.7396 12.765C73.3569 12.9236 72.9467 13.0052 72.5325 13.0052C72.1183 13.0052 71.7081 12.9236 71.3254 12.765C70.9428 12.6064 70.5951 12.374 70.3023 12.0809C69.7292 11.4717 69.4102 10.6669 69.4102 9.83047C69.4102 8.99408 69.7292 8.1892 70.3023 7.58C70.5888 7.27872 70.9353 7.04093 71.3195 6.88203C71.7037 6.72312 72.1169 6.64663 72.5325 6.65751C72.9475 6.65095 73.3595 6.7294 73.743 6.88805C74.1266 7.0467 74.4736 7.28218 74.7627 7.58C75.0542 7.8765 75.2833 8.22841 75.4365 8.61494C75.5897 9.00147 75.664 9.41478 75.6548 9.83047C75.6681 10.2467 75.5958 10.6612 75.4423 11.0483C75.2889 11.4354 75.0576 11.7869 74.7627 12.0809ZM70.8801 11.5741C71.0961 11.7929 71.3534 11.9667 71.637 12.0853C71.9207 12.2039 72.2251 12.2649 72.5325 12.2649C72.84 12.2649 73.1444 12.2039 73.428 12.0853C73.7117 11.9667 73.9689 11.7929 74.1849 11.5741C74.6223 11.0988 74.8651 10.4764 74.8651 9.83047C74.8651 9.18452 74.6223 8.56217 74.1849 8.08686C73.9689 7.86802 73.7117 7.69426 73.428 7.57566C73.1444 7.45706 72.84 7.39599 72.5325 7.39599C72.2251 7.39599 71.9207 7.45706 71.637 7.57566C71.3534 7.69426 71.0961 7.86802 70.8801 8.08686C70.4427 8.56217 70.1999 9.18452 70.1999 9.83047C70.1999 10.4764 70.4427 11.0988 70.8801 11.5741Z" fill="black" stroke="black" stroke-width="0.191797" stroke-miterlimit="10"/>
<path d="M76.7617 12.8716V6.78931H77.7045L80.6646 11.5234V10.3475V6.78931H81.4451V12.8716H80.6341L77.5423 7.91454V9.08032V12.8716H76.7617Z" fill="black" stroke="black" stroke-width="0.191797" stroke-miterlimit="10"/>
<path d="M69.2194 21.7416C68.3653 21.7436 67.5309 21.9989 66.8219 22.475C66.1128 22.9512 65.5609 23.627 65.2359 24.4168C64.9109 25.2067 64.8274 26.0752 64.996 26.9125C65.1646 27.7498 65.5777 28.5183 66.1831 29.1208C66.7885 29.7234 67.5589 30.1329 68.397 30.2975C69.2351 30.4622 70.1032 30.3746 70.8915 30.0459C71.6798 29.7172 72.353 29.1621 72.8258 28.4508C73.2987 27.7396 73.55 26.904 73.548 26.0499C73.5563 25.4802 73.4498 24.9145 73.2349 24.3868C73.0201 23.859 72.7012 23.3798 72.2973 22.9779C71.8934 22.5759 71.4128 22.2593 70.884 22.0469C70.3552 21.8345 69.7891 21.7307 69.2194 21.7416ZM69.2194 28.6654C68.6959 28.702 68.1735 28.5802 67.72 28.316C67.2666 28.0518 66.9032 27.6573 66.677 27.1837C66.4508 26.7102 66.3722 26.1796 66.4516 25.6608C66.5309 25.1421 66.7645 24.6592 67.122 24.275C67.4794 23.8907 67.9441 23.6229 68.4558 23.5063C68.9675 23.3897 69.5024 23.4297 69.991 23.6211C70.4796 23.8126 70.8994 24.1466 71.1956 24.5797C71.4919 25.0129 71.651 25.5252 71.6523 26.0499C71.6686 26.3825 71.6182 26.7149 71.504 27.0276C71.3899 27.3403 71.2142 27.627 70.9875 27.8708C70.7607 28.1145 70.4874 28.3104 70.1838 28.4469C69.8801 28.5833 69.5522 28.6576 69.2194 28.6654ZM59.7715 21.7416C58.9174 21.7436 58.083 21.9989 57.374 22.475C56.6649 22.9512 56.113 23.627 55.788 24.4168C55.463 25.2067 55.3795 26.0752 55.5481 26.9125C55.7167 27.7498 56.1298 28.5183 56.7352 29.1208C57.3405 29.7234 58.111 30.1329 58.9491 30.2975C59.7872 30.4622 60.6553 30.3746 61.4436 30.0459C62.2319 29.7172 62.9051 29.1621 63.3779 28.4508C63.8508 27.7396 64.1021 26.904 64.1001 26.0499C64.1083 25.4802 64.0019 24.9145 63.787 24.3868C63.5721 23.859 63.2533 23.3798 62.8494 22.9779C62.4455 22.5759 61.9649 22.2593 61.4361 22.0469C60.9073 21.8345 60.3412 21.7307 59.7715 21.7416ZM59.7715 28.6654C59.248 28.702 58.7256 28.5802 58.2721 28.316C57.8187 28.0518 57.4553 27.6573 57.2291 27.1837C57.0029 26.7102 56.9243 26.1796 57.0037 25.6608C57.083 25.1421 57.3166 24.6592 57.6741 24.275C58.0315 23.8907 58.4962 23.6229 59.0079 23.5063C59.5196 23.3897 60.0545 23.4297 60.5431 23.6211C61.0317 23.8126 61.4515 24.1466 61.7477 24.5797C62.044 25.0129 62.2031 25.5252 62.2044 26.0499C62.2207 26.3825 62.1703 26.7149 62.0561 27.0276C61.9419 27.3403 61.7663 27.627 61.5396 27.8708C61.3128 28.1145 61.0395 28.3104 60.7359 28.4469C60.4322 28.5833 60.1043 28.6576 59.7715 28.6654ZM48.5394 23.0696V24.8943H52.9187C52.85 25.7537 52.4928 26.5647 51.905 27.1955C51.4657 27.643 50.9373 27.9934 50.3541 28.2239C49.7709 28.4544 49.1457 28.5599 48.5191 28.5336C47.2286 28.5336 45.991 28.0209 45.0784 27.1084C44.1659 26.1959 43.6533 24.9582 43.6533 23.6677C43.6533 22.3772 44.1659 21.1395 45.0784 20.227C45.991 19.3145 47.2286 18.8018 48.5191 18.8018C49.7563 18.7834 50.951 19.2533 51.8442 20.1095L53.1316 18.8221C52.5274 18.2245 51.81 17.7535 51.0215 17.4367C50.2329 17.1199 49.3891 16.9637 48.5394 16.9771C47.6382 16.942 46.7392 17.0893 45.8963 17.4099C45.0533 17.7306 44.2838 18.2182 43.6338 18.8434C42.9838 19.4686 42.4666 20.2186 42.1134 21.0484C41.7602 21.8783 41.5781 22.7709 41.5781 23.6728C41.5781 24.5746 41.7602 25.4672 42.1134 26.2971C42.4666 27.1269 42.9838 27.8769 43.6338 28.5021C44.2838 29.1273 45.0533 29.6149 45.8963 29.9356C46.7392 30.2563 47.6382 30.4035 48.5394 30.3684C49.4066 30.403 50.2713 30.2539 51.0767 29.9306C51.8821 29.6074 52.61 29.1175 53.2127 28.493C54.2772 27.3236 54.8444 25.7855 54.7941 24.205C54.7977 23.8245 54.7672 23.4446 54.7029 23.0696H48.5394ZM94.4712 24.4888C94.2069 23.711 93.7125 23.0319 93.0536 22.5413C92.3946 22.0507 91.6022 21.7718 90.7813 21.7416C90.2268 21.7405 89.6779 21.8532 89.1687 22.0726C88.6594 22.2921 88.2006 22.6136 87.8206 23.0174C87.4405 23.4212 87.1474 23.8987 86.9591 24.4203C86.7709 24.9419 86.6917 25.4965 86.7264 26.0499C86.7177 26.9753 87.0087 27.8787 87.5557 28.6251C88.1028 29.3715 88.8767 29.9208 89.7617 30.1911C90.6468 30.4615 91.5956 30.4382 92.4663 30.1248C93.3371 29.8114 94.0831 29.2248 94.5929 28.4525L93.123 27.4387C92.9039 27.804 92.5931 28.1056 92.2214 28.3136C91.8498 28.5217 91.4302 28.6289 91.0043 28.6248C90.5649 28.6429 90.1303 28.5277 89.7576 28.2944C89.3849 28.061 89.0916 27.7203 88.916 27.3171L94.6841 24.9348L94.4712 24.4888ZM88.5916 25.9283C88.5711 25.6134 88.6136 25.2976 88.7166 24.9993C88.8196 24.7011 88.9811 24.4264 89.1917 24.1913C89.4022 23.9562 89.6575 23.7655 89.9426 23.6304C90.2278 23.4952 90.537 23.4183 90.8522 23.4041C91.1789 23.3842 91.5041 23.4611 91.7872 23.6252C92.0703 23.7893 92.2987 24.0333 92.4438 24.3266L88.5916 25.9283ZM83.9082 30.1048H85.8039V17.4333H83.9082V30.1048ZM80.8062 22.7047H80.7353C80.4521 22.3821 80.1026 22.1246 79.7107 21.9496C79.3188 21.7747 78.8937 21.6864 78.4645 21.6909C77.3567 21.7447 76.3121 22.2225 75.547 23.0256C74.782 23.8286 74.3552 24.8952 74.3552 26.0043C74.3552 27.1134 74.782 28.18 75.547 28.9831C76.3121 29.7861 77.3567 30.264 78.4645 30.3177C78.8943 30.3263 79.3207 30.2399 79.7132 30.0647C80.1058 29.8895 80.4548 29.6297 80.7353 29.304H80.8062V29.9224C80.8062 31.5747 79.9243 32.4567 78.5051 32.4567C78.031 32.4463 77.5707 32.2952 77.1826 32.0226C76.7946 31.7501 76.4963 31.3684 76.3256 30.926L74.6834 31.6051C74.987 32.3677 75.5149 33.0202 76.1972 33.4763C76.8796 33.9325 77.6844 34.1708 78.5051 34.1597C80.7251 34.1597 82.56 32.852 82.56 29.6689V21.995H80.8062V22.7047ZM78.6267 28.6654C77.9625 28.6239 77.3391 28.3309 76.8834 27.8459C76.4278 27.3609 76.1741 26.7205 76.1741 26.055C76.1741 25.3895 76.4278 24.7491 76.8834 24.2641C77.3391 23.7791 77.9625 23.4861 78.6267 23.4447C78.9514 23.4587 79.2699 23.5378 79.5633 23.6775C79.8567 23.8171 80.119 24.0143 80.3347 24.2573C80.5503 24.5004 80.7148 24.7844 80.8185 25.0923C80.9221 25.4003 80.9628 25.726 80.938 26.0499C80.9657 26.375 80.9271 26.7024 80.8247 27.0121C80.7222 27.3219 80.558 27.6076 80.3419 27.8521C80.1259 28.0966 79.8625 28.2947 79.5677 28.4345C79.2729 28.5743 78.9528 28.6528 78.6267 28.6654ZM103.351 17.4333H98.81V30.1048H100.706V25.2998H103.351C103.892 25.3386 104.434 25.2657 104.945 25.0856C105.456 24.9055 105.924 24.6221 106.321 24.2531C106.717 23.8841 107.033 23.4373 107.25 22.9407C107.466 22.4441 107.577 21.9082 107.577 21.3665C107.577 20.8249 107.466 20.289 107.25 19.7924C107.033 19.2958 106.717 18.849 106.321 18.48C105.924 18.1109 105.456 17.8275 104.945 17.6475C104.434 17.4674 103.892 17.3945 103.351 17.4333ZM103.351 23.5156H100.706V19.1972H103.392C103.677 19.1972 103.959 19.2533 104.222 19.3623C104.485 19.4713 104.725 19.6311 104.926 19.8326C105.127 20.034 105.287 20.2732 105.396 20.5364C105.505 20.7996 105.561 21.0817 105.561 21.3665C105.561 21.6514 105.505 21.9335 105.396 22.1967C105.287 22.4599 105.127 22.6991 104.926 22.9005C104.725 23.102 104.485 23.2618 104.222 23.3708C103.959 23.4798 103.677 23.5359 103.392 23.5359L103.351 23.5156ZM115.05 21.7011C114.359 21.6585 113.672 21.8192 113.072 22.1633C112.472 22.5075 111.986 23.0199 111.674 23.6373L113.347 24.3368C113.516 24.032 113.769 23.7828 114.077 23.6191C114.385 23.4554 114.733 23.3842 115.08 23.4143C115.321 23.3862 115.565 23.4063 115.798 23.4734C116.03 23.5405 116.247 23.6533 116.436 23.8053C116.625 23.9572 116.781 24.1452 116.897 24.3583C117.012 24.5713 117.084 24.8053 117.108 25.0464V25.168C116.498 24.8476 115.82 24.6806 115.131 24.6814C113.326 24.6814 111.482 25.6951 111.482 27.5401C111.499 27.9323 111.596 28.3168 111.765 28.671C111.935 29.0251 112.173 29.3416 112.467 29.6016C112.762 29.8617 113.105 30.06 113.477 30.1847C113.849 30.3095 114.243 30.3581 114.634 30.3279C115.11 30.3542 115.584 30.2535 116.008 30.0362C116.432 29.8188 116.791 29.4927 117.047 29.0911H117.108V30.1048H118.932V25.2288C118.932 23.0088 117.25 21.7213 115.09 21.7213L115.05 21.7011ZM114.817 28.6451C114.198 28.6451 113.337 28.3308 113.337 27.5705C113.337 26.5568 114.411 26.2121 115.364 26.2121C115.966 26.1973 116.561 26.3443 117.087 26.6379C117.024 27.1884 116.763 27.6972 116.353 28.07C115.943 28.4428 115.411 28.6543 114.857 28.6654L114.817 28.6451ZM125.582 21.995L123.413 27.4894H123.352L121.102 21.995H119.074L122.45 29.6791L120.524 33.9468H122.501L127.691 21.995H125.582ZM108.552 30.1048H110.437V17.4333H108.552V30.1048Z" fill="black"/>
<path d="M10.7269 7.33659C10.3929 7.73155 10.2224 8.23927 10.2505 8.7558V31.1794C10.216 31.6967 10.3872 32.2068 10.7269 32.5986L10.7979 32.6797L23.3579 20.1196V19.8155L10.7979 7.26562L10.7269 7.33659Z" fill="url(#paint0_linear_287_5899)"/>
<path d="M27.5156 24.3064L23.3594 20.1197V19.8156L27.5156 15.6289L27.6069 15.6897L32.5843 18.5079C34.0035 19.3087 34.0035 20.6266 32.5843 21.4375L27.6272 24.2557L27.5156 24.3064Z" fill="url(#paint1_linear_287_5899)"/>
<path d="M27.6355 24.2456L23.3576 19.9677L10.7266 32.5986C11.013 32.8536 11.3797 33.0003 11.7629 33.0133C12.1462 33.0262 12.5219 32.9047 12.825 32.6696L27.6355 24.2456Z" fill="url(#paint2_linear_287_5899)"/>
<path d="M27.6355 15.6897L12.825 7.27575C12.5239 7.03744 12.1485 6.9129 11.7647 6.92403C11.3809 6.93515 11.0133 7.08123 10.7266 7.33658L23.3576 19.9676L27.6355 15.6897Z" fill="url(#paint3_linear_287_5899)"/>
<path opacity="0.2" d="M27.5138 24.1543L12.825 32.5175C12.533 32.7379 12.1771 32.8571 11.8112 32.8571C11.4454 32.8571 11.0895 32.7379 10.7975 32.5175L10.7266 32.5885L10.7975 32.6696C11.0895 32.89 11.4454 33.0092 11.8112 33.0092C12.1771 33.0092 12.533 32.89 12.825 32.6696L27.6355 24.2455L27.5138 24.1543Z" fill="black"/>
<path opacity="0.12" d="M10.7253 32.4567C10.3997 32.0546 10.2401 31.5433 10.2793 31.0273V31.1794C10.2448 31.6968 10.416 32.2069 10.7557 32.5986L10.8267 32.5277L10.7253 32.4567Z" fill="black"/>
<path opacity="0.12" d="M32.5842 21.2855L27.5156 24.1543L27.6069 24.2456L32.5842 21.4274C32.878 21.3032 33.1329 21.102 33.322 20.8451C33.5111 20.5882 33.6275 20.2851 33.6588 19.9677C33.5954 20.2561 33.4652 20.5257 33.2785 20.7546C33.0919 20.9835 32.8541 21.1653 32.5842 21.2855Z" fill="black"/>
<path opacity="0.25" d="M12.8249 7.41783L32.5823 18.6499C32.8521 18.77 33.09 18.9519 33.2766 19.1808C33.4632 19.4097 33.5935 19.6793 33.6569 19.9677C33.6256 19.6503 33.5092 19.3471 33.3201 19.0903C33.131 18.8334 32.8761 18.6322 32.5823 18.508L12.8249 7.27591C11.4158 6.46493 10.25 7.13399 10.25 8.75595V8.908C10.2804 7.28605 11.4158 6.61699 12.8249 7.41783Z" fill="white"/>
<defs>
<linearGradient id="paint0_linear_287_5899" x1="22.2428" y1="8.52264" x2="5.23252" y2="25.5329" gradientUnits="userSpaceOnUse">
<stop stop-color="#00A0FF"/>
<stop offset="0.01" stop-color="#00A1FF"/>
<stop offset="0.26" stop-color="#00BEFF"/>
<stop offset="0.51" stop-color="#00D2FF"/>
<stop offset="0.76" stop-color="#00DFFF"/>
<stop offset="1" stop-color="#00E3FF"/>
</linearGradient>
<linearGradient id="paint1_linear_287_5899" x1="34.4394" y1="19.9676" x2="9.9174" y2="19.9676" gradientUnits="userSpaceOnUse">
<stop stop-color="#FFE000"/>
<stop offset="0.41" stop-color="#FFBD00"/>
<stop offset="0.78" stop-color="#FFA500"/>
<stop offset="1" stop-color="#FF9C00"/>
</linearGradient>
<linearGradient id="paint2_linear_287_5899" x1="25.314" y1="22.2992" x2="2.24169" y2="45.3614" gradientUnits="userSpaceOnUse">
<stop stop-color="#FF3A44"/>
<stop offset="1" stop-color="#C31162"/>
</linearGradient>
<linearGradient id="paint3_linear_287_5899" x1="7.54347" y1="-0.124426" x2="17.8429" y2="10.175" gradientUnits="userSpaceOnUse">
<stop stop-color="#32A071"/>
<stop offset="0.07" stop-color="#2DA771"/>
<stop offset="0.48" stop-color="#15CF74"/>
<stop offset="0.8" stop-color="#06E775"/>
<stop offset="1" stop-color="#00F076"/>
</linearGradient>
</defs>
</svg>
