<svg width="33" height="24" viewBox="0 0 33 24" fill="none" xmlns="http://www.w3.org/2000/svg">
<path d="M17.8485 6.10146C19.4057 4.5596 20.9611 3.01504 22.5219 1.47678C23.3302 0.679264 23.7249 0.672956 24.5377 1.48219C27.0979 4.03153 29.6409 6.598 32.2092 9.13923C32.6859 9.61053 32.8788 10.1224 32.8715 10.7865C32.8463 13.1025 32.8625 15.4184 32.8616 17.7335C32.8607 19.0969 32.7247 19.2384 31.3928 19.2393C28.3045 19.242 25.2154 19.251 22.1272 19.2321C21.4441 19.2276 20.8746 19.4015 20.3366 19.8331C18.7713 21.0893 17.1808 22.314 15.5984 23.5486C15.283 23.7946 14.9793 24.0902 14.5215 23.873C14.0475 23.6477 14.1475 23.2133 14.1403 22.8231C14.1205 21.6201 14.1061 20.4171 14.0898 19.2141C14.1025 16.4133 14.1295 13.6134 14.1169 10.8127C14.1142 10.1458 14.3151 9.63756 14.7918 9.17528C15.8291 8.1705 16.832 7.12877 17.8485 6.10146Z" fill="white"/>
<path d="M16.1385 5.23427C15.122 6.26158 14.119 7.3033 13.0818 8.30989C12.6051 8.77217 12.4041 9.28042 12.4068 9.94727C12.4195 12.7471 12.3924 15.5479 12.3798 18.3487C8.98339 18.3496 5.58607 18.3523 2.18965 18.3496C1.0542 18.3487 0.8965 18.1919 0.894698 17.0708C0.891093 14.6927 0.910017 12.3155 0.882983 9.93916C0.875774 9.2678 1.09746 8.76587 1.56785 8.29997C4.11179 5.77947 6.63681 3.23823 9.17173 0.708713C10.0846 -0.201445 10.4144 -0.204149 11.3129 0.687986C12.6276 1.99375 13.9334 3.30762 15.2446 4.61608C15.505 4.87471 15.7321 5.18471 16.1385 5.23427Z" fill="white"/>
</svg>
