<svg width="16" height="11" viewBox="0 0 16 11" fill="none" xmlns="http://www.w3.org/2000/svg">
<path d="M10.6624 8.19298C10.54 8.10969 10.4558 7.98122 10.4281 7.83581C10.4005 7.6904 10.4318 7.53997 10.5151 7.41761L11.7577 5.58934C11.7905 5.53948 11.7897 5.45986 11.7503 5.39885L10.5151 3.58099C10.4327 3.45861 10.4022 3.30862 10.4301 3.16379C10.458 3.01896 10.5421 2.89107 10.6641 2.80808C10.786 2.72509 10.9358 2.69374 11.0808 2.72089C11.2258 2.74803 11.3541 2.83147 11.4378 2.95296L12.6804 4.78124C12.8198 4.99271 12.8947 5.24018 12.8959 5.49347C12.8971 5.74676 12.8245 5.99492 12.6871 6.20769L11.4378 8.04564C11.3545 8.168 11.226 8.25226 11.0806 8.27989C10.9352 8.30752 10.7847 8.27626 10.6624 8.19298ZM7.68595 8.19298C7.5636 8.10969 7.47933 7.98122 7.4517 7.83581C7.42407 7.6904 7.45534 7.53997 7.53862 7.41761L8.78128 5.58934C8.79774 5.55999 8.80576 5.52666 8.80444 5.49304C8.80313 5.45942 8.79254 5.42682 8.77384 5.39885L7.53862 3.58099C7.49692 3.52042 7.4676 3.4522 7.45234 3.38026C7.43709 3.30832 7.43621 3.23407 7.44974 3.16179C7.46328 3.08951 7.49097 3.02062 7.53121 2.95907C7.57146 2.89752 7.62348 2.84454 7.68427 2.80316C7.74507 2.76178 7.81344 2.73282 7.88546 2.71796C7.95748 2.70309 8.03173 2.7026 8.10393 2.71652C8.17614 2.73044 8.24489 2.7585 8.30622 2.79907C8.36755 2.83965 8.42026 2.89195 8.46131 2.95296L9.70398 4.78124C9.84339 4.99271 9.91825 5.24018 9.91944 5.49347C9.92063 5.74676 9.84809 5.99492 9.71067 6.20769L8.46131 8.04564C8.37803 8.168 8.24955 8.25226 8.10415 8.27989C7.95874 8.30752 7.80831 8.27626 7.68595 8.19298ZM13.2437 9.9461L15.7752 6.22555C15.9216 6.01154 16 5.75826 16 5.49893C16 5.2396 15.9216 4.98632 15.7752 4.77231L13.2437 1.05176C12.9981 0.69161 12.5896 0.476563 12.1506 0.476563L3.85007 0.476563C3.4103 0.476563 3.00178 0.69161 2.75623 1.05176L0.226254 4.77156C0.0790253 4.98538 0.000133514 5.23884 0 5.49844C-0.000133514 5.75805 0.0785007 6.01158 0.225511 6.22555L2.75623 9.9461C3.00178 10.307 3.4103 10.522 3.85007 10.522H12.1506C12.5896 10.522 12.9981 10.307 13.2437 9.9461Z" fill="#EBD4A1"/>
</svg>
