<svg width="25" height="24" viewBox="0 0 25 24" fill="none" xmlns="http://www.w3.org/2000/svg">
<path d="M12.9465 3.00073C11.6765 3.00073 10.5465 3.80073 10.1265 5.00073H3.94647V7.00073H5.89646L2.94647 14.0007C2.47647 16.0007 3.94647 17.0007 6.44647 17.0007C8.94647 17.0007 10.5065 16.0007 9.94647 14.0007L6.99647 7.00073H10.1165C10.4465 7.85073 11.0965 8.50073 11.9465 8.83073V20.0007H2.94647V22.0007H22.9465V20.0007H13.9465V8.82073C14.7965 8.50073 15.4465 7.85073 15.7665 7.00073H18.8965L15.9465 14.0007C15.4765 16.0007 16.9465 17.0007 19.4465 17.0007C21.9465 17.0007 23.5065 16.0007 22.9465 14.0007L19.9965 7.00073H21.9465V5.00073H15.7765C15.3465 3.80073 14.2165 3.00073 12.9465 3.00073ZM12.9465 5.00073C13.2117 5.00073 13.466 5.10609 13.6536 5.29363C13.8411 5.48116 13.9465 5.73552 13.9465 6.00073C13.9465 6.26595 13.8411 6.5203 13.6536 6.70784C13.466 6.89538 13.2117 7.00073 12.9465 7.00073C12.6812 7.00073 12.4269 6.89538 12.2394 6.70784C12.0518 6.5203 11.9465 6.26595 11.9465 6.00073C11.9465 5.73552 12.0518 5.48116 12.2394 5.29363C12.4269 5.10609 12.6812 5.00073 12.9465 5.00073ZM6.44647 10.2507L7.94647 14.0007H4.94647L6.44647 10.2507ZM19.4465 10.2507L20.9465 14.0007H17.9465L19.4465 10.2507Z" fill="white"/>
</svg>
