<svg width="25" height="26" viewBox="0 0 25 26" fill="none" xmlns="http://www.w3.org/2000/svg">
<path d="M12.5 0.5C5.60781 0.5 0 6.10781 0 13C0 19.8922 5.60781 25.5 12.5 25.5C19.3922 25.5 25 19.8922 25 13C25 6.10781 19.3922 0.5 12.5 0.5ZM21.35 6.59844C20.0031 7.13281 18.6187 7.55625 17.1984 7.83437C16.5833 5.80784 15.609 3.90837 14.3219 2.22656C17.2031 2.71406 19.7 4.325 21.35 6.59844ZM16.0375 16.4063C13.6896 16.0844 11.3088 16.0844 8.96094 16.4063C8.47944 14.1647 8.47837 11.8466 8.95781 9.60469C10.1234 9.76406 11.3016 9.875 12.5 9.875C13.6984 9.875 14.875 9.76406 16.0406 9.60469C16.5201 11.8466 16.519 14.1647 16.0375 16.4063ZM15.6328 8.07656C13.5524 8.34531 11.446 8.34531 9.36562 8.07656C10.0062 6.06719 11.0531 4.1625 12.5 2.475C13.9469 4.1625 14.9922 6.06719 15.6328 8.07656ZM10.675 2.22656C9.35937 3.94687 8.40312 5.84844 7.8 7.83437C6.38125 7.55625 4.99687 7.13281 3.65 6.59844C5.29844 4.325 7.79531 2.71406 10.675 2.22656ZM1.5625 13C1.5625 11.1781 2.01719 9.4625 2.80781 7.95C4.30156 8.56406 5.83438 9.04687 7.41094 9.36406C6.90911 11.7663 6.90964 14.2464 7.4125 16.6484C5.8375 16.9625 4.29844 17.4422 2.80781 18.0547C2.01719 16.5391 1.5625 14.8234 1.5625 13ZM3.65 19.4016C4.99687 18.8672 6.38125 18.4437 7.8 18.1656C8.4151 20.1922 9.38944 22.0916 10.6766 23.7734C7.79531 23.2859 5.29844 21.675 3.65 19.4016ZM9.36719 17.9234C11.4471 17.6547 13.5529 17.6547 15.6328 17.9234C14.9922 19.9328 13.9453 21.8375 12.5 23.525C11.0531 21.8375 10.0078 19.9328 9.36719 17.9234ZM14.3219 23.7734C15.609 22.0916 16.5833 20.1922 17.1984 18.1656C18.6172 18.4437 20.0031 18.8688 21.35 19.4016C19.7 21.675 17.2031 23.2859 14.3219 23.7734ZM17.5859 16.6453C18.0891 14.2437 18.0906 11.7641 17.5875 9.3625C19.1641 9.04531 20.6984 8.56406 22.1922 7.94844C22.9828 9.4625 23.4375 11.1781 23.4375 13C23.4375 14.8234 22.9828 16.5391 22.1922 18.0516C20.7016 17.4406 19.1625 16.9609 17.5859 16.6453Z" fill="white"/>
</svg>
