<svg width="25" height="25" viewBox="0 0 25 25" fill="none" xmlns="http://www.w3.org/2000/svg">
<g clip-path="url(#clip0_1_3310)">
<path fill-rule="evenodd" clip-rule="evenodd" d="M2.94531 6.38843C2.94531 5.59278 3.26138 4.82972 3.82399 4.26711C4.3866 3.7045 5.14966 3.38843 5.94531 3.38843H19.9453C20.741 3.38843 21.504 3.7045 22.0666 4.26711C22.6292 4.82972 22.9453 5.59278 22.9453 6.38843V16.3884C22.9453 17.1841 22.6292 17.9471 22.0666 18.5097C21.504 19.0724 20.741 19.3884 19.9453 19.3884H12.2783L8.94531 21.8884C8.12131 22.5064 6.94531 21.9184 6.94531 20.8884V19.3884H5.94531C5.14966 19.3884 4.3866 19.0724 3.82399 18.5097C3.26138 17.9471 2.94531 17.1841 2.94531 16.3884V6.38843Z" fill="#DDB762"/>
</g>
<defs>
<clipPath id="clip0_1_3310">
<rect width="24" height="24" fill="white" transform="translate(0.945312 0.388428)"/>
</clipPath>
</defs>
</svg>
