<svg width="28" height="30" viewBox="0 0 28 30" fill="none" xmlns="http://www.w3.org/2000/svg">
<path d="M6.5 0C5.46875 0 4.625 0.84375 4.625 1.875V28.125C4.625 29.1562 5.46875 30 6.5 30H25.25C26.2812 30 27.125 29.1562 27.125 28.125V7.5L19.625 0H6.5Z" fill="#E2E5E7"/>
<path d="M21.5 7.5H27.125L19.625 0V5.625C19.625 6.65625 20.4688 7.5 21.5 7.5Z" fill="#B0B7BD"/>
<path d="M27.125 13.125L21.5 7.5H27.125V13.125Z" fill="#CAD1D8"/>
<path d="M23.375 24.375C23.375 24.8906 22.9531 25.3125 22.4375 25.3125H1.8125C1.29688 25.3125 0.875 24.8906 0.875 24.375V15C0.875 14.4844 1.29688 14.0625 1.8125 14.0625H22.4375C22.9531 14.0625 23.375 14.4844 23.375 15V24.375Z" fill="#F15642"/>
<path d="M4.96094 17.7636C4.96094 17.5161 5.15594 17.2461 5.47 17.2461H7.20156C8.17656 17.2461 9.05406 17.8986 9.05406 19.1492C9.05406 20.3342 8.17656 20.9942 7.20156 20.9942H5.95V21.9842C5.95 22.3142 5.74 22.5008 5.47 22.5008C5.2225 22.5008 4.96094 22.3142 4.96094 21.9842V17.7636ZM5.95 18.1902V20.0577H7.20156C7.70406 20.0577 8.10156 19.6142 8.10156 19.1492C8.10156 18.6252 7.70406 18.1902 7.20156 18.1902H5.95ZM10.5222 22.5008C10.2747 22.5008 10.0047 22.3658 10.0047 22.0367V17.7786C10.0047 17.5095 10.2747 17.3136 10.5222 17.3136H12.2387C15.6644 17.3136 15.5894 22.5008 12.3062 22.5008H10.5222ZM10.9947 18.2286V21.5867H12.2387C14.2628 21.5867 14.3528 18.2286 12.2387 18.2286H10.9947ZM16.8044 18.2886V19.4802H18.7159C18.9859 19.4802 19.2559 19.7502 19.2559 20.0117C19.2559 20.2592 18.9859 20.4617 18.7159 20.4617H16.8044V22.0358C16.8044 22.2983 16.6178 22.4998 16.3553 22.4998C16.0253 22.4998 15.8237 22.2983 15.8237 22.0358V17.7777C15.8237 17.5086 16.0262 17.3127 16.3553 17.3127H18.9869C19.3169 17.3127 19.5119 17.5086 19.5119 17.7777C19.5119 18.0177 19.3169 18.2877 18.9869 18.2877H16.8044V18.2886Z" fill="white"/>
<path d="M22.4375 25.3125H4.625V26.25H22.4375C22.9531 26.25 23.375 25.8281 23.375 25.3125V24.375C23.375 24.8906 22.9531 25.3125 22.4375 25.3125Z" fill="#CAD1D8"/>
</svg>
