<svg width="18" height="18" viewBox="0 0 18 18" fill="none" xmlns="http://www.w3.org/2000/svg">
<path fill-rule="evenodd" clip-rule="evenodd" d="M10.685 1.33593C11.4654 0.554293 12.7313 0.553814 13.5123 1.33486L16.0042 3.82672C16.7785 4.6011 16.7866 5.85475 16.0222 6.63902L14.3623 8.34211L9.02179 3.00162L10.685 1.33593ZM7.96193 4.06308L13.3152 9.41638L6.78906 16.1123C6.22464 16.6914 5.45051 17.0179 4.64217 17.0179L1.89002 17.0178C1.03719 17.0177 0.356112 16.3068 0.391979 15.4541L0.510134 12.6451C0.541731 11.8938 0.853956 11.1818 1.38502 10.65L7.96193 4.06308ZM17.1555 17.6951C17.5696 17.6951 17.9053 17.3592 17.9053 16.9448C17.9053 16.5304 17.5696 16.1945 17.1555 16.1945H11.0338C10.6198 16.1945 10.2841 16.5304 10.2841 16.9448C10.2841 17.3592 10.6198 17.6951 11.0338 17.6951H17.1555Z" fill="white"/>
</svg>
