<svg width="22" height="22" viewBox="0 0 22 22" fill="none" xmlns="http://www.w3.org/2000/svg">
<path fill-rule="evenodd" clip-rule="evenodd" d="M0.382812 6.18311C0.382812 3.00747 2.95718 0.433105 6.13281 0.433105H16.1328C19.3084 0.433105 21.8828 3.00747 21.8828 6.18311V16.1831C21.8828 19.3587 19.3084 21.9331 16.1328 21.9331H6.13281C2.95718 21.9331 0.382812 19.3587 0.382812 16.1831V6.18311ZM12.7964 6.26347C13.2256 5.83363 13.9217 5.83337 14.3512 6.26288L16.0605 7.9722C16.4864 8.39805 16.4908 9.08746 16.0704 9.51874L14.9296 10.6892L11.651 7.41056L12.7964 6.26347ZM11.0682 7.99429L14.3538 11.28L10.2581 15.4822C9.94775 15.8006 9.52204 15.9802 9.07752 15.9802L7.20736 15.9801C6.73837 15.9801 6.36383 15.5891 6.38356 15.1202L6.46343 13.2213C6.48081 12.8082 6.6525 12.4166 6.94455 12.1241L11.0682 7.99429Z" fill="#DDB762"/>
</svg>
