<svg width="25" height="25" viewBox="0 0 25 25" fill="none" xmlns="http://www.w3.org/2000/svg">
<path d="M12.6367 3.39307C12.2431 3.39307 11.8534 3.47059 11.4898 3.6212C11.1262 3.77181 10.7958 3.99257 10.5175 4.27087C10.2392 4.54916 10.0185 4.87955 9.86785 5.24316C9.71724 5.60678 9.63972 5.99649 9.63972 6.39007C9.63972 6.78364 9.71724 7.17336 9.86785 7.53697C10.0185 7.90058 10.2392 8.23097 10.5175 8.50927C10.7958 8.78756 11.1262 9.00832 11.4898 9.15893C11.8534 9.30955 12.2431 9.38707 12.6367 9.38707C13.4316 9.38707 14.1939 9.07131 14.7559 8.50927C15.318 7.94722 15.6337 7.18492 15.6337 6.39007C15.6337 5.59521 15.318 4.83291 14.7559 4.27087C14.1939 3.70882 13.4316 3.39307 12.6367 3.39307ZM19.3867 4.89007C18.79 4.89007 18.2177 5.12712 17.7957 5.54908C17.3738 5.97103 17.1367 6.54333 17.1367 7.14007C17.1367 7.7368 17.3738 8.3091 17.7957 8.73106C18.2177 9.15301 18.79 9.39007 19.3867 9.39007C19.9835 9.39007 20.5558 9.15301 20.9777 8.73106C21.3997 8.3091 21.6367 7.7368 21.6367 7.14007C21.6367 6.54333 21.3997 5.97103 20.9777 5.54908C20.5558 5.12712 19.9835 4.89007 19.3867 4.89007ZM5.88672 4.89007C5.28998 4.89007 4.71769 5.12712 4.29573 5.54908C3.87377 5.97103 3.63672 6.54333 3.63672 7.14007C3.63672 7.7368 3.87377 8.3091 4.29573 8.73106C4.71769 9.15301 5.28998 9.39007 5.88672 9.39007C6.48346 9.39007 7.05575 9.15301 7.47771 8.73106C7.89967 8.3091 8.13672 7.7368 8.13672 7.14007C8.13672 6.54333 7.89967 5.97103 7.47771 5.54908C7.05575 5.12712 6.48346 4.89007 5.88672 4.89007ZM8.13672 12.3796C8.13949 11.9836 8.29875 11.6047 8.57975 11.3257C8.86076 11.0466 9.24071 10.8901 9.63672 10.8901H15.6367C16.0345 10.8901 16.4161 11.0481 16.6974 11.3294C16.9787 11.6107 17.1367 11.9922 17.1367 12.3901V16.8901C17.1366 17.3621 17.0627 17.8313 16.9177 18.2806C16.5856 19.2986 15.9014 20.1649 14.988 20.7239C14.0746 21.2829 12.9918 21.498 11.9342 21.3305C10.8765 21.163 9.91314 20.6239 9.21714 19.8101C8.52114 18.9962 8.13807 17.9609 8.13672 16.8901V12.3901V12.3796ZM6.63672 12.3901C6.63672 11.8426 6.78222 11.3311 7.03872 10.8901H3.63672C3.23889 10.8901 2.85736 11.0481 2.57606 11.3294C2.29475 11.6107 2.13672 11.9922 2.13672 12.3901V16.1401C2.13651 16.754 2.28706 17.3586 2.57513 17.9008C2.8632 18.443 3.27998 18.9062 3.78888 19.2496C4.29778 19.5931 4.88323 19.8063 5.4938 19.8707C6.10438 19.935 6.72142 19.8484 7.29072 19.6186C6.85899 18.7734 6.6348 17.8376 6.63672 16.8886V12.3901ZM18.6367 12.3901V16.8901C18.6367 17.8726 18.4012 18.7996 17.9827 19.6186C18.552 19.8484 19.1691 19.935 19.7796 19.8707C20.3902 19.8063 20.9757 19.5931 21.4846 19.2496C21.9935 18.9062 22.4102 18.443 22.6983 17.9008C22.9864 17.3586 23.1369 16.754 23.1367 16.1401V12.3901C23.1367 11.9922 22.9787 11.6107 22.6974 11.3294C22.4161 11.0481 22.0345 10.8901 21.6367 10.8901H18.2347C18.4897 11.3311 18.6367 11.8426 18.6367 12.3901Z" fill="#DDB762"/>
</svg>
