<svg width="25" height="25" viewBox="0 0 25 25" fill="none" xmlns="http://www.w3.org/2000/svg">
<path fill-rule="evenodd" clip-rule="evenodd" d="M3.38281 3.18311C2.9686 3.18311 2.63281 3.51889 2.63281 3.93311C2.63281 4.34732 2.9686 4.68311 3.38281 4.68311H4.63281V19.8987C4.63281 21.3517 6.30122 22.1718 7.45172 21.2843L8.78255 20.2577C8.86625 20.1931 8.98152 20.1882 9.07044 20.2453L10.8957 21.4187C11.8016 22.0011 12.964 22.0011 13.8699 21.4187L15.6952 20.2453C15.7841 20.1882 15.8994 20.1931 15.9831 20.2577L17.3139 21.2843C18.4644 22.1718 20.1328 21.3517 20.1328 19.8987V4.68311H21.3828C21.797 4.68311 22.1328 4.34732 22.1328 3.93311C22.1328 3.51889 21.797 3.18311 21.3828 3.18311H3.38281ZM8.63281 9.93311C8.63281 9.51889 8.9686 9.18311 9.38281 9.18311H12.3828C12.797 9.18311 13.1328 9.51889 13.1328 9.93311C13.1328 10.3473 12.797 10.6831 12.3828 10.6831H9.38281C8.9686 10.6831 8.63281 10.3473 8.63281 9.93311ZM9.38281 13.1831C8.9686 13.1831 8.63281 13.5189 8.63281 13.9331C8.63281 14.3473 8.9686 14.6831 9.38281 14.6831H12.3828C12.797 14.6831 13.1328 14.3473 13.1328 13.9331C13.1328 13.5189 12.797 13.1831 12.3828 13.1831H9.38281ZM14.6328 9.93311C14.6328 9.51889 14.9686 9.18311 15.3828 9.18311H15.8828C16.297 9.18311 16.6328 9.51889 16.6328 9.93311C16.6328 10.3473 16.297 10.6831 15.8828 10.6831H15.3828C14.9686 10.6831 14.6328 10.3473 14.6328 9.93311ZM15.3828 13.1831C14.9686 13.1831 14.6328 13.5189 14.6328 13.9331C14.6328 14.3473 14.9686 14.6831 15.3828 14.6831H15.8828C16.297 14.6831 16.6328 14.3473 16.6328 13.9331C16.6328 13.5189 16.297 13.1831 15.8828 13.1831H15.3828Z" fill="#DDB762"/>
</svg>
