<svg width="46" height="46" viewBox="0 0 46 46" fill="none" xmlns="http://www.w3.org/2000/svg">
<circle cx="23" cy="23" r="23" fill="#DDB762" fill-opacity="0.1"/>
<circle cx="23.0099" cy="23.0099" r="16.9474" fill="#DDB762"/>
<path fill-rule="evenodd" clip-rule="evenodd" d="M14.9643 19.9499C15.276 17.7931 17.269 16.1297 19.6812 16.1297H26.3029C28.7151 16.1297 30.7081 17.7931 31.0198 19.9499H14.9643ZM14.9219 21.1604V26.6789C14.9219 29.1154 17.0527 31.0905 19.6812 31.0905H26.3029C28.9314 31.0905 31.0622 29.1154 31.0622 26.6789V21.1604H14.9219ZM18.5028 24.2447C18.1685 24.2447 17.8975 23.9737 17.8975 23.6394C17.8975 23.3052 18.1685 23.0342 18.5028 23.0342H19.3305C19.6648 23.0342 19.9358 23.3052 19.9358 23.6394C19.9358 23.9737 19.6648 24.2447 19.3305 24.2447H18.5028ZM22.0583 23.6394C22.0583 23.9737 22.3293 24.2447 22.6635 24.2447H23.4913C23.8255 24.2447 24.0965 23.9737 24.0965 23.6394C24.0965 23.3052 23.8255 23.0342 23.4913 23.0342H22.6635C22.3293 23.0342 22.0583 23.3052 22.0583 23.6394ZM26.7844 24.2447C26.4501 24.2447 26.1791 23.9737 26.1791 23.6394C26.1791 23.3052 26.4501 23.0342 26.7844 23.0342H27.6121C27.9464 23.0342 28.2173 23.3052 28.2173 23.6394C28.2173 23.9737 27.9464 24.2447 27.6121 24.2447H26.7844ZM17.8975 26.7104C17.8975 27.0447 18.1685 27.3157 18.5028 27.3157H19.3305C19.6648 27.3157 19.9358 27.0447 19.9358 26.7104C19.9358 26.3762 19.6648 26.1052 19.3305 26.1052H18.5028C18.1685 26.1052 17.8975 26.3762 17.8975 26.7104ZM22.6635 27.3157C22.3293 27.3157 22.0583 27.0447 22.0583 26.7104C22.0583 26.3762 22.3293 26.1052 22.6635 26.1052H23.4913C23.8255 26.1052 24.0965 26.3762 24.0965 26.7104C24.0965 27.0447 23.8255 27.3157 23.4913 27.3157H22.6635ZM26.1791 26.7104C26.1791 27.0447 26.4501 27.3157 26.7844 27.3157H27.6121C27.9464 27.3157 28.2173 27.0447 28.2173 26.7104C28.2173 26.3762 27.9464 26.1052 27.6121 26.1052H26.7844C26.4501 26.1052 26.1791 26.3762 26.1791 26.7104ZM26.7402 14.9512C26.406 14.9512 26.135 15.2222 26.135 15.5564V17.8581C26.135 18.1924 26.406 18.4634 26.7402 18.4634C27.0745 18.4634 27.3455 18.1924 27.3455 17.8581V15.5564C27.3455 15.2222 27.0745 14.9512 26.7402 14.9512ZM19.2732 14.9512C18.939 14.9512 18.668 15.2222 18.668 15.5564V17.8581C18.668 18.1924 18.939 18.4634 19.2732 18.4634C19.6075 18.4634 19.8785 18.1924 19.8785 17.8581V15.5564C19.8785 15.2222 19.6075 14.9512 19.2732 14.9512Z" fill="white"/>
</svg>
