<svg width="40" height="40" viewBox="0 0 40 40" fill="none" xmlns="http://www.w3.org/2000/svg">
<circle cx="20" cy="20" r="20" fill="#F7F7F7"/>
<g clip-path="url(#clip0_1208_13701)">
<path d="M28.8144 20.2255C29.062 19.6272 29.062 18.9412 28.8144 18.3424C27.351 14.8058 23.891 12.5207 19.9997 12.5207C18.3653 12.5207 16.8074 12.9242 15.4415 13.6547L13.0294 11.2379C12.7361 10.9441 12.2621 10.9441 11.9688 11.2379C11.6755 11.5317 11.6755 12.0067 11.9688 12.3004L21.5141 21.8637L24.5548 24.9102L26.9694 27.3292C27.039 27.3992 27.1217 27.4548 27.2128 27.4927C27.304 27.5306 27.4017 27.5501 27.5003 27.55C27.6923 27.55 27.8843 27.4764 28.0306 27.3299C28.324 27.0361 28.324 26.5611 28.0306 26.2673L25.8456 24.0783C27.1336 23.0961 28.1694 21.7848 28.8144 20.2255H28.8144ZM18.4809 16.6996C18.9256 16.4328 19.4439 16.278 19.9997 16.278C21.6544 16.278 22.9999 17.6262 22.9999 19.2839C22.9999 19.8407 22.8454 20.36 22.5791 20.8057L18.4809 16.6996ZM19.9997 22.2898C18.345 22.2898 16.9994 20.9416 16.9994 19.2839C16.9994 19.175 17.0204 19.0719 17.0316 18.9668L13.2994 15.2274C12.4083 16.0978 11.68 17.146 11.1857 18.3424C10.9381 18.9405 10.9381 19.6266 11.1857 20.2255C12.6483 23.762 16.1083 26.0472 19.9997 26.0472C21.2126 26.0472 22.3834 25.8247 23.465 25.4122L20.3162 22.2575C20.2112 22.2687 20.1085 22.2898 19.9997 22.2898L19.9997 22.2898Z" fill="#A6A4A4"/>
</g>
<defs>
<clipPath id="clip0_1208_13701">
<rect width="18" height="18" fill="white" transform="translate(11 11)"/>
</clipPath>
</defs>
</svg>
