<svg width="25" height="25" viewBox="0 0 25 25" fill="none" xmlns="http://www.w3.org/2000/svg">
<path d="M15.2761 2.55471C13.6479 1.63997 11.6646 1.63996 10.0364 2.55471L3.99981 5.94627C2.54173 6.76547 2.54173 8.87293 3.99981 9.69213L10.0364 13.0837C11.6646 13.9984 13.6479 13.9984 15.2761 13.0837L21.3127 9.69213C22.7708 8.87293 22.7708 6.76547 21.3127 5.94627L15.2761 2.55471Z" fill="#DDB762"/>
<path d="M3.63142 15.9556C2.5543 16.8956 2.67709 18.6989 3.99981 19.442L10.0364 22.8336C11.6646 23.7483 13.6479 23.7483 15.2761 22.8336L21.3127 19.442C22.6354 18.6989 22.7582 16.8956 21.6811 15.9556L16.0108 19.1413C13.9264 20.3124 11.3861 20.3124 9.3017 19.1413L3.63142 15.9556Z" fill="#DDB762"/>
<path d="M3.46843 11.114C2.57093 12.086 2.74805 13.7388 3.99981 14.442L10.0364 17.8336C11.6646 18.7483 13.6479 18.7483 15.2761 17.8336L21.3127 14.442C22.5644 13.7388 22.7416 12.086 21.8441 11.114L16.0108 14.3913C13.9264 15.5624 11.3861 15.5624 9.3017 14.3913L3.46843 11.114Z" fill="#DDB762"/>
</svg>
