<svg width="16" height="17" viewBox="0 0 16 17" fill="none" xmlns="http://www.w3.org/2000/svg">
<g clip-path="url(#clip0_1210_19800)">
<path d="M8 16.5C12.4183 16.5 16 12.9183 16 8.5C16 4.08172 12.4183 0.5 8 0.5C3.58172 0.5 0 4.08172 0 8.5C0 12.9183 3.58172 16.5 8 16.5Z" fill="#EBD4A1"/>
<path fill-rule="evenodd" clip-rule="evenodd" d="M8.15708 3.60766L9.15014 6.68409C9.19539 6.82428 9.32067 6.91531 9.46798 6.91503L12.7007 6.90881C12.7743 6.90866 12.8368 6.95403 12.8595 7.02397C12.8823 7.09391 12.8583 7.16738 12.7987 7.2105L10.1797 9.10563C10.0604 9.192 10.0125 9.33925 10.0583 9.47928L11.0632 12.5519C11.086 12.6218 11.0623 12.6953 11.0028 12.7385C10.9433 12.7817 10.866 12.7817 10.8066 12.7383L8.19489 10.8331C8.07586 10.7463 7.92101 10.7463 7.80201 10.8331L5.19033 12.7383C5.13092 12.7817 5.05367 12.7817 4.99414 12.7385C4.93464 12.6953 4.91083 12.6217 4.9337 12.5519L5.93857 9.47928C5.98436 9.33925 5.93651 9.192 5.81717 9.10563L3.19817 7.2105C3.13857 7.16738 3.11464 7.09394 3.13739 7.02397C3.16011 6.95403 3.22267 6.90866 3.2962 6.90881L6.52895 6.91503C6.67626 6.91531 6.80154 6.82428 6.84679 6.68409L7.83986 3.60766C7.86245 3.53766 7.92492 3.49219 7.99845 3.49219C8.07201 3.49219 8.13445 3.53766 8.15708 3.60766Z" fill="white"/>
</g>
<defs>
<clipPath id="clip0_1210_19800">
<rect width="16" height="16" fill="white" transform="translate(0 0.5)"/>
</clipPath>
</defs>
</svg>
