<svg width="16" height="16" viewBox="0 0 16 16" fill="none" xmlns="http://www.w3.org/2000/svg">
<g clip-path="url(#clip0_1210_18032)">
<path d="M8.00131 0.666016C6.55091 0.666016 5.13308 1.09611 3.92712 1.9019C2.72116 2.7077 1.78123 3.85301 1.22619 5.193C0.671146 6.53299 0.525922 8.00748 0.80888 9.43001C1.09184 10.8525 1.79027 12.1592 2.81586 13.1848C3.84144 14.2104 5.14812 14.9088 6.57064 15.1918C7.99317 15.4747 9.46766 15.3295 10.8077 14.7745C12.1476 14.2194 13.293 13.2795 14.0988 12.0735C14.9045 10.8676 15.3346 9.44975 15.3346 7.99935C15.3323 6.05513 14.559 4.1912 13.1842 2.81643C11.8095 1.44166 9.94552 0.668309 8.00131 0.666016ZM10.4726 10.4707C10.3476 10.5957 10.1781 10.6659 10.0013 10.6659C9.82453 10.6659 9.65499 10.5957 9.52997 10.4707L7.52997 8.47068C7.40494 8.34569 7.33468 8.17615 7.33464 7.99935V3.99935C7.33464 3.82254 7.40488 3.65297 7.5299 3.52794C7.65493 3.40292 7.82449 3.33268 8.00131 3.33268C8.17812 3.33268 8.34769 3.40292 8.47271 3.52794C8.59773 3.65297 8.66797 3.82254 8.66797 3.99935V7.72335L10.4726 9.52802C10.5976 9.65303 10.6678 9.82257 10.6678 9.99935C10.6678 10.1761 10.5976 10.3457 10.4726 10.4707Z" fill="#EBD4A1"/>
</g>
<defs>
<clipPath id="clip0_1210_18032">
<rect width="16" height="16" fill="white"/>
</clipPath>
</defs>
</svg>
