<svg width="24" height="24" viewBox="0 0 24 24" fill="none" xmlns="http://www.w3.org/2000/svg">
<g clip-path="url(#clip0_432_1753)">
<path d="M23.3046 17.3384L13.9471 9.35852L12.1186 11.1145L20.4282 20.1006C20.6125 20.3018 20.8379 20.4645 21.0903 20.5787C21.3427 20.6929 21.6168 20.7562 21.8957 20.7647C22.1746 20.7732 22.4524 20.7267 22.7118 20.628C22.9712 20.5294 23.2069 20.3807 23.4041 20.1912C23.6011 20.0019 23.7556 19.7758 23.8579 19.5269C23.9602 19.278 24.0082 19.0115 23.9989 18.7441C23.9895 18.4766 23.9231 18.2138 23.8037 17.972C23.6842 17.7302 23.5144 17.5145 23.3046 17.3384ZM12.1133 19.3057C12.1133 18.405 11.3536 17.6805 10.421 17.6805H3.52607C2.59347 17.6805 1.83377 18.405 1.83377 19.3057V20.0302H12.1133V19.3057ZM12.2548 20.5333H1.69231C0.759704 20.5333 0 21.2579 0 22.1585V23.4415C0 23.7484 0.261967 24 0.581566 24H13.3655C13.6904 24 13.9471 23.7484 13.9471 23.4415V22.1585C13.9471 21.2579 13.1874 20.5333 12.2548 20.5333ZM4.99047 7.64078L10.3383 2.5057L15.3345 7.30368L9.9867 12.4388L4.99047 7.64078ZM15.8092 7.05311C16.3017 7.52556 17.0975 7.52556 17.5895 7.05311C17.7065 6.94091 17.7993 6.80766 17.8627 6.66098C17.926 6.5143 17.9586 6.35706 17.9586 6.19827C17.9586 6.03948 17.926 5.88225 17.8627 5.73556C17.7993 5.58888 17.7065 5.45563 17.5895 5.34343L12.391 0.351237C12.2745 0.238716 12.1357 0.149688 11.9828 0.0893795C11.83 0.029071 11.6661 -0.00130224 11.5009 4.2795e-05C11.3356 -0.00130224 11.1717 0.029071 11.0189 0.0893795C10.866 0.149688 10.7272 0.238716 10.6107 0.351237C10.1187 0.824192 10.1187 1.58897 10.6107 2.06092L15.8092 7.05311ZM7.94074 14.6093C8.05757 14.7217 8.19633 14.8108 8.34907 14.8717C8.50182 14.9325 8.66555 14.9638 8.8309 14.9638C8.99625 14.9638 9.15998 14.9325 9.31272 14.8717C9.46547 14.8108 9.60423 14.7217 9.72106 14.6093C9.83799 14.4971 9.93075 14.3639 9.99404 14.2173C10.0573 14.0706 10.0899 13.9135 10.0899 13.7547C10.0899 13.596 10.0573 13.4388 9.99404 13.2922C9.93075 13.1456 9.83799 13.0123 9.72106 12.9001L4.52259 7.90795C4.28402 7.69317 3.96782 7.57592 3.64084 7.58099C3.31387 7.58605 3.00177 7.71304 2.77053 7.9351C2.5393 8.15716 2.40706 8.45688 2.40179 8.77087C2.39651 9.08487 2.51861 9.38853 2.74227 9.61764L7.94074 14.6093Z" fill="white"/>
</g>
<defs>
<clipPath id="clip0_432_1753">
<rect width="24" height="24" fill="white"/>
</clipPath>
</defs>
</svg>
