<svg width="40" height="40" viewBox="0 0 40 40" fill="none" xmlns="http://www.w3.org/2000/svg">
<path fill-rule="evenodd" clip-rule="evenodd" d="M9.5617 34.4099V29.3273C9.5617 29.1391 9.68779 28.9508 9.93998 28.9508H13.7859C13.975 28.9508 14.1642 29.1391 14.1642 29.3273V34.4099H9.5617ZM28.3498 34.4099V17.7817H26.5845C26.4584 17.7817 26.3323 17.7189 26.2693 17.5934C26.2062 17.4679 26.2062 17.2797 26.2693 17.217L30.2412 11.1931C30.3043 11.0677 30.4304 11.0049 30.5565 11.0049C30.6826 11.0049 30.8087 11.0677 30.8717 11.1931L35.0328 17.1542C35.0959 17.217 35.0959 17.2797 35.0959 17.4052C35.0959 17.5934 34.9067 17.7817 34.7176 17.7817H32.9523V34.4099H28.3498ZM22.1081 34.4099V23.178C22.1081 22.9898 22.2342 22.8015 22.4864 22.8015H26.3323C26.5214 22.8015 26.7106 22.9898 26.7106 23.178V34.4099H22.1081ZM15.8034 34.4099V26.8801C15.8034 26.6291 15.9925 26.5036 16.1817 26.5036H20.0276C20.2798 26.5036 20.4058 26.6291 20.4058 26.8801V34.4099H15.8034ZM34.0871 35.9158H7.67027C7.48113 35.9158 7.29199 35.7276 7.29199 35.5394C7.29199 35.2884 7.48113 35.1629 7.67027 35.1629H34.0871C34.2763 35.1629 34.4654 35.2884 34.4654 35.5394C34.4654 35.7276 34.2763 35.9158 34.0871 35.9158ZM7.29199 27.3821C6.47237 27.3821 5.8419 26.8801 5.7158 26.0644C5.65276 25.4369 5.96799 24.5585 7.0398 24.3075C7.73332 24.0565 8.42684 23.7427 8.99427 23.4917C9.18341 23.429 9.37255 23.3663 9.49865 23.2408C10.9487 22.6133 12.3358 21.7976 13.5967 20.8563C17.5057 18.0327 20.3428 14.456 22.0451 10.2519C22.3603 9.49896 22.6125 8.68323 22.8016 7.93026L22.8647 7.74201L20.7841 6.86354C20.658 6.80079 20.5319 6.61255 20.5319 6.48705C20.5319 6.36156 20.658 6.17331 20.7841 6.17331L25.8279 4.10263C26.0171 4.03988 26.2062 4.10263 26.2693 4.29088L28.3498 9.31071C28.4129 9.43621 28.3498 9.62445 28.2868 9.6872C28.1607 9.8127 27.9715 9.87544 27.8454 9.8127L25.8279 8.93422C24.9453 11.8834 23.6213 14.5815 21.919 17.0287C20.1537 19.4131 17.947 21.6093 15.4251 23.429C13.7859 24.6212 12.0205 25.6252 10.2552 26.3782C9.62474 26.6919 8.74208 27.0684 7.98551 27.3194C7.73332 27.3821 7.54418 27.3821 7.29199 27.3821Z" fill="#DDB762"/>
</svg>
