<svg width="26" height="26" viewBox="0 0 26 26" fill="none" xmlns="http://www.w3.org/2000/svg">
<circle cx="13" cy="13" r="13" fill="#F8F8FB"/>
<ellipse cx="13.0026" cy="13.0046" rx="8.66667" ry="8.66667" fill="#E9ECF2"/>
<path d="M12.9909 21.6595C8.20441 21.6595 4.32422 17.7793 4.32422 12.9928C4.32422 8.20636 8.20441 4.32617 12.9909 4.32617C17.7774 4.32617 21.6575 8.20636 21.6575 12.9928C21.6575 17.7793 17.7774 21.6595 12.9909 21.6595Z" fill="#48BD69" stroke="#48BD69" stroke-width="1.36802"/>
<path d="M10.9767 15.3089L11.4603 15.7926L11.944 15.3089L16.5401 10.7128L16.5402 10.7127C16.555 10.6979 16.5792 10.6979 16.594 10.7127L16.5942 10.7129C16.6089 10.7277 16.6091 10.7518 16.5941 10.7668L11.4873 15.8736C11.4873 15.8736 11.4872 15.8736 11.4872 15.8736C11.4827 15.8782 11.4787 15.8805 11.475 15.882C11.4709 15.8837 11.4659 15.8847 11.4603 15.8847C11.4547 15.8847 11.4496 15.8836 11.4455 15.882C11.4418 15.8805 11.4378 15.8782 11.4333 15.8736L9.39054 13.8309L9.39053 13.8309C9.37559 13.8159 9.37558 13.7917 9.39054 13.7768L9.39055 13.7768C9.40536 13.762 9.42967 13.7619 9.44451 13.7768L10.9767 15.3089Z" stroke="white" stroke-width="1.36802"/>
</svg>
