<svg width="14" height="15" viewBox="0 0 14 15" fill="none" xmlns="http://www.w3.org/2000/svg">
<path fill-rule="evenodd" clip-rule="evenodd" d="M10.0396 0.0800781H3.93046C1.04518 0.0800781 0 1.16336 0 4.09725V10.3412C0 13.2901 1.0599 14.3583 3.93046 14.3583H10.0396C12.9249 14.3583 13.97 13.2751 13.97 10.3412V4.09725C13.9848 1.16336 12.9249 0.0800781 10.0396 0.0800781Z" fill="#C8102E"/>
<path d="M2.80464 7.23438H3.17266V9.10003H2.80464V8.34775H1.96555V9.10003H1.59753V7.23438H1.96555V7.98665H2.80464V7.23438ZM4.89499 8.30261C4.89499 8.60352 4.74779 8.76902 4.48281 8.76902C4.21784 8.76902 4.07063 8.60352 4.07063 8.28757V7.23438H3.70261V8.30261C3.70261 8.82921 3.9823 9.13012 4.48281 9.13012C4.98332 9.13012 5.27773 8.82921 5.27773 8.28757V7.23438H4.90971V8.30261H4.89499ZM9.17875 8.51325L8.76656 7.23438H8.45743L8.04524 8.51325L7.64778 7.23438H7.25032L7.88332 9.10003H8.19245L8.60464 7.86629L9.01682 9.10003H9.32596L9.95895 7.23438H9.57621L9.17875 8.51325ZM10.6361 8.30261H11.3133V7.95656H10.6361V7.58042H11.6224V7.23438H10.2828V9.10003H11.6666V8.75398H10.6508V8.30261H10.6361ZM12.0935 9.10003H12.4615V7.23438H12.0935V9.10003ZM5.99905 8.70884L5.83712 9.10003H5.45438L6.24931 7.23438H6.57316L7.36809 9.10003H6.98535L6.83814 8.70884H5.99905ZM6.13154 8.37784H6.69093L6.41124 7.71583L6.13154 8.37784Z" fill="white"/>
<path d="M7.04061 4.85181C5.7599 4.85181 4.71472 3.78358 4.71472 2.47461H5.03858C5.03858 3.60303 5.93655 4.52081 7.04061 4.52081C8.14467 4.52081 9.04264 3.60303 9.04264 2.47461H9.3665C9.3665 3.78358 8.32132 4.85181 7.04061 4.85181Z" fill="white"/>
</svg>
