<svg width="47" height="5" viewBox="0 0 47 5" fill="none" xmlns="http://www.w3.org/2000/svg">
<path d="M1.93436 0.591405C2.19577 0.572862 2.45809 0.611898 2.70239 0.705699C2.94669 0.799499 3.16689 0.945724 3.34709 1.13383C3.5273 1.32193 3.66303 1.54722 3.74448 1.79346C3.82594 2.03969 3.85109 2.30072 3.81813 2.55773C3.81813 3.82198 3.12687 4.54869 1.93436 4.54869H0.488281V0.591405H1.93436ZM1.11008 3.98905H1.8649C2.0517 4.00008 2.23863 3.96981 2.4121 3.90043C2.58557 3.83105 2.7412 3.7243 2.86767 3.58797C2.99414 3.45163 3.08826 3.28914 3.14319 3.11232C3.19811 2.93549 3.21246 2.74879 3.18518 2.56579C3.21048 2.38352 3.19468 2.19797 3.13891 2.02244C3.08314 1.84691 2.98879 1.68575 2.86261 1.5505C2.73643 1.41525 2.58154 1.30926 2.40905 1.24013C2.23656 1.171 2.05074 1.14044 1.8649 1.15063H1.11008V3.98905Z" fill="black"/>
<path d="M4.5419 3.04463C4.5229 2.84838 4.54562 2.65036 4.60858 2.46329C4.67154 2.27622 4.77336 2.10422 4.90751 1.95832C5.04166 1.81243 5.20518 1.69586 5.38758 1.61609C5.56998 1.53632 5.76723 1.49512 5.96668 1.49512C6.16614 1.49512 6.36339 1.53632 6.54579 1.61609C6.72819 1.69586 6.89171 1.81243 7.02586 1.95832C7.16001 2.10422 7.26183 2.27622 7.32479 2.46329C7.38776 2.65036 7.41047 2.84838 7.39147 3.04463C7.41083 3.24109 7.38839 3.43938 7.32559 3.62676C7.26279 3.81413 7.16103 3.98645 7.02685 4.13263C6.89266 4.27881 6.72902 4.39562 6.54644 4.47556C6.36386 4.5555 6.16638 4.5968 5.96668 4.5968C5.76699 4.5968 5.56951 4.5555 5.38693 4.47556C5.20435 4.39562 5.04071 4.27881 4.90652 4.13263C4.77234 3.98645 4.67058 3.81413 4.60778 3.62676C4.54498 3.43938 4.52254 3.24109 4.5419 3.04463ZM6.77818 3.04463C6.77818 2.39729 6.48398 2.01873 5.96767 2.01873C5.44938 2.01873 5.15783 2.39729 5.15783 3.04464C5.15783 3.69717 5.4494 4.07282 5.96767 4.07282C6.48399 4.07281 6.77818 3.69457 6.77818 3.04463H6.77818Z" fill="black"/>
<path d="M11.1777 4.53523H10.5592L9.93472 2.33574H9.88755L9.26574 4.53523H8.6531L7.82031 1.54883H8.42509L8.9663 3.82763H9.01086L9.63201 1.54883H10.204L10.8252 3.82763H10.8724L11.4109 1.54883H12.0072L11.1777 4.53523Z" fill="black"/>
<path d="M12.6914 1.55375H13.2656V2.02817H13.3102C13.3858 1.85777 13.5133 1.71494 13.675 1.61956C13.8367 1.52419 14.0245 1.48103 14.2121 1.4961C14.3592 1.48518 14.5069 1.50709 14.6442 1.56021C14.7815 1.61333 14.905 1.6963 15.0055 1.80297C15.1059 1.90965 15.1808 2.03729 15.2246 2.17645C15.2684 2.3156 15.2799 2.4627 15.2583 2.60685V4.54012H14.6618V2.75486C14.6618 2.27494 14.4507 2.03627 14.0096 2.03627C13.9097 2.03167 13.8101 2.04846 13.7174 2.08549C13.6247 2.12252 13.5413 2.1789 13.4727 2.25079C13.4042 2.32267 13.3522 2.40835 13.3203 2.50195C13.2884 2.59554 13.2773 2.69485 13.2879 2.79306V4.54015H12.6914L12.6914 1.55375Z" fill="black"/>
<path d="M16.1992 0.392578H16.7957V4.54478H16.1992V0.392578Z" fill="black"/>
<path d="M17.6122 3.04469C17.5932 2.84842 17.6159 2.6504 17.6789 2.46332C17.7419 2.27624 17.8437 2.10423 17.9779 1.95833C18.1121 1.81243 18.2756 1.69586 18.458 1.61609C18.6404 1.53632 18.8377 1.49512 19.0371 1.49512C19.2366 1.49512 19.4339 1.53632 19.6163 1.61609C19.7987 1.69586 19.9622 1.81243 20.0964 1.95833C20.2306 2.10423 20.3324 2.27624 20.3954 2.46332C20.4583 2.6504 20.4811 2.84842 20.4621 3.04469C20.4814 3.24116 20.459 3.43945 20.3961 3.62682C20.3333 3.81419 20.2315 3.9865 20.0973 4.13268C19.9632 4.27886 19.7995 4.39567 19.6169 4.47561C19.4343 4.55554 19.2368 4.59684 19.0371 4.59684C18.8374 4.59684 18.64 4.55554 18.4574 4.47561C18.2748 4.39567 18.1111 4.27886 17.9769 4.13268C17.8427 3.9865 17.741 3.81419 17.6781 3.62682C17.6153 3.43945 17.5929 3.24116 17.6122 3.04469ZM19.8485 3.04469C19.8485 2.39735 19.5543 2.01879 19.038 2.01879C18.5197 2.01879 18.2281 2.39735 18.2281 3.0447C18.2281 3.69723 18.5197 4.07287 19.038 4.07287C19.5543 4.07286 19.8485 3.69463 19.8485 3.04469H19.8485Z" fill="black"/>
<path d="M21.0938 3.6946C21.0938 3.15703 21.4988 2.84712 22.2179 2.80308L23.0366 2.75645V2.49868C23.0366 2.18326 22.8255 2.00515 22.4178 2.00515C22.0848 2.00515 21.8541 2.12595 21.7879 2.33709H21.2104C21.2714 1.82413 21.7597 1.49512 22.4454 1.49512C23.2031 1.49512 23.6305 1.86784 23.6305 2.49868V4.53916H23.0563V4.11947H23.0091C22.9133 4.27002 22.7788 4.39274 22.6193 4.47512C22.4598 4.5575 22.281 4.59658 22.1012 4.58836C21.9744 4.6014 21.8461 4.58803 21.7248 4.5491C21.6034 4.51017 21.4917 4.44655 21.3968 4.36234C21.3019 4.27813 21.2259 4.17521 21.1737 4.0602C21.1215 3.94519 21.0942 3.82064 21.0938 3.6946ZM23.0366 3.43941V3.18974L22.2985 3.23637C21.8823 3.26389 21.6935 3.40379 21.6935 3.66707C21.6935 3.93585 21.9295 4.09226 22.254 4.09226C22.3491 4.10177 22.4451 4.09228 22.5364 4.06437C22.6277 4.03645 22.7123 3.99068 22.7854 3.92977C22.8584 3.86886 22.9183 3.79406 22.9614 3.70982C23.0046 3.62558 23.0302 3.53362 23.0366 3.43941Z" fill="black"/>
<path d="M24.4102 3.0503C24.4102 2.10665 24.9009 1.50885 25.6643 1.50885C25.8531 1.50025 26.0405 1.54495 26.2045 1.63773C26.3686 1.73051 26.5025 1.86753 26.5907 2.03278H26.6353V0.392578H27.2316V4.54479H26.6602V4.07296H26.613C26.518 4.23709 26.3794 4.37241 26.2122 4.46426C26.0449 4.5561 25.8554 4.60097 25.6643 4.594C24.8957 4.59404 24.4102 3.99622 24.4102 3.0503ZM25.0261 3.0503C25.0261 3.68372 25.3282 4.06488 25.8333 4.06488C26.3359 4.06488 26.6465 3.67822 26.6465 3.05289C26.6465 2.43048 26.3326 2.03832 25.8333 2.03832C25.3314 2.03832 25.0261 2.42206 25.0261 3.0503H25.0261Z" fill="black"/>
<path d="M29.706 3.04463C29.687 2.84838 29.7097 2.65036 29.7726 2.46329C29.8356 2.27622 29.9374 2.10422 30.0716 1.95832C30.2057 1.81243 30.3692 1.69586 30.5516 1.61609C30.734 1.53632 30.9313 1.49512 31.1307 1.49512C31.3302 1.49512 31.5274 1.53632 31.7098 1.61609C31.8922 1.69586 32.0558 1.81243 32.1899 1.95832C32.3241 2.10422 32.4259 2.27622 32.4888 2.46329C32.5518 2.65036 32.5745 2.84838 32.5555 3.04463C32.5749 3.24109 32.5524 3.43938 32.4896 3.62676C32.4268 3.81413 32.3251 3.98645 32.1909 4.13263C32.0567 4.27881 31.8931 4.39562 31.7105 4.47556C31.5279 4.5555 31.3304 4.5968 31.1307 4.5968C30.9311 4.5968 30.7336 4.5555 30.551 4.47556C30.3684 4.39562 30.2048 4.27881 30.0706 4.13263C29.9364 3.98645 29.8346 3.81413 29.7718 3.62676C29.709 3.43938 29.6866 3.24109 29.706 3.04463ZM31.9422 3.04463C31.9422 2.39729 31.648 2.01873 31.1317 2.01873C30.6134 2.01873 30.3219 2.39729 30.3219 3.04464C30.3219 3.69717 30.6135 4.07282 31.1317 4.07282C31.648 4.07281 31.9422 3.69457 31.9422 3.04463Z" fill="black"/>
<path d="M33.3438 1.55375H33.918V2.02817H33.9625C34.0382 1.85777 34.1657 1.71494 34.3274 1.61956C34.489 1.52419 34.6768 1.48103 34.8645 1.4961C35.0115 1.48518 35.1592 1.50709 35.2965 1.56021C35.4339 1.61333 35.5573 1.6963 35.6578 1.80297C35.7583 1.90965 35.8332 2.03729 35.8769 2.17645C35.9207 2.3156 35.9322 2.4627 35.9106 2.60685V4.54012H35.3141V2.75486C35.3141 2.27494 35.1031 2.03627 34.6619 2.03627C34.5621 2.03167 34.4624 2.04846 34.3697 2.08549C34.2771 2.12252 34.1936 2.1789 34.1251 2.25079C34.0565 2.32267 34.0045 2.40835 33.9726 2.50195C33.9407 2.59554 33.9297 2.69485 33.9402 2.79306V4.54015H33.3438V1.55375Z" fill="black"/>
<path d="M39.3035 0.813477V1.5706H39.9584V2.06704H39.3035V3.60267C39.3035 3.91549 39.434 4.05247 39.7309 4.05247C39.8069 4.05223 39.8829 4.04769 39.9584 4.03887V4.5298C39.8512 4.54874 39.7427 4.55881 39.6339 4.55992C38.9705 4.55992 38.7064 4.32934 38.7064 3.75357V2.06702H38.2266V1.57057H38.7064V0.813477H39.3035Z" fill="black"/>
<path d="M40.7656 0.392578H41.3569V2.03831H41.4041C41.4834 1.86632 41.6144 1.72268 41.7793 1.62694C41.9442 1.53121 42.135 1.48805 42.3256 1.50333C42.4719 1.49547 42.6182 1.5196 42.754 1.57401C42.8897 1.62842 43.0117 1.71177 43.1111 1.81811C43.2105 1.92445 43.285 2.05116 43.3291 2.18919C43.3733 2.32723 43.3861 2.4732 43.3666 2.61668V4.54479H42.7695V2.76207C42.7695 2.28506 42.5446 2.04348 42.1232 2.04348C42.0206 2.03517 41.9175 2.0491 41.821 2.08429C41.7245 2.11947 41.637 2.17507 41.5645 2.24718C41.492 2.3193 41.4363 2.40619 41.4014 2.50179C41.3664 2.59738 41.353 2.69937 41.3621 2.80061V4.54478H40.7657L40.7656 0.392578Z" fill="black"/>
<path d="M46.8388 3.73286C46.7577 4.0058 46.5822 4.24189 46.3429 4.39984C46.1036 4.55778 45.8157 4.62752 45.5296 4.59685C45.3306 4.60204 45.1328 4.56436 44.9499 4.48641C44.7671 4.40847 44.6036 4.29212 44.4708 4.14546C44.338 3.9988 44.2391 3.82533 44.181 3.6371C44.1228 3.44887 44.1068 3.25037 44.134 3.0554C44.1075 2.85983 44.1238 2.66091 44.1818 2.47211C44.2398 2.28332 44.3382 2.10904 44.4703 1.9611C44.6024 1.81315 44.7651 1.69499 44.9474 1.6146C45.1297 1.53422 45.3274 1.49348 45.527 1.49517C46.3676 1.49517 46.8748 2.06288 46.8748 3.00066V3.20632H44.7414V3.23934C44.732 3.34894 44.746 3.45925 44.7823 3.56321C44.8186 3.66717 44.8765 3.76248 44.9522 3.84303C45.028 3.92358 45.1199 3.98759 45.2222 4.03097C45.3244 4.07434 45.4347 4.09611 45.546 4.09489C45.6886 4.11181 45.8331 4.08643 45.9611 4.02196C46.0891 3.95749 46.1948 3.85685 46.2648 3.73284L46.8388 3.73286ZM44.7414 2.77043H46.2674C46.2749 2.6702 46.2611 2.56952 46.2269 2.47487C46.1927 2.38022 46.1389 2.29368 46.0688 2.22082C45.9988 2.14796 45.9141 2.09039 45.8202 2.05181C45.7264 2.01323 45.6253 1.99448 45.5237 1.99679C45.4206 1.99551 45.3182 2.01465 45.2227 2.05308C45.1272 2.09151 45.0404 2.14845 44.9675 2.22055C44.8946 2.29265 44.837 2.37845 44.7982 2.47289C44.7593 2.56732 44.74 2.66849 44.7414 2.77043H44.7414Z" fill="black"/>
</svg>
