<svg width="51" height="11" viewBox="0 0 51 11" fill="none" xmlns="http://www.w3.org/2000/svg">
<path d="M5.92827 6.79587H2.75239L1.98971 9.02192H0.644531L3.65267 0.786133H5.05026L8.0584 9.02192H6.69029L5.92827 6.79587ZM3.08132 5.76867H5.59872L4.35772 2.15597H4.32296L3.08132 5.76867Z" fill="black"/>
<path d="M14.5385 6.01087C14.5385 7.8768 13.5281 9.07564 12.0034 9.07564C11.6172 9.09561 11.2331 9.00766 10.8951 8.82187C10.557 8.63608 10.2788 8.35995 10.0921 8.02511H10.0633V10.9992H8.81641V3.00827H10.0233V4.00698H10.0463C10.2415 3.67373 10.5244 3.39904 10.865 3.21211C11.2056 3.02519 11.5911 2.93303 11.9805 2.94544C13.5222 2.94545 14.5385 4.15011 14.5385 6.01087ZM13.2569 6.01087C13.2569 4.7952 12.6213 3.99597 11.6516 3.99597C10.6989 3.99597 10.0581 4.81203 10.0581 6.01087C10.0581 7.22071 10.6989 8.03095 11.6516 8.03095C12.6213 8.03095 13.2569 7.23755 13.2569 6.01087H13.2569Z" fill="black"/>
<path d="M21.2263 6.01087C21.2263 7.8768 20.2156 9.07564 18.6909 9.07564C18.3047 9.09561 17.9206 9.00766 17.5826 8.82187C17.2445 8.63608 16.9663 8.35995 16.7796 8.02511H16.7508V10.9992H15.5039V3.00827H16.7108V4.00698H16.7338C16.929 3.67373 17.2119 3.39904 17.5525 3.21211C17.8931 3.02519 18.2786 2.93303 18.668 2.94544C20.2098 2.94545 21.2263 4.15011 21.2263 6.01087ZM19.9444 6.01087C19.9444 4.7952 19.3088 3.99597 18.3391 3.99597C17.3864 3.99597 16.7456 4.81203 16.7456 6.01087C16.7456 7.22071 17.3864 8.03095 18.3391 8.03095C19.3088 8.03095 19.9444 7.23755 19.9444 6.01087Z" fill="black"/>
<path d="M25.6514 6.72196C25.7438 7.53868 26.5465 8.07492 27.6433 8.07492C28.6943 8.07492 29.4504 7.53865 29.4504 6.80225C29.4504 6.16299 28.9944 5.78023 27.9146 5.51792L26.8347 5.26079C25.3048 4.89551 24.5945 4.18825 24.5945 3.04058C24.5945 1.61959 25.8473 0.643555 27.6256 0.643555C29.3868 0.643555 30.5938 1.61959 30.6344 3.04058H29.3757C29.3003 2.21869 28.613 1.72258 27.6086 1.72258C26.6041 1.72258 25.9168 2.22452 25.9168 2.95509C25.9168 3.53735 26.3558 3.87996 27.4297 4.14224L28.3476 4.36504C30.0571 4.76465 30.7667 5.44343 30.7667 6.64807C30.7667 8.18888 29.5257 9.1539 27.5509 9.1539C25.7031 9.1539 24.4556 8.21155 24.375 6.7219L25.6514 6.72196Z" fill="black"/>
<path d="M33.4603 1.58691V3.0079H34.6154V3.98394H33.4603V7.29418C33.4603 7.80842 33.6916 8.04806 34.1993 8.04806C34.3365 8.0457 34.4734 8.03618 34.6095 8.01954V8.98975C34.3812 9.03192 34.1492 9.05102 33.9169 9.04675C32.6871 9.04675 32.2075 8.59014 32.2075 7.42563V3.98394H31.3242V3.0079H32.2074V1.58691H33.4603Z" fill="black"/>
<path d="M35.2852 6.01295C35.2852 4.1237 36.4108 2.93652 38.1662 2.93652C39.9274 2.93652 41.0479 4.12368 41.0479 6.01295C41.0479 7.90739 39.9333 9.08938 38.1662 9.08938C36.3997 9.08938 35.2852 7.90738 35.2852 6.01295ZM39.7774 6.01295C39.7774 4.71697 39.1765 3.95207 38.1662 3.95207C37.1558 3.95207 36.555 4.7228 36.555 6.01295C36.555 7.31412 37.1558 8.07319 38.1662 8.07319C39.1765 8.07319 39.7774 7.31412 39.7774 6.01295H39.7774Z" fill="black"/>
<path d="M42.082 3.00821H43.2713V4.03022H43.3001C43.3806 3.71103 43.5698 3.42894 43.8358 3.23138C44.1019 3.03382 44.4287 2.93283 44.7613 2.94538C44.905 2.94488 45.0483 2.96031 45.1885 2.99137V4.14422C45.0071 4.08943 44.8178 4.06427 44.6282 4.06974C44.4471 4.06247 44.2665 4.09404 44.0989 4.16228C43.9312 4.23052 43.7805 4.3338 43.6571 4.46504C43.5337 4.59629 43.4404 4.75238 43.3838 4.92261C43.3271 5.09284 43.3084 5.27316 43.3289 5.45121V9.01275H42.082L42.082 3.00821Z" fill="black"/>
<path d="M50.9289 7.2513C50.7611 8.34132 49.6872 9.08938 48.3132 9.08938C46.5461 9.08938 45.4492 7.91904 45.4492 6.04145C45.4492 4.15803 46.552 2.93652 48.2608 2.93652C49.9414 2.93652 50.9983 4.07771 50.9983 5.89831V6.3206H46.7079V6.39508C46.6881 6.61606 46.7161 6.83868 46.79 7.04815C46.8639 7.25762 46.9821 7.44914 47.1367 7.61C47.2912 7.77086 47.4786 7.89738 47.6865 7.98115C47.8943 8.06491 48.1178 8.10401 48.342 8.09585C48.6367 8.12314 48.9324 8.05569 49.1851 7.90352C49.4379 7.75135 49.6342 7.5226 49.7449 7.25129L50.9289 7.2513ZM46.7138 5.45919H49.7508C49.762 5.2605 49.7315 5.06166 49.6613 4.87516C49.591 4.68866 49.4825 4.51852 49.3426 4.37542C49.2027 4.23232 49.0344 4.11935 48.8482 4.0436C48.6621 3.96785 48.4621 3.93096 48.2608 3.93523C48.0577 3.93403 47.8565 3.97259 47.6686 4.04869C47.4807 4.12479 47.3099 4.23692 47.1661 4.3786C47.0222 4.52029 46.9082 4.68872 46.8306 4.87419C46.753 5.05966 46.7133 5.25849 46.7138 5.4592V5.45919Z" fill="black"/>
</svg>
