<svg width="70" height="18" viewBox="0 0 70 18" fill="none" xmlns="http://www.w3.org/2000/svg">
<path d="M22.4693 3.11761C22.4792 3.34737 22.4444 3.57685 22.3671 3.7922C22.2897 4.00755 22.1714 4.20433 22.0193 4.37068C21.8489 4.55444 21.6432 4.69854 21.4157 4.79356C21.1883 4.88857 20.9441 4.93235 20.6994 4.92203C20.4531 4.92776 20.2084 4.88068 19.9804 4.78368C19.7523 4.68669 19.5457 4.54186 19.3734 4.35815C19.0238 3.98471 18.828 3.48321 18.828 2.96097C18.828 2.43873 19.0238 1.93723 19.3734 1.56379C19.6407 1.29105 19.9792 1.10688 20.3464 1.03443C20.7136 0.961968 21.0932 1.00445 21.4373 1.15655C21.6537 1.24942 21.8467 1.39305 22.0013 1.57633L21.6833 1.90839C21.5642 1.7585 21.4132 1.63969 21.2424 1.56138C21.0716 1.48308 20.8857 1.44743 20.6994 1.45728C20.4642 1.45898 20.233 1.52081 20.0259 1.63736C19.8189 1.75391 19.6424 1.92164 19.5118 2.12588C19.3812 2.33012 19.3005 2.56466 19.2767 2.809C19.2529 3.05333 19.2868 3.30003 19.3755 3.52752C19.4641 3.75502 19.6047 3.95638 19.7851 4.11401C19.9654 4.27165 20.18 4.38075 20.41 4.43179C20.6401 4.48283 20.8786 4.47425 21.1048 4.40681C21.3309 4.33936 21.5378 4.2151 21.7073 4.04488C21.8906 3.83505 21.9969 3.56429 22.0073 3.28051H20.6994V2.8294H22.4453C22.459 2.92486 22.467 3.02111 22.4693 3.11761Z" fill="black" stroke="black" stroke-width="0.122395" stroke-miterlimit="10"/>
<path d="M25.2294 1.55641H23.6088V2.74683H25.0854V3.19794H23.6088V4.38836H25.2294V4.852H23.1406V1.09277H25.2294V1.55641Z" fill="black" stroke="black" stroke-width="0.122395" stroke-miterlimit="10"/>
<path d="M27.1776 4.852H26.7154V1.55641H25.707V1.09277H28.21V1.55641H27.1776V4.852Z" fill="black" stroke="black" stroke-width="0.122395" stroke-miterlimit="10"/>
<path d="M29.9805 4.852V1.09277H30.4426V4.852H29.9805Z" fill="black" stroke="black" stroke-width="0.122395" stroke-miterlimit="10"/>
<path d="M32.4979 4.852H32.0357V1.55641H31.0273V1.09277H33.5003V1.55641H32.4979V4.852Z" fill="black" stroke="black" stroke-width="0.122395" stroke-miterlimit="10"/>
<path d="M38.1797 4.35748C38.0064 4.53859 37.8007 4.68226 37.5742 4.78028C37.3477 4.87831 37.1049 4.92876 36.8597 4.92876C36.6146 4.92876 36.3718 4.87831 36.1453 4.78028C35.9188 4.68226 35.7131 4.53859 35.5398 4.35748C35.2006 3.98097 35.0117 3.4835 35.0117 2.96657C35.0117 2.44964 35.2006 1.95218 35.5398 1.57566C35.7093 1.38945 35.9144 1.24249 36.1418 1.14428C36.3692 1.04606 36.6138 0.998788 36.8597 1.00551C37.1054 1.00145 37.3492 1.04995 37.5762 1.148C37.8032 1.24605 38.0086 1.39159 38.1797 1.57566C38.3523 1.75892 38.4879 1.97641 38.5786 2.21531C38.6692 2.4542 38.7132 2.70965 38.7077 2.96657C38.7156 3.22381 38.6728 3.47999 38.582 3.71925C38.4912 3.95851 38.3542 4.17574 38.1797 4.35748ZM35.8818 4.04421C36.0096 4.17947 36.1618 4.28687 36.3297 4.36017C36.4976 4.43347 36.6778 4.47121 36.8597 4.47121C37.0417 4.47121 37.2219 4.43347 37.3898 4.36017C37.5577 4.28687 37.7099 4.17947 37.8377 4.04421C38.0966 3.75045 38.2403 3.3658 38.2403 2.96657C38.2403 2.56734 38.0966 2.18269 37.8377 1.88893C37.7099 1.75367 37.5577 1.64628 37.3898 1.57298C37.2219 1.49967 37.0417 1.46193 36.8597 1.46193C36.6778 1.46193 36.4976 1.49967 36.3297 1.57298C36.1618 1.64628 36.0096 1.75367 35.8818 1.88893C35.6229 2.18269 35.4792 2.56734 35.4792 2.96657C35.4792 3.3658 35.6229 3.75045 35.8818 4.04421Z" fill="black" stroke="black" stroke-width="0.122395" stroke-miterlimit="10"/>
<path d="M39.3438 4.852V1.09277H39.9017L41.6537 4.0187V3.29192V1.09277H42.1157V4.852H41.6357L39.8057 1.78823V2.50875V4.852H39.3438Z" fill="black" stroke="black" stroke-width="0.122395" stroke-miterlimit="10"/>
<path d="M34.9147 10.3238C34.4092 10.3251 33.9154 10.4828 33.4957 10.7771C33.0761 11.0714 32.7494 11.4891 32.557 11.9773C32.3647 12.4654 32.3153 13.0022 32.4151 13.5197C32.5148 14.0372 32.7593 14.5122 33.1176 14.8846C33.4759 15.257 33.9319 15.5101 34.428 15.6119C34.924 15.7136 35.4378 15.6595 35.9044 15.4564C36.371 15.2532 36.7694 14.9101 37.0493 14.4705C37.3291 14.0309 37.4779 13.5145 37.4767 12.9866C37.4816 12.6345 37.4186 12.2849 37.2914 11.9587C37.1642 11.6325 36.9755 11.3364 36.7365 11.0879C36.4974 10.8394 36.2129 10.6438 35.9 10.5125C35.587 10.3812 35.2519 10.3171 34.9147 10.3238ZM34.9147 14.6031C34.6049 14.6257 34.2957 14.5505 34.0273 14.3872C33.759 14.2239 33.5438 13.98 33.41 13.6874C33.2761 13.3947 33.2296 13.0667 33.2766 12.7461C33.3235 12.4255 33.4618 12.1271 33.6733 11.8896C33.8849 11.6521 34.16 11.4866 34.4628 11.4145C34.7656 11.3424 35.0822 11.3672 35.3714 11.4855C35.6606 11.6038 35.9091 11.8102 36.0844 12.078C36.2598 12.3457 36.354 12.6623 36.3547 12.9866C36.3644 13.1921 36.3345 13.3976 36.267 13.5909C36.1994 13.7841 36.0954 13.9613 35.9612 14.112C35.827 14.2626 35.6653 14.3837 35.4855 14.4681C35.3058 14.5524 35.1117 14.5983 34.9147 14.6031ZM29.3228 10.3238C28.8173 10.3251 28.3235 10.4828 27.9038 10.7771C27.4841 11.0714 27.1575 11.4891 26.9651 11.9773C26.7727 12.4654 26.7233 13.0022 26.8231 13.5197C26.9229 14.0372 27.1674 14.5122 27.5257 14.8846C27.884 15.257 28.34 15.5101 28.836 15.6119C29.3321 15.7136 29.8459 15.6595 30.3125 15.4564C30.7791 15.2532 31.1775 14.9101 31.4573 14.4705C31.7372 14.0309 31.8859 13.5145 31.8848 12.9866C31.8897 12.6345 31.8266 12.2849 31.6995 11.9587C31.5723 11.6325 31.3836 11.3364 31.1445 11.0879C30.9055 10.8394 30.621 10.6438 30.308 10.5125C29.9951 10.3812 29.66 10.3171 29.3228 10.3238ZM29.3228 14.6031C29.0129 14.6257 28.7037 14.5505 28.4354 14.3872C28.167 14.2239 27.9519 13.98 27.818 13.6874C27.6841 13.3947 27.6376 13.0667 27.6846 12.7461C27.7316 12.4255 27.8698 12.1271 28.0814 11.8896C28.2929 11.6521 28.568 11.4866 28.8709 11.4145C29.1737 11.3424 29.4903 11.3672 29.7795 11.4855C30.0687 11.6038 30.3171 11.8102 30.4925 12.078C30.6678 12.3457 30.762 12.6623 30.7628 12.9866C30.7724 13.1921 30.7426 13.3976 30.675 13.5909C30.6074 13.7841 30.5035 13.9613 30.3693 14.112C30.2351 14.2626 30.0733 14.3837 29.8936 14.4681C29.7139 14.5524 29.5198 14.5983 29.3228 14.6031ZM22.6749 11.1446V12.2724H25.2668C25.2262 12.8035 25.0148 13.3048 24.6668 13.6946C24.4068 13.9712 24.0941 14.1878 23.7489 14.3302C23.4037 14.4727 23.0337 14.5379 22.6629 14.5216C21.8991 14.5216 21.1665 14.2048 20.6264 13.6408C20.0863 13.0768 19.7829 12.3119 19.7829 11.5143C19.7829 10.7166 20.0863 9.95171 20.6264 9.38772C21.1665 8.82372 21.8991 8.50688 22.6629 8.50688C23.3951 8.49551 24.1022 8.78589 24.6308 9.31511L25.3928 8.51941C25.0352 8.15007 24.6106 7.85897 24.1439 7.66316C23.6772 7.46736 23.1778 7.37079 22.6749 7.37911C22.1415 7.35743 21.6094 7.44842 21.1105 7.64662C20.6115 7.84482 20.1561 8.14616 19.7714 8.53257C19.3866 8.91898 19.0806 9.38252 18.8715 9.89541C18.6624 10.4083 18.5547 10.96 18.5547 11.5174C18.5547 12.0748 18.6624 12.6265 18.8715 13.1394C19.0806 13.6523 19.3866 14.1158 19.7714 14.5022C20.1561 14.8886 20.6115 15.19 21.1105 15.3882C21.6094 15.5864 22.1415 15.6773 22.6749 15.6557C23.1881 15.6771 23.6999 15.5849 24.1766 15.3851C24.6533 15.1853 25.0841 14.8825 25.4408 14.4966C26.0709 13.7738 26.4066 12.8232 26.3768 11.8463C26.379 11.6112 26.3609 11.3763 26.3228 11.1446H22.6749ZM49.8606 12.0217C49.7041 11.541 49.4115 11.1213 49.0215 10.8181C48.6315 10.5149 48.1625 10.3425 47.6766 10.3238C47.3484 10.3232 47.0235 10.3928 46.7221 10.5284C46.4207 10.664 46.1492 10.8628 45.9242 11.1124C45.6993 11.3619 45.5258 11.657 45.4144 11.9794C45.303 12.3018 45.2561 12.6446 45.2766 12.9866C45.2715 13.5586 45.4437 14.1169 45.7675 14.5782C46.0913 15.0395 46.5493 15.379 47.0731 15.5461C47.597 15.7132 48.1585 15.6988 48.6739 15.5051C49.1893 15.3114 49.6308 14.9488 49.9326 14.4715L49.0626 13.845C48.9329 14.0707 48.7489 14.2571 48.529 14.3857C48.309 14.5143 48.0607 14.5806 47.8086 14.578C47.5485 14.5892 47.2913 14.518 47.0707 14.3738C46.8501 14.2295 46.6765 14.019 46.5726 13.7698L49.9866 12.2974L49.8606 12.0217ZM46.3806 12.9114C46.3684 12.7168 46.3936 12.5216 46.4546 12.3373C46.5155 12.1529 46.6111 11.9832 46.7357 11.8379C46.8603 11.6926 47.0114 11.5747 47.1802 11.4912C47.349 11.4076 47.532 11.3601 47.7186 11.3514C47.9119 11.339 48.1044 11.3866 48.272 11.488C48.4395 11.5894 48.5747 11.7402 48.6606 11.9215L46.3806 12.9114ZM43.6086 15.4928H44.7306V7.66105H43.6086V15.4928ZM41.7726 10.919H41.7306C41.563 10.7197 41.3562 10.5605 41.1242 10.4524C40.8923 10.3443 40.6407 10.2897 40.3867 10.2925C39.731 10.3257 39.1127 10.6211 38.6599 11.1174C38.2071 11.6137 37.9545 12.2729 37.9545 12.9584C37.9545 13.6439 38.2071 14.3031 38.6599 14.7995C39.1127 15.2958 39.731 15.5911 40.3867 15.6243C40.641 15.6297 40.8934 15.5763 41.1257 15.468C41.3581 15.3597 41.5646 15.1991 41.7306 14.9978H41.7726V15.38C41.7726 16.4012 41.2507 16.9463 40.4107 16.9463C40.1301 16.9399 39.8576 16.8465 39.6279 16.6781C39.3983 16.5096 39.2217 16.2737 39.1207 16.0003L38.1487 16.42C38.3284 16.8914 38.6408 17.2946 39.0447 17.5765C39.4486 17.8584 39.9249 18.0057 40.4107 17.9989C41.7247 17.9989 42.8106 17.1907 42.8106 15.2234V10.4805H41.7726V10.919ZM40.4827 14.6031C40.0896 14.5775 39.7206 14.3964 39.4509 14.0966C39.1812 13.7969 39.031 13.4011 39.031 12.9898C39.031 12.5784 39.1812 12.1826 39.4509 11.8829C39.7206 11.5831 40.0896 11.402 40.4827 11.3764C40.6748 11.3851 40.8633 11.434 41.037 11.5203C41.2106 11.6066 41.3659 11.7285 41.4935 11.8787C41.6212 12.0289 41.7185 12.2044 41.7799 12.3948C41.8413 12.5851 41.8653 12.7864 41.8506 12.9866C41.867 13.1875 41.8442 13.3898 41.7836 13.5813C41.7229 13.7727 41.6257 13.9494 41.4978 14.1005C41.37 14.2516 41.2141 14.374 41.0396 14.4604C40.8651 14.5468 40.6756 14.5953 40.4827 14.6031ZM55.1165 7.66105H52.4285V15.4928H53.5505V12.523H55.1165C55.4363 12.547 55.7573 12.5019 56.0597 12.3906C56.362 12.2793 56.6392 12.1042 56.8739 11.8761C57.1086 11.648 57.2957 11.3719 57.4237 11.0649C57.5517 10.758 57.6177 10.4268 57.6177 10.092C57.6177 9.75724 57.5517 9.42605 57.4237 9.11911C57.2957 8.81216 57.1086 8.53604 56.8739 8.30796C56.6392 8.07987 56.362 7.90472 56.0597 7.79342C55.7573 7.68212 55.4363 7.63706 55.1165 7.66105ZM55.1165 11.4203H53.5505V8.75123H55.1405C55.3091 8.75123 55.4761 8.78591 55.6319 8.85329C55.7876 8.92067 55.9292 9.01943 56.0484 9.14393C56.1676 9.26844 56.2622 9.41625 56.3267 9.57892C56.3913 9.74159 56.4245 9.91594 56.4245 10.092C56.4245 10.2681 56.3913 10.4424 56.3267 10.6051C56.2622 10.7678 56.1676 10.9156 56.0484 11.0401C55.9292 11.1646 55.7876 11.2634 55.6319 11.3307C55.4761 11.3981 55.3091 11.4328 55.1405 11.4328L55.1165 11.4203ZM62.0404 10.2988C61.6318 10.2725 61.2248 10.3718 60.8697 10.5845C60.5146 10.7972 60.227 11.1139 60.0424 11.4955L61.0324 11.9278C61.1325 11.7394 61.2826 11.5854 61.4646 11.4842C61.6467 11.383 61.8529 11.3391 62.0584 11.3576C62.2008 11.3403 62.3452 11.3527 62.4829 11.3942C62.6207 11.4357 62.7492 11.5054 62.8609 11.5993C62.9726 11.6932 63.0653 11.8094 63.1335 11.9411C63.2018 12.0728 63.2442 12.2173 63.2584 12.3663V12.4415C62.8976 12.2435 62.496 12.1403 62.0884 12.1408C61.0204 12.1408 59.9284 12.7673 59.9284 13.9076C59.939 14.15 59.9961 14.3877 60.0963 14.6066C60.1966 14.8254 60.338 15.021 60.512 15.1818C60.6861 15.3425 60.8893 15.465 61.1096 15.5421C61.3299 15.6192 61.5628 15.6493 61.7944 15.6306C62.076 15.6469 62.3566 15.5846 62.6075 15.4503C62.8585 15.316 63.0707 15.1144 63.2224 14.8662H63.2584V15.4928H64.3384V12.4791C64.3384 11.107 63.3424 10.3113 62.0644 10.3113L62.0404 10.2988ZM61.9024 14.5906C61.5364 14.5906 61.0264 14.3963 61.0264 13.9264C61.0264 13.2999 61.6624 13.0869 62.2264 13.0869C62.5828 13.0777 62.9351 13.1686 63.2464 13.35C63.2087 13.6903 63.0542 14.0047 62.8115 14.2351C62.5688 14.4655 62.2544 14.5963 61.9264 14.6031L61.9024 14.5906ZM68.2743 10.4805L66.9904 13.8763H66.9544L65.6224 10.4805H64.4224L66.4204 15.2296L65.2804 17.8673H66.4504L69.5223 10.4805H68.2743ZM58.1945 15.4928H59.3104V7.66105H58.1945V15.4928Z" fill="black"/>
<path d="M0.280671 1.42667C0.0829554 1.67078 -0.0179283 1.98458 -0.00132598 2.30382V16.1628C-0.0217414 16.4826 0.0796099 16.7978 0.280671 17.04L0.322671 17.0901L7.75658 9.3273V9.13934L0.322671 1.38281L0.280671 1.42667Z" fill="url(#paint0_linear_432_1686)"/>
<path d="M10.2178 11.9091L7.75781 9.32146V9.1335L10.2178 6.5459L10.2718 6.58349L13.2177 8.32526C14.0577 8.82023 14.0577 9.63473 13.2177 10.136L10.2838 11.8777L10.2178 11.9091Z" fill="url(#paint1_linear_432_1686)"/>
<path d="M10.2735 11.8803L7.74154 9.23633L0.265625 17.043C0.435168 17.2006 0.652179 17.2912 0.879029 17.2992C1.10588 17.3073 1.32826 17.2321 1.50761 17.0868L10.2735 11.8803Z" fill="url(#paint2_linear_432_1686)"/>
<path d="M10.2735 6.58604L1.50761 1.38578C1.32943 1.23849 1.10722 1.16152 0.880061 1.16839C0.652903 1.17527 0.435339 1.26555 0.265625 1.42337L7.74154 9.23003L10.2735 6.58604Z" fill="url(#paint3_linear_432_1686)"/>
<path opacity="0.2" d="M10.2015 11.8105L1.50761 16.9795C1.33478 17.1157 1.12415 17.1894 0.907617 17.1894C0.691087 17.1894 0.480456 17.1157 0.307624 16.9795L0.265625 17.0233L0.307624 17.0735C0.480456 17.2097 0.691087 17.2834 0.907617 17.2834C1.12415 17.2834 1.33478 17.2097 1.50761 17.0735L10.2735 11.8669L10.2015 11.8105Z" fill="black"/>
<path opacity="0.12" d="M0.283171 16.9488C0.0903729 16.7003 -0.00411128 16.3843 0.0190685 16.0654V16.1594C-0.00135498 16.4792 0.100036 16.7944 0.301177 17.0366L0.343195 16.9927L0.283171 16.9488Z" fill="black"/>
<path opacity="0.12" d="M13.2109 10.0508L10.2109 11.8239L10.2649 11.8803L13.2109 10.1385C13.3848 10.0618 13.5356 9.93743 13.6476 9.77866C13.7595 9.61988 13.8284 9.43253 13.8469 9.23633C13.8094 9.41462 13.7323 9.58122 13.6218 9.72269C13.5113 9.86417 13.3706 9.97656 13.2109 10.0508Z" fill="black"/>
<path opacity="0.25" d="M1.52398 1.47184L13.2178 8.41388C13.3775 8.48814 13.5183 8.60053 13.6288 8.74201C13.7392 8.88348 13.8163 9.05008 13.8538 9.22837C13.8353 9.03217 13.7664 8.84482 13.6545 8.68604C13.5426 8.52727 13.3917 8.40294 13.2178 8.32616L1.52398 1.38413C0.689992 0.882898 0 1.29641 0 2.29887V2.39285C0.0179998 1.39039 0.689992 0.976879 1.52398 1.47184Z" fill="white"/>
<defs>
<linearGradient id="paint0_linear_432_1686" x1="7.09659" y1="2.15972" x2="-3.40686" y2="12.2182" gradientUnits="userSpaceOnUse">
<stop stop-color="#00A0FF"/>
<stop offset="0.01" stop-color="#00A1FF"/>
<stop offset="0.26" stop-color="#00BEFF"/>
<stop offset="0.51" stop-color="#00D2FF"/>
<stop offset="0.76" stop-color="#00DFFF"/>
<stop offset="1" stop-color="#00E3FF"/>
</linearGradient>
<linearGradient id="paint1_linear_432_1686" x1="14.3157" y1="9.22748" x2="-0.19809" y2="9.22748" gradientUnits="userSpaceOnUse">
<stop stop-color="#FFE000"/>
<stop offset="0.41" stop-color="#FFBD00"/>
<stop offset="0.78" stop-color="#FFA500"/>
<stop offset="1" stop-color="#FF9C00"/>
</linearGradient>
<linearGradient id="paint2_linear_432_1686" x1="8.89952" y1="10.6774" x2="-5.34684" y2="24.3142" gradientUnits="userSpaceOnUse">
<stop stop-color="#FF3A44"/>
<stop offset="1" stop-color="#C31162"/>
</linearGradient>
<linearGradient id="paint3_linear_432_1686" x1="-1.61835" y1="-3.18794" x2="4.7413" y2="2.90228" gradientUnits="userSpaceOnUse">
<stop stop-color="#32A071"/>
<stop offset="0.07" stop-color="#2DA771"/>
<stop offset="0.48" stop-color="#15CF74"/>
<stop offset="0.8" stop-color="#06E775"/>
<stop offset="1" stop-color="#00F076"/>
</linearGradient>
</defs>
</svg>
