<svg width="13" height="16" viewBox="0 0 13 16" fill="none" xmlns="http://www.w3.org/2000/svg">
<path d="M10.3244 7.99C10.3319 7.41436 10.4865 6.84994 10.774 6.34927C11.0615 5.8486 11.4724 5.42794 11.9686 5.12644C11.6534 4.68149 11.2376 4.31531 10.7542 4.05699C10.2708 3.79868 9.73311 3.65533 9.18386 3.63835C8.01222 3.51678 6.87638 4.33135 6.27932 4.33135C5.67072 4.33135 4.75148 3.65042 3.7616 3.67054C3.12132 3.69099 2.49732 3.87503 1.9504 4.20474C1.40347 4.53444 0.952271 4.99856 0.640762 5.55188C-0.708592 7.86119 0.297907 11.2551 1.5905 13.1218C2.23722 14.0359 2.99303 15.0569 3.98202 15.0207C4.9498 14.981 5.31125 14.4107 6.47943 14.4107C7.63678 14.4107 7.97589 15.0207 8.98494 14.9977C10.0234 14.981 10.6777 14.0795 11.3017 13.1568C11.7664 12.5055 12.124 11.7857 12.3612 11.024C11.7578 10.7718 11.243 10.3496 10.8808 9.81003C10.5186 9.2705 10.3251 8.63751 10.3244 7.99Z" fill="black"/>
<path d="M8.43705 2.40739C9.00327 1.73551 9.28223 0.87191 9.21468 0C8.34963 0.089809 7.55056 0.49848 6.97669 1.14459C6.69611 1.46023 6.48121 1.82743 6.34429 2.22522C6.20737 2.623 6.1511 3.04356 6.1787 3.46285C6.61138 3.46725 7.03944 3.37455 7.43062 3.19173C7.8218 3.0089 8.16592 2.74073 8.43705 2.40739Z" fill="black"/>
</svg>
