<svg width="24" height="17" viewBox="0 0 24 17" fill="none" xmlns="http://www.w3.org/2000/svg">
<path d="M9.78436 6.83751C11.1961 7.54 12.8513 7.54 14.2144 6.83751L21.8574 3.09093L23.6099 2.24795C22.9771 0.936646 21.5653 0 19.9101 0H4.1373C2.53081 0 1.11904 0.936646 0.4375 2.24795L2.19004 3.09093L9.78436 6.83751Z" fill="white" fill-opacity="0.5"/>
<path d="M15.14 8.52239C14.1663 8.99072 13.0953 9.22488 12.0243 9.22488C10.9533 9.22488 9.88235 8.99072 8.90872 8.52239L1.94726 5.10364L0 4.16699V13.0651C0 15.2194 1.8499 16.999 4.08925 16.999H19.9108C22.1501 16.999 24 15.2194 24 13.0651V4.16699L22.0527 5.10364L15.14 8.52239Z" fill="white" fill-opacity="0.5"/>
</svg>
