<svg width="24" height="24" viewBox="0 0 24 24" fill="none" xmlns="http://www.w3.org/2000/svg">
<path d="M0 17.8976V17.8986C0.0143749 18.4314 0.0188088 18.9672 0.108745 19.4967C0.204049 20.0569 0.340284 20.6032 0.600198 21.1116C0.95159 21.7997 1.43418 22.3809 2.04333 22.8556C2.4807 23.1964 2.95847 23.467 3.48736 23.6377C4.25856 23.8863 5.05417 23.9815 5.86141 23.9862C6.36504 23.9894 6.86835 24.002 7.37217 23.9999C11.031 23.9845 14.6899 24.0263 18.3488 23.9773C18.8344 23.9707 19.312 23.9115 19.7885 23.8245C20.7018 23.6574 21.509 23.268 22.1996 22.6524C23.0044 21.9351 23.5475 21.0572 23.7926 19.9977C23.953 19.3052 23.9931 18.6026 24 17.8975V17.7568C24 17.7023 23.9792 5.77658 23.9773 5.61895C23.9719 5.18594 23.94 4.7562 23.8588 4.33013C23.76 3.81094 23.6204 3.30504 23.3716 2.83533C23.1088 2.33908 22.7798 1.89288 22.3727 1.50296C21.7493 0.90556 21.0298 0.48309 20.1921 0.259614C19.4356 0.0578224 18.6638 0.0131457 17.8863 0.0138452C17.8863 0.0138452 17.8821 0.00577722 17.8819 0.00195312H6.11432C6.11409 0.00596377 6.11395 0.00997446 6.11367 0.0138452C5.67243 0.0219131 5.23055 0.0186019 4.79155 0.0729787C4.31065 0.132719 3.83436 0.222678 3.37917 0.390659C2.6622 0.655641 2.03927 1.06836 1.50717 1.61936C0.904311 2.24362 0.479365 2.96558 0.253894 3.80628C0.0527392 4.55636 0.00896127 5.32137 0.00788782 6.09179" fill="white" fill-opacity="0.5"/>
<g clip-path="url(#clip0_432_2126)">
<path d="M19.6864 15.7015C17.5473 15.3495 16.5832 13.1584 16.5442 13.0654C16.5412 13.0594 16.5392 13.0534 16.5352 13.0474C16.4262 12.8254 16.4002 12.6424 16.4602 12.5034C16.5772 12.2294 17.0252 12.0874 17.3213 11.9934C17.4073 11.9664 17.4883 11.9403 17.5553 11.9143C17.8473 11.7993 18.0553 11.6743 18.1933 11.5333C18.3573 11.3643 18.3893 11.2023 18.3873 11.0973C18.3823 10.8413 18.1863 10.6133 17.8733 10.5023C17.7683 10.4593 17.6473 10.4363 17.5253 10.4363C17.4423 10.4363 17.3183 10.4473 17.2012 10.5023C16.9512 10.6193 16.7272 10.6833 16.5342 10.6923C16.4322 10.6873 16.3602 10.6653 16.3132 10.6443C16.3192 10.5443 16.3252 10.4413 16.3322 10.3353L16.3352 10.2893C16.4042 9.20622 16.4892 7.85916 16.1312 7.05912C15.8862 6.51109 15.5572 6.04007 15.1522 5.65805C14.8131 5.33804 14.4191 5.07803 13.9811 4.88602C13.2201 4.55 12.51 4.5 12.154 4.5H12.114C12.015 4.501 11.854 4.503 11.839 4.503C11.484 4.503 10.7729 4.553 10.0099 4.88902C9.57289 5.08103 9.18087 5.34004 8.84285 5.66005C8.43984 6.04207 8.11182 6.51209 7.86781 7.05812C7.50979 7.85716 7.5948 9.20422 7.6628 10.2863V10.2883C7.6698 10.4043 7.6778 10.5253 7.6848 10.6433C7.6328 10.6663 7.54779 10.6923 7.42279 10.6923C7.22078 10.6923 6.98077 10.6283 6.70975 10.5013C6.62975 10.4643 6.53875 10.4453 6.43874 10.4453C6.27773 10.4453 6.10673 10.4923 5.95972 10.5793C5.77371 10.6883 5.6537 10.8413 5.6207 11.0123C5.5997 11.1243 5.6007 11.3473 5.84871 11.5733C5.98572 11.6973 6.18573 11.8123 6.44474 11.9143C6.51274 11.9413 6.59375 11.9664 6.67875 11.9934C6.97477 12.0874 7.42379 12.2294 7.54079 12.5034C7.5998 12.6424 7.57379 12.8254 7.46479 13.0474C7.46171 13.0532 7.45903 13.0592 7.45679 13.0654C7.42879 13.1294 7.17378 13.7044 6.65075 14.3115C6.35374 14.6565 6.02672 14.9455 5.67871 15.1695C5.25369 15.4435 4.79466 15.6215 4.31364 15.7005C4.12463 15.7315 3.98963 15.8995 4.00063 16.0905C4.00363 16.1455 4.01663 16.2006 4.03963 16.2536V16.2546C4.11663 16.4336 4.29364 16.5846 4.58165 16.7176C4.93367 16.8806 5.4597 17.0176 6.14673 17.1246C6.18173 17.1906 6.21773 17.3556 6.24273 17.4686C6.26873 17.5886 6.29573 17.7126 6.33474 17.8436C6.37674 17.9856 6.48474 18.1556 6.76376 18.1556C6.86976 18.1556 6.99077 18.1316 7.13177 18.1046C7.33778 18.0646 7.6198 18.0096 7.97081 18.0096C8.16582 18.0096 8.36783 18.0266 8.57084 18.0606C8.96286 18.1256 9.30088 18.3637 9.69189 18.6397C10.2639 19.0437 10.912 19.5007 11.902 19.5007C11.929 19.5007 11.956 19.4997 11.983 19.4977C12.0213 19.4998 12.0597 19.5008 12.098 19.5007C13.0881 19.5007 13.7361 19.0437 14.3081 18.6407L14.3091 18.6397C14.7001 18.3647 15.0381 18.1266 15.4302 18.0616C15.6332 18.0276 15.8352 18.0106 16.0302 18.0106C16.3662 18.0106 16.6322 18.0536 16.8692 18.0996C17.0242 18.1296 17.1442 18.1446 17.2372 18.1446H17.2552C17.4593 18.1446 17.6093 18.0326 17.6663 17.8376C17.7043 17.7086 17.7313 17.5886 17.7583 17.4656C17.7813 17.3596 17.8193 17.1896 17.8533 17.1236C18.5403 17.0156 19.0663 16.8796 19.4184 16.7166C19.7054 16.5836 19.8824 16.4326 19.9594 16.2546C19.9824 16.2015 19.9964 16.1465 19.9994 16.0895C20.0104 15.9005 19.8754 15.7315 19.6864 15.7015Z" fill="url(#paint0_diamond_432_2126)"/>
</g>
<defs>
<radialGradient id="paint0_diamond_432_2126" cx="0" cy="0" r="1" gradientUnits="userSpaceOnUse" gradientTransform="translate(12 12.0004) scale(8 7.50036)">
<stop stop-color="#033D4A"/>
<stop offset="1" stop-color="#00262F"/>
</radialGradient>
<clipPath id="clip0_432_2126">
<rect width="16" height="16" fill="white" transform="translate(4 4)"/>
</clipPath>
</defs>
</svg>
