<svg width="46" height="15" viewBox="0 0 46 15" fill="none" xmlns="http://www.w3.org/2000/svg">
<path d="M4.50971 11.1767H1.91884L1.28585 12.937H0.152344L2.68433 6.33203H3.75895L6.34981 12.937H5.15742L4.50971 11.1767ZM2.2427 10.274H4.17113L3.47925 8.37823C3.39093 8.12246 3.28788 7.82154 3.19955 7.50559C3.11123 7.79145 3.0229 8.07732 2.93458 8.36318L2.2427 10.274Z" fill="black"/>
<path d="M6.81069 9.22107C6.81069 8.85998 6.79597 8.45375 6.78125 8.01743H7.81171C7.85587 8.22807 7.87059 8.42366 7.88531 8.6343C8.31222 8.15284 8.798 7.91211 9.35739 7.91211C9.68125 7.91211 9.97567 7.98734 10.2554 8.15284C10.5351 8.31834 10.7559 8.57411 10.9178 8.93521C11.0797 9.2963 11.1681 9.74767 11.1681 10.2893C11.1681 10.861 11.065 11.3575 10.8736 11.7638C10.6823 12.17 10.4173 12.486 10.064 12.6816C9.72542 12.8922 9.32795 12.9975 8.87161 12.9975C8.54775 12.9975 8.22389 12.9373 7.90003 12.832V14.8933L6.79597 14.9835V9.22107H6.81069ZM9.71069 11.7337C9.93151 11.4328 10.0493 10.9814 10.0493 10.3796C10.0493 9.8229 9.96095 9.43171 9.76958 9.19098C9.57821 8.95025 9.34267 8.81484 9.03354 8.81484C8.81272 8.81484 8.62135 8.85998 8.4447 8.9653C8.26805 9.07062 8.0914 9.20603 7.92947 9.38658V12.0195C8.03252 12.0797 8.16501 12.1249 8.31222 12.155C8.45942 12.1851 8.60663 12.2001 8.73912 12.2001C9.1513 12.2001 9.47516 12.0496 9.71069 11.7337Z" fill="black"/>
<path d="M11.8456 9.22107C11.8456 8.85998 11.8309 8.45375 11.8162 8.01743H12.8466C12.8908 8.22807 12.9055 8.42366 12.9202 8.6343C13.3471 8.15284 13.8329 7.91211 14.3923 7.91211C14.7162 7.91211 15.0106 7.98734 15.2903 8.15284C15.57 8.31834 15.7908 8.57411 15.9527 8.93521C16.1146 9.2963 16.203 9.74767 16.203 10.2893C16.203 10.861 16.0999 11.3575 15.9086 11.7638C15.7172 12.17 15.4522 12.486 15.0989 12.6816C14.7603 12.8922 14.3629 12.9975 13.9065 12.9975C13.5827 12.9975 13.2588 12.9373 12.9349 12.832V14.8933L11.8309 14.9835V9.22107H11.8456ZM14.7456 11.7337C14.9664 11.4328 15.0842 10.9814 15.0842 10.3796C15.0842 9.8229 14.9959 9.43171 14.8045 9.19098C14.6131 8.95025 14.3776 8.81484 14.0684 8.81484C13.8476 8.81484 13.6563 8.85998 13.4796 8.9653C13.303 9.07062 13.1263 9.20603 12.9644 9.38658V12.0195C13.0674 12.0797 13.1999 12.1249 13.3471 12.155C13.4943 12.1851 13.6415 12.2001 13.774 12.2001C14.1862 12.2001 14.5248 12.0496 14.7456 11.7337Z" fill="black"/>
<path d="M18.1949 12.6143C17.7238 12.3435 17.3558 11.9673 17.1055 11.4558C16.8553 10.9593 16.7228 10.3574 16.7228 9.68039C16.7228 8.94316 16.87 8.31124 17.1644 7.79969C17.4588 7.28814 17.8563 6.89696 18.3715 6.64118C18.872 6.38541 19.4461 6.25 20.0791 6.25C20.4471 6.25 20.8004 6.29514 21.139 6.37036C21.4776 6.46064 21.7867 6.56596 22.0811 6.71641L21.8014 7.58906C21.2126 7.30319 20.6532 7.16778 20.1233 7.16778C19.6817 7.16778 19.2842 7.2731 18.9456 7.46869C18.607 7.66428 18.3421 7.95015 18.1654 8.32629C17.974 8.70243 17.8857 9.16884 17.8857 9.69543C17.8857 10.1618 17.9593 10.5831 18.1065 10.9442C18.2537 11.3053 18.4745 11.5912 18.7837 11.8169C19.0928 12.0275 19.4903 12.1328 19.9613 12.1328C20.1822 12.1328 20.3882 12.1178 20.6091 12.0726C20.8299 12.0275 21.0212 11.9824 21.2126 11.9071V10.5681H19.7258V9.69543H22.2872V12.4789C21.9192 12.6594 21.5365 12.7948 21.1243 12.8851C20.7121 12.9754 20.3146 13.0205 19.9172 13.0205C19.24 13.0205 18.6806 12.8851 18.1949 12.6143Z" fill="black"/>
<path d="M26.1806 12.9287C26.1364 12.7331 26.1217 12.5225 26.107 12.2818C25.9303 12.4924 25.7243 12.6579 25.4446 12.8084C25.1796 12.9588 24.8704 13.019 24.5171 13.019C24.2375 13.019 23.9872 12.9588 23.7664 12.8535C23.5456 12.7482 23.3542 12.5827 23.2217 12.357C23.0892 12.1313 23.0156 11.8605 23.0156 11.5445C23.0156 11.0631 23.1776 10.6869 23.5161 10.4011C23.8547 10.1152 24.4141 9.97979 25.1943 9.97979C25.4887 9.97979 25.7831 9.99484 26.0628 10.04V9.9497C26.0628 9.51338 25.9745 9.21247 25.7979 9.03192C25.6212 8.85137 25.3562 8.7611 25.0177 8.7611C24.7821 8.7611 24.5319 8.79119 24.2669 8.86642C24.0019 8.94165 23.7664 9.01687 23.5603 9.12219L23.3836 8.30973C23.575 8.21946 23.84 8.12919 24.1638 8.05396C24.4877 7.97873 24.8263 7.93359 25.1796 7.93359C25.5918 7.93359 25.9451 7.99378 26.2395 8.12919C26.5339 8.2646 26.7547 8.47523 26.9166 8.79119C27.0786 9.10715 27.1669 9.52842 27.1669 10.055V12.0109C27.1669 12.2216 27.1816 12.5225 27.1963 12.9287H26.1806ZM25.5329 12.0109C25.7684 11.9056 25.9451 11.7552 26.0923 11.5897V10.6719C25.7979 10.6418 25.5476 10.6268 25.3562 10.6268C24.8999 10.6268 24.5908 10.702 24.4141 10.8524C24.2375 11.0029 24.1491 11.1985 24.1491 11.4543C24.1491 11.695 24.208 11.8755 24.3405 11.9959C24.473 12.1163 24.6349 12.1764 24.8557 12.1764C25.0765 12.1915 25.2973 12.1313 25.5329 12.0109Z" fill="black"/>
<path d="M28.0039 11.7592V5.9516L29.0937 5.86133V11.5636C29.0937 11.7742 29.1231 11.9247 29.1968 12.015C29.2704 12.1052 29.3735 12.1504 29.5355 12.1504C29.6091 12.1504 29.6975 12.1353 29.83 12.1052L29.9625 12.9177C29.8595 12.9628 29.7269 12.9929 29.5797 13.023C29.4324 13.0531 29.2851 13.0682 29.1526 13.0682C28.3868 13.023 28.0039 12.6018 28.0039 11.7592Z" fill="black"/>
<path d="M30.7656 11.7592V5.9516L31.8554 5.86133V11.5636C31.8554 11.7742 31.8848 11.9247 31.9585 12.015C32.0321 12.1052 32.1352 12.1504 32.2972 12.1504C32.3708 12.1504 32.4592 12.1353 32.5917 12.1052L32.7242 12.9177C32.6212 12.9628 32.4886 12.9929 32.3414 13.023C32.1941 13.0531 32.0468 13.0682 31.9143 13.0682C31.1485 13.023 30.7656 12.6018 30.7656 11.7592Z" fill="black"/>
<path d="M37.2262 10.6203H34.0759C34.1201 11.6434 34.6059 12.17 35.5186 12.17C35.7394 12.17 35.9749 12.1399 36.2104 12.0797C36.446 12.0196 36.6668 11.9443 36.8876 11.8541L37.1231 12.6214C36.5785 12.8922 35.9749 13.0276 35.3125 13.0276C34.7972 13.0276 34.3703 12.9223 34.017 12.7267C33.6638 12.5311 33.3988 12.2452 33.2221 11.8691C33.0455 11.493 32.9572 11.0566 32.9572 10.53C32.9572 9.9884 33.0455 9.52199 33.2369 9.1308C33.4282 8.73962 33.6785 8.4387 34.017 8.22807C34.3556 8.01743 34.7384 7.91211 35.18 7.91211C35.6363 7.91211 36.0191 8.01743 36.3135 8.24311C36.6226 8.45375 36.8434 8.75466 36.9906 9.11576C37.1378 9.47685 37.2115 9.88308 37.2115 10.3194V10.6203H37.2262ZM36.1516 9.91317C36.1368 9.52199 36.0338 9.22108 35.8571 9.02548C35.6805 8.82989 35.4597 8.72457 35.1653 8.72457C34.8856 8.72457 34.65 8.82989 34.4734 9.02548C34.282 9.22108 34.1643 9.52199 34.1054 9.89813H36.1516V9.91317Z" fill="black"/>
<path d="M38.0216 9.24256C38.0216 8.97174 38.0069 8.56551 37.9922 8.00882H39.0226C39.0374 8.14423 39.0521 8.30973 39.0668 8.50533C39.0815 8.70092 39.0962 8.85137 39.0962 8.97174C39.2287 8.7611 39.3465 8.58055 39.479 8.4301C39.5967 8.27964 39.744 8.15928 39.9059 8.069C40.0678 7.97873 40.2592 7.93359 40.4653 7.93359C40.6419 7.93359 40.7744 7.94864 40.9069 7.99378L40.7744 8.97174C40.6714 8.94165 40.5536 8.9266 40.4211 8.9266C40.1561 8.9266 39.9353 8.98678 39.744 9.12219C39.5526 9.2576 39.3465 9.48329 39.1257 9.7842V12.9438H38.0363V9.24256H38.0216Z" fill="black"/>
<path d="M41.5381 14.9536C41.3762 14.9235 41.2437 14.8934 41.1406 14.8483L41.3467 14.0358C41.4203 14.0509 41.5086 14.0809 41.6264 14.096C41.7442 14.111 41.8472 14.1261 41.9503 14.1261C42.4361 14.1261 42.8041 13.8101 43.0396 13.1632L43.1132 12.9826L41.3467 8.03262H42.5244L43.4224 10.801C43.5696 11.2674 43.6579 11.6436 43.702 11.8843C43.7904 11.5232 43.8787 11.1772 43.9965 10.8161L44.8944 8.01758H45.9985L44.232 12.9977C44.0701 13.4641 43.8787 13.8553 43.6873 14.1411C43.496 14.427 43.2604 14.6376 43.0102 14.7881C42.7452 14.9235 42.4361 14.9987 42.0533 14.9987C41.8767 14.9987 41.7 14.9837 41.5381 14.9536Z" fill="black"/>
<path d="M0.152344 0.0605469H2.11099L2.05208 0.542005H0.726683V1.47483H1.97845V1.9262H0.726683V2.96434H2.12572L2.08154 3.4458H0.152344V0.0605469Z" fill="black"/>
<path d="M3.46554 1.72865L2.43508 0.0585938H3.08279L3.78939 1.27728L4.52544 0.0585938H5.15843L4.12797 1.69856L5.23204 3.45889H4.5696L3.77468 2.11984L2.96503 3.45889H2.33203L3.46554 1.72865Z" fill="black"/>
<path d="M5.65625 0.0585938H6.55458C6.98165 0.0585938 7.30564 0.148867 7.52654 0.329414C7.74744 0.509961 7.86525 0.765735 7.86525 1.09674C7.86525 1.32242 7.82107 1.51801 7.71799 1.68352C7.6149 1.84902 7.48236 1.98443 7.29091 2.0747C7.11419 2.16497 6.90802 2.21011 6.67239 2.21011C6.53985 2.21011 6.39259 2.19506 6.23059 2.16497V3.45889H5.65625V0.0585938ZM7.09947 1.5782C7.21728 1.45783 7.27619 1.30738 7.27619 1.09674C7.27619 0.8861 7.21728 0.735644 7.08474 0.645371C6.96693 0.555097 6.77548 0.509961 6.53985 0.509961H6.23059V1.71361C6.37786 1.7437 6.48095 1.7437 6.55458 1.7437C6.80493 1.7437 6.98165 1.68352 7.09947 1.5782Z" fill="black"/>
<path d="M8.46484 0.0585938H9.03918V2.96239H10.4235L10.3793 3.45889H8.47957V0.0585938H8.46484Z" fill="black"/>
<path d="M11.2469 3.29498C10.9966 3.15957 10.82 2.94893 10.6875 2.69316C10.555 2.43738 10.4961 2.13647 10.4961 1.79042C10.4961 1.42933 10.5697 1.11337 10.7022 0.842552C10.8347 0.571732 11.0408 0.361094 11.291 0.225684C11.556 0.0752279 11.8504 0 12.2037 0C12.5423 0 12.822 0.0752278 13.0722 0.210638C13.3078 0.346048 13.4991 0.556686 13.6316 0.812461C13.7641 1.06824 13.823 1.36915 13.823 1.70015C13.823 2.06124 13.7494 2.3772 13.6169 2.64802C13.4844 2.91884 13.2783 3.12948 13.0281 3.26489C12.7778 3.41534 12.4687 3.49057 12.1301 3.49057C11.7768 3.50562 11.4824 3.43039 11.2469 3.29498ZM12.7337 2.8737C12.8956 2.76838 13.0134 2.61793 13.1017 2.42234C13.1753 2.22674 13.2194 2.00106 13.2194 1.76033C13.2194 1.5196 13.19 1.29392 13.1164 1.11337C13.0428 0.91778 12.9397 0.767324 12.7778 0.662005C12.6159 0.541641 12.4245 0.496504 12.1743 0.496504C11.9387 0.496504 11.7474 0.556686 11.5854 0.662005C11.4235 0.78237 11.3057 0.932825 11.2174 1.12842C11.1291 1.32401 11.0996 1.53465 11.0996 1.77538C11.0996 2.01611 11.1438 2.24179 11.2174 2.43738C11.291 2.63298 11.4088 2.78343 11.5707 2.9038C11.7326 3.02416 11.924 3.0693 12.1595 3.0693C12.3804 3.03921 12.5717 2.99407 12.7337 2.8737Z" fill="black"/>
<path d="M14.4766 0.0585938H15.5222C15.905 0.0585938 16.1849 0.133822 16.391 0.284277C16.5972 0.434733 16.6856 0.660416 16.6856 0.946282C16.6856 1.12683 16.6561 1.29233 16.5825 1.42774C16.5088 1.56315 16.4205 1.68352 16.3174 1.75874C16.2143 1.84902 16.1112 1.9092 15.9934 1.95434L17.0243 3.45889H16.3468L15.478 2.10479H15.0509V3.45889H14.4766V0.0585938ZM15.3749 1.66847C15.5074 1.66847 15.64 1.63838 15.7431 1.5782C15.8461 1.51801 15.9345 1.44279 15.9934 1.33747C16.0523 1.23215 16.0818 1.11178 16.0818 0.991419C16.0818 0.825917 16.0229 0.690508 15.9198 0.61528C15.8167 0.540052 15.6547 0.494915 15.4632 0.494915H15.0509V1.65342H15.3749V1.66847Z" fill="black"/>
<path d="M17.4805 0.0585938H19.4391L19.3802 0.540052H18.0548V1.47288H19.3066V1.92424H18.0548V2.96239H19.4538L19.4097 3.44385H17.4805V0.0585938Z" fill="black"/>
<path d="M21.5312 0.0585938H22.1056V3.45889H21.5312V0.0585938Z" fill="black"/>
<path d="M23.6359 0.547286H22.6055L22.6496 0.0507812H25.2405L25.1816 0.547286H24.1953V3.46613H23.6212V0.547286H23.6359Z" fill="black"/>
<path d="M27.743 3.29498C27.4927 3.15957 27.316 2.94893 27.1836 2.69316C27.0511 2.43738 26.9922 2.13647 26.9922 1.79042C26.9922 1.42933 27.0658 1.11337 27.1983 0.842552C27.3308 0.571732 27.5369 0.361094 27.7871 0.225684C28.0521 0.0752279 28.3465 0 28.6998 0C29.0384 0 29.3181 0.0752278 29.5683 0.210638C29.8039 0.346048 29.9952 0.556686 30.1277 0.812461C30.2602 1.06824 30.3191 1.36915 30.3191 1.70015C30.3191 2.06124 30.2455 2.3772 30.113 2.64802C29.9805 2.91884 29.7744 3.12948 29.5242 3.26489C29.2739 3.41534 28.9648 3.49057 28.6262 3.49057C28.2729 3.50562 27.9785 3.43039 27.743 3.29498ZM29.2298 2.8737C29.3917 2.76838 29.5095 2.61793 29.5978 2.42234C29.6714 2.22674 29.7156 2.00106 29.7156 1.76033C29.7156 1.5196 29.6861 1.29392 29.6125 1.11337C29.5389 0.91778 29.4359 0.767324 29.2739 0.662005C29.112 0.541641 28.9206 0.496504 28.6704 0.496504C28.4348 0.496504 28.2435 0.556686 28.0815 0.662005C27.9196 0.78237 27.8018 0.932825 27.7135 1.12842C27.6252 1.32401 27.5957 1.53465 27.5957 1.77538C27.5957 2.01611 27.6399 2.24179 27.7135 2.43738C27.7871 2.63298 27.9049 2.78343 28.0668 2.9038C28.2287 3.02416 28.4201 3.0693 28.6556 3.0693C28.8617 3.03921 29.0678 2.99407 29.2298 2.8737Z" fill="black"/>
<path d="M30.9766 0.0605469H31.639L33.2877 2.69352C33.273 2.43775 33.273 2.21206 33.273 2.00142V0.0605469H33.8029V3.46084H33.17L31.4918 0.782734C31.5065 1.08365 31.5212 1.35447 31.5212 1.59519V3.46084H30.9913V0.0605469H30.9766Z" fill="black"/>
</svg>
