<svg width="50" height="50" viewBox="0 0 50 50" fill="none" xmlns="http://www.w3.org/2000/svg">
<path fill-rule="evenodd" clip-rule="evenodd" d="M8 0C3.58172 0 0 3.58172 0 8V42C0 46.4183 3.58172 50 8 50H42C46.4183 50 50 46.4183 50 42V8C50 3.58172 46.4183 0 42 0H8ZM15.04 13.2L26.03 14.87C26.88 15.01 27.5 15.74 27.5 16.6V37H23.25V31.75C23.25 30.78 22.47 30 21.5 30H19C18.03 30 17.25 30.78 17.25 31.75V37H14C13.45 37 13 36.55 13 36V14.93C13 14.42 13.23 13.93 13.62 13.59C14.01 13.26 14.53 13.12 15.04 13.2ZM17 27.75H18.5C18.6989 27.75 18.8897 27.671 19.0303 27.5303C19.171 27.3897 19.25 27.1989 19.25 27C19.25 26.8011 19.171 26.6103 19.0303 26.4697C18.8897 26.329 18.6989 26.25 18.5 26.25H17C16.8011 26.25 16.6103 26.329 16.4697 26.4697C16.329 26.6103 16.25 26.8011 16.25 27C16.25 27.1989 16.329 27.3897 16.4697 27.5303C16.6103 27.671 16.8011 27.75 17 27.75ZM17 24.75H18.5C18.6989 24.75 18.8897 24.671 19.0303 24.5303C19.171 24.3897 19.25 24.1989 19.25 24C19.25 23.8011 19.171 23.6103 19.0303 23.4697C18.8897 23.329 18.6989 23.25 18.5 23.25H17C16.8011 23.25 16.6103 23.329 16.4697 23.4697C16.329 23.6103 16.25 23.8011 16.25 24C16.25 24.1989 16.329 24.3897 16.4697 24.5303C16.6103 24.671 16.8011 24.75 17 24.75ZM17 21.75H18.5C18.6989 21.75 18.8897 21.671 19.0303 21.5303C19.171 21.3897 19.25 21.1989 19.25 21C19.25 20.8011 19.171 20.6103 19.0303 20.4697C18.8897 20.329 18.6989 20.25 18.5 20.25H17C16.8011 20.25 16.6103 20.329 16.4697 20.4697C16.329 20.6103 16.25 20.8011 16.25 21C16.25 21.1989 16.329 21.3897 16.4697 21.5303C16.6103 21.671 16.8011 21.75 17 21.75ZM17 18.75H18.5C18.6989 18.75 18.8897 18.671 19.0303 18.5303C19.171 18.3897 19.25 18.1989 19.25 18C19.25 17.8011 19.171 17.6103 19.0303 17.4697C18.8897 17.329 18.6989 17.25 18.5 17.25H17C16.8011 17.25 16.6103 17.329 16.4697 17.4697C16.329 17.6103 16.25 17.8011 16.25 18C16.25 18.1989 16.329 18.3897 16.4697 18.5303C16.6103 18.671 16.8011 18.75 17 18.75ZM22 27.75H23.5C23.6989 27.75 23.8897 27.671 24.0303 27.5303C24.171 27.3897 24.25 27.1989 24.25 27C24.25 26.8011 24.171 26.6103 24.0303 26.4697C23.8897 26.329 23.6989 26.25 23.5 26.25H22C21.8011 26.25 21.6103 26.329 21.4697 26.4697C21.329 26.6103 21.25 26.8011 21.25 27C21.25 27.1989 21.329 27.3897 21.4697 27.5303C21.6103 27.671 21.8011 27.75 22 27.75ZM22 24.75H23.5C23.6989 24.75 23.8897 24.671 24.0303 24.5303C24.171 24.3897 24.25 24.1989 24.25 24C24.25 23.8011 24.171 23.6103 24.0303 23.4697C23.8897 23.329 23.6989 23.25 23.5 23.25H22C21.8011 23.25 21.6103 23.329 21.4697 23.4697C21.329 23.6103 21.25 23.8011 21.25 24C21.25 24.1989 21.329 24.3897 21.4697 24.5303C21.6103 24.671 21.8011 24.75 22 24.75ZM22 21.75H23.5C23.6989 21.75 23.8897 21.671 24.0303 21.5303C24.171 21.3897 24.25 21.1989 24.25 21C24.25 20.8011 24.171 20.6103 24.0303 20.4697C23.8897 20.329 23.6989 20.25 23.5 20.25H22C21.8011 20.25 21.6103 20.329 21.4697 20.4697C21.329 20.6103 21.25 20.8011 21.25 21C21.25 21.1989 21.329 21.3897 21.4697 21.5303C21.6103 21.671 21.8011 21.75 22 21.75ZM22 18.75H23.5C23.6989 18.75 23.8897 18.671 24.0303 18.5303C24.171 18.3897 24.25 18.1989 24.25 18C24.25 17.8011 24.171 17.6103 24.0303 17.4697C23.8897 17.329 23.6989 17.25 23.5 17.25H22C21.8011 17.25 21.6103 17.329 21.4697 17.4697C21.329 17.6103 21.25 17.8011 21.25 18C21.25 18.1989 21.329 18.3897 21.4697 18.5303C21.6103 18.671 21.8011 18.75 22 18.75ZM28.5 22.351L35.62 23.842C36.437 24.023 37 24.726 37 25.552V35.25C37 36.215 36.215 37 35.25 37H28.5V22.351ZM31.75 34H33.25C33.4489 34 33.6397 33.921 33.7803 33.7803C33.921 33.6397 34 33.4489 34 33.25C34 33.0511 33.921 32.8603 33.7803 32.7197C33.6397 32.579 33.4489 32.5 33.25 32.5H31.75C31.5511 32.5 31.3603 32.579 31.2197 32.7197C31.079 32.8603 31 33.0511 31 33.25C31 33.4489 31.079 33.6397 31.2197 33.7803C31.3603 33.921 31.5511 34 31.75 34ZM31.75 31H33.25C33.4489 31 33.6397 30.921 33.7803 30.7803C33.921 30.6397 34 30.4489 34 30.25C34 30.0511 33.921 29.8603 33.7803 29.7197C33.6397 29.579 33.4489 29.5 33.25 29.5H31.75C31.5511 29.5 31.3603 29.579 31.2197 29.7197C31.079 29.8603 31 30.0511 31 30.25C31 30.4489 31.079 30.6397 31.2197 30.7803C31.3603 30.921 31.5511 31 31.75 31ZM31.75 28H33.25C33.4489 28 33.6397 27.921 33.7803 27.7803C33.921 27.6397 34 27.4489 34 27.25C34 27.0511 33.921 26.8603 33.7803 26.7197C33.6397 26.579 33.4489 26.5 33.25 26.5H31.75C31.5511 26.5 31.3603 26.579 31.2197 26.7197C31.079 26.8603 31 27.0511 31 27.25C31 27.4489 31.079 27.6397 31.2197 27.7803C31.3603 27.921 31.5511 28 31.75 28Z" fill="#00262F" fill-opacity="0.6"/>
</svg>
