<svg width="50" height="50" viewBox="0 0 50 50" fill="none" xmlns="http://www.w3.org/2000/svg">
<path fill-rule="evenodd" clip-rule="evenodd" d="M8 0C3.58172 0 0 3.58172 0 8V42C0 46.4183 3.58172 50 8 50H42C46.4183 50 50 46.4183 50 42V8C50 3.58172 46.4183 0 42 0H8ZM16 16C16 14.3431 17.3431 13 19 13H31C32.6569 13 34 14.3431 34 16V34C34 35.6569 32.6569 37 31 37H19C17.3431 37 16 35.6569 16 34V16ZM18.25 18C18.25 17.5858 18.5858 17.25 19 17.25H27C27.4142 17.25 27.75 17.5858 27.75 18C27.75 18.4142 27.4142 18.75 27 18.75H19C18.5858 18.75 18.25 18.4142 18.25 18ZM19 20.25C18.5858 20.25 18.25 20.5858 18.25 21C18.25 21.4142 18.5858 21.75 19 21.75H28C28.4142 21.75 28.75 21.4142 28.75 21C28.75 20.5858 28.4142 20.25 28 20.25H19ZM18.25 24C18.25 23.5858 18.5858 23.25 19 23.25H26C26.4142 23.25 26.75 23.5858 26.75 24C26.75 24.4142 26.4142 24.75 26 24.75H19C18.5858 24.75 18.25 24.4142 18.25 24Z" fill="#00262F" fill-opacity="0.6"/>
</svg>
