<svg width="50" height="50" viewBox="0 0 50 50" fill="none" xmlns="http://www.w3.org/2000/svg">
<path fill-rule="evenodd" clip-rule="evenodd" d="M8 0C3.58172 0 0 3.58172 0 8V42C0 46.4183 3.58172 50 8 50H42C46.4183 50 50 46.4183 50 42V8C50 3.58172 46.4183 0 42 0H8ZM21.6096 19.8697C22.6124 19.1912 23.7913 18.8291 24.9974 18.8291C25.7982 18.8291 26.5912 18.9888 27.3311 19.2991C28.0709 19.6095 28.7432 20.0643 29.3094 20.6376C29.8757 21.211 30.3249 21.8917 30.6313 22.6409C30.9377 23.39 31.0954 24.1929 31.0954 25.0038C31.0954 26.2249 30.7377 27.4186 30.0676 28.434C29.3975 29.4493 28.4451 30.2407 27.3308 30.7079C26.2166 31.1752 24.9905 31.2974 23.8076 31.0592C22.6247 30.8209 21.5382 30.2328 20.6854 29.3693C19.8326 28.5058 19.2518 27.4056 19.0166 26.2079C18.7813 25.0102 18.9021 23.7688 19.3636 22.6406C19.8252 21.5124 20.6068 20.5481 21.6096 19.8697ZM24.9612 27.7477L28.5728 23.4818C28.6545 23.3851 28.7166 23.2733 28.7555 23.1524C28.7945 23.0315 28.8095 22.9039 28.7998 22.7771C28.7901 22.6503 28.7558 22.5267 28.6989 22.4133C28.6419 22.2999 28.5635 22.1989 28.4681 22.1162C28.3726 22.0335 28.262 21.9707 28.1426 21.9312C28.0232 21.8918 27.8972 21.8766 27.772 21.8864C27.6467 21.8963 27.5246 21.931 27.4126 21.9886C27.3006 22.0463 27.2009 22.1257 27.1193 22.2223L24.1875 25.6854L22.8606 24.1892C22.7765 24.0946 22.6747 24.0176 22.5612 23.9628C22.4478 23.9079 22.3247 23.8763 22.1991 23.8696C22.0735 23.8629 21.9479 23.8813 21.8293 23.9238C21.7107 23.9662 21.6016 24.032 21.5081 24.1171C21.4147 24.2023 21.3387 24.3053 21.2845 24.4202C21.2303 24.5351 21.199 24.6597 21.1924 24.7869C21.1858 24.9141 21.204 25.0413 21.246 25.1613C21.2879 25.2814 21.3528 25.3919 21.4369 25.4865L23.4914 27.8035C23.5854 27.9089 23.7011 27.9921 23.8303 28.0473C23.9595 28.1025 24.0991 28.1283 24.2392 28.123C24.3793 28.1177 24.5166 28.0813 24.6413 28.0164C24.7661 27.9516 24.8753 27.8598 24.9612 27.7477ZM35.5158 22.3004C35.7487 22.5939 35.9023 22.9436 35.9616 23.3153C36.0314 23.685 36.0051 24.0667 35.8854 24.4231C35.7657 24.7795 35.5566 25.0983 35.2786 25.3482L34.9352 25.6662C34.5731 25.9957 34.3304 26.4384 34.2459 26.9238C34.1614 27.4092 34.2399 27.9093 34.4688 28.3442L34.6842 28.7619C34.8558 29.0947 34.9416 29.466 34.9338 29.8413C34.9259 30.2167 34.8246 30.5839 34.6392 30.909C34.4538 31.2342 34.1903 31.5066 33.8732 31.7012C33.5561 31.8957 33.1956 32.0061 32.8251 32.022L32.3604 32.0419C31.8739 32.0586 31.4069 32.2398 31.034 32.5567C30.6611 32.8735 30.4037 33.3077 30.303 33.7899L30.2028 34.25C30.1229 34.6166 29.953 34.9569 29.7087 35.2393C29.4644 35.5217 29.1536 35.737 28.8052 35.8654C28.4568 35.9938 28.082 36.0311 27.7156 35.9737C27.3492 35.9164 27.003 35.7663 26.7091 35.5374L26.3403 35.2501C25.957 34.9462 25.4842 34.7811 24.9974 34.7811C24.5106 34.7811 24.0378 34.9462 23.6545 35.2501L23.2857 35.5374C22.9918 35.7663 22.6457 35.9164 22.2792 35.9738C21.9128 36.0311 21.538 35.9939 21.1896 35.8655C20.8412 35.7371 20.5304 35.5217 20.2861 35.2393C20.0418 34.9569 19.8719 34.6166 19.7921 34.25L19.6919 33.7899C19.5912 33.3077 19.3338 32.8735 18.9609 32.5567C18.588 32.2399 18.121 32.0587 17.6345 32.0419L17.1696 32.022C16.7992 32.0061 16.4387 31.8957 16.1216 31.7012C15.8045 31.5066 15.541 31.2341 15.3556 30.909C15.1702 30.5839 15.0689 30.2166 15.0611 29.8413C15.0532 29.4659 15.1391 29.0946 15.3107 28.7619L15.526 28.3443C15.755 27.9093 15.8335 27.4093 15.7489 26.9239C15.6644 26.4385 15.4217 25.9957 15.0597 25.6663L14.7161 25.3484C14.4425 25.0951 14.2364 24.7759 14.117 24.4205C13.9977 24.0651 13.9689 23.6849 14.0333 23.3152C14.0977 22.9455 14.2532 22.5982 14.4855 22.3056C14.7178 22.013 15.0193 21.7845 15.362 21.6413L15.7922 21.4615C16.2437 21.2773 16.6212 20.9452 16.8646 20.5184C17.108 20.0915 17.2031 19.5944 17.1349 19.1064L17.0735 18.6393C17.0247 18.2672 17.0694 17.8886 17.2036 17.5386C17.3378 17.1886 17.557 16.8786 17.841 16.6373C18.1251 16.396 18.4647 16.2312 18.8284 16.1582C19.1921 16.0852 19.5681 16.1063 19.9216 16.2196L20.3652 16.3617C20.828 16.5145 21.3281 16.506 21.7855 16.3374C22.243 16.1688 22.6315 15.8499 22.889 15.4317L23.1385 15.0341C23.3373 14.7172 23.6119 14.4563 23.9369 14.2755C24.2619 14.0947 24.6266 13.9999 24.9974 13.9999C25.3682 13.9999 25.733 14.0947 26.058 14.2755C26.3829 14.4563 26.6575 14.7172 26.8564 15.0341L27.1058 15.4317C27.3634 15.8499 27.7518 16.1688 28.2092 16.3374C28.6666 16.506 29.1666 16.5146 29.6295 16.3619L30.0734 16.2196C30.4268 16.1063 30.8028 16.0851 31.1665 16.1581C31.5302 16.2311 31.8698 16.3959 32.1539 16.6372C32.4379 16.8785 32.6572 17.1885 32.7914 17.5384C32.9256 17.8884 32.9703 18.267 32.9215 18.6391L32.8602 19.1063C32.792 19.5943 32.8872 20.0914 33.1305 20.5182C33.3739 20.9451 33.7514 21.2771 34.2029 21.4613L34.633 21.641C34.9787 21.7797 35.2829 22.0069 35.5158 22.3004ZM21.1528 30.8293C22.2908 31.5993 23.6287 32.0102 24.9974 32.0102C26.8327 32.0101 28.5927 31.272 29.8905 29.958C31.1882 28.6441 31.9173 26.862 31.9175 25.0038C31.9175 23.618 31.5117 22.2632 30.7514 21.111C29.991 19.9587 28.9103 19.0606 27.6458 18.5302C26.3813 17.9998 24.9899 17.861 23.6475 18.1314C22.3052 18.4017 21.0721 19.069 20.1043 20.0489C19.1365 21.0288 18.4774 22.2773 18.2103 23.6364C17.9433 24.9956 18.0803 26.4045 18.6041 27.6848C19.1278 28.9651 20.0148 30.0594 21.1528 30.8293Z" fill="#00262F" fill-opacity="0.6"/>
</svg>
