<svg width="50" height="50" viewBox="0 0 50 50" fill="none" xmlns="http://www.w3.org/2000/svg">
<path fill-rule="evenodd" clip-rule="evenodd" d="M8 0C3.58172 0 0 3.58172 0 8V42C0 46.4183 3.58172 50 8 50H42C46.4183 50 50 46.4183 50 42V8C50 3.58172 46.4183 0 42 0H8ZM29.5125 21.6077C29.3708 20.241 28.5927 19.0636 27.483 18.3679C27.5123 16.4495 29.0743 14.9019 30.9999 14.9013C32.944 14.9013 34.5197 16.4771 34.5197 18.4212C34.5197 20.365 32.944 21.9408 30.9999 21.9408C30.4856 21.9403 29.9778 21.8266 29.5125 21.6077ZM28.6969 22.0549C28.6969 23.9987 27.1212 25.5748 25.177 25.5748C23.2332 25.5748 21.6565 23.999 21.6565 22.0552C21.6565 20.1113 23.2332 18.5353 25.177 18.5353C27.1209 18.5353 28.6969 20.111 28.6969 22.0549ZM23.6833 25.8147H26.6701C29.1551 25.8147 31.1769 27.8367 31.176 30.3218V33.9749H31.1508L30.9157 34.0938C30.7974 34.154 28.8775 35.0984 25.5652 35.0984C23.8693 35.0984 21.809 34.8513 19.4374 34.1103L19.1858 34.0315L19.1766 33.9743V30.3218C19.1766 27.8367 21.1983 25.8147 23.6833 25.8147ZM29.5298 22.181H32.4935C34.9783 22.181 37 24.2027 37 26.6875V30.3412H36.9748L36.7397 30.4604C36.6286 30.5161 34.9423 31.3455 32.0161 31.4527V30.3271C32.0161 27.9077 30.3999 25.8593 28.191 25.2025C29.0185 24.4114 29.4997 23.3253 29.5298 22.181ZM20.8727 21.3981C20.33 21.7404 19.6893 21.9414 19.0007 21.9414C17.0563 21.9414 15.4809 20.3653 15.4809 18.4221C15.4809 16.4779 17.0563 14.9022 19.0007 14.9022C20.944 14.9022 22.52 16.4779 22.52 18.4221C22.52 18.4686 22.517 18.5145 22.5139 18.5605C22.5126 18.5802 22.5112 18.6 22.5101 18.6198C21.629 19.3023 21.043 20.2966 20.8727 21.3981ZM20.8239 22.1978C20.8584 23.3361 21.3389 24.4152 22.1618 25.2025C19.9523 25.8599 18.3367 27.9077 18.3361 30.3271V31.4303C16.8613 31.344 15.1634 31.0702 13.2609 30.4763L13.0093 30.3969L13 30.3406V26.6875C13 24.2027 15.0217 22.181 17.5068 22.181H20.4932C20.5972 22.181 20.6984 22.1885 20.8003 22.196C20.8082 22.1966 20.816 22.1972 20.8239 22.1978Z" fill="#00262F" fill-opacity="0.6"/>
</svg>
