<svg width="50" height="50" viewBox="0 0 50 50" fill="none" xmlns="http://www.w3.org/2000/svg">
<path fill-rule="evenodd" clip-rule="evenodd" d="M8 0C3.58172 0 0 3.58172 0 8V42C0 46.4183 3.58172 50 8 50H42C46.4183 50 50 46.4183 50 42V8C50 3.58172 46.4183 0 42 0H8ZM27.2823 15.275C27.4738 15.0917 27.7465 14.9532 28.0117 14.9532C28.3636 14.9532 28.903 15.0419 29.5742 15.2655C30.6549 15.6256 31.7423 16.2456 32.7305 17.2331C33.7186 18.2207 34.3389 19.3074 34.6992 20.3875C34.9229 21.0583 35.0117 21.5974 35.0117 21.9491C35.0117 22.2142 34.918 22.48 34.7305 22.6675C33.2143 24.1832 32.1386 24.7022 30.2897 24.1602C29.329 25.3082 29.0117 26.3992 29.0117 27.9452C29.0117 30.3772 28.7325 31.6602 27.7305 32.6612H27.6992C26.7619 33.5982 25.2615 33.5982 24.3242 32.6612L21.5193 29.8702L16.7305 34.6602C16.3399 35.0512 15.6835 35.0512 15.2929 34.6602C14.9024 34.2702 14.9315 33.6152 15.322 33.2252L20.0931 28.4562L17.2929 25.6342C16.3557 24.6982 16.3557 23.1982 17.2929 22.2614V22.2302C18.2945 21.2293 19.7665 20.9575 22.021 20.9575C23.6702 20.9575 24.5046 20.709 25.8257 19.6964C25.2595 17.9978 25.7337 16.7578 27.2823 15.275Z" fill="#00262F" fill-opacity="0.6"/>
</svg>
