<svg width="18" height="6" viewBox="0 0 18 6" fill="none" xmlns="http://www.w3.org/2000/svg">
<path d="M13.0157 0.361191C12.6035 0.213143 12.1681 0.138493 11.7298 0.140671C10.3143 0.140671 9.31399 0.851173 9.3079 1.86798C9.29627 2.61533 10.017 3.03657 10.5617 3.28844C11.1214 3.54635 11.3085 3.70693 11.3057 3.9357C11.303 4.2882 10.8585 4.44548 10.4494 4.44548C9.88085 4.44548 9.57251 4.36849 9.09699 4.17051L8.9204 4.08748L8.7189 5.26211C9.06488 5.40234 9.68488 5.52553 10.3248 5.53707C11.8327 5.53707 12.8159 4.83262 12.827 3.74652C12.8386 3.15095 12.4527 2.69892 11.6307 2.32607C11.1347 2.08575 10.8241 1.92188 10.8241 1.67551C10.8241 1.45774 11.0893 1.22897 11.6429 1.22897C12.0102 1.21983 12.3755 1.28707 12.7151 1.42639L12.8508 1.48634L13.0495 0.355142L13.0157 0.361191ZM16.6953 0.238008H15.5882C15.2422 0.238008 14.9853 0.329845 14.8325 0.670798L12.7046 5.46229H14.2098L14.5131 4.67754L16.3493 4.68029C16.3953 4.86342 16.5248 5.46174 16.5248 5.46174H17.8539L16.6953 0.238008ZM7.26965 0.195114H8.70285L7.80606 5.42159H6.37286L7.26965 0.192364V0.195114ZM3.62549 3.07342L3.77218 3.80097L5.17604 0.238008H6.6956L4.43481 5.45349H2.9219L1.6819 1.03705C1.6724 1.00036 1.65547 0.965983 1.63215 0.936011C1.60884 0.906039 1.57962 0.881102 1.54627 0.862721C1.10086 0.632583 0.628357 0.458386 0.139648 0.344143L0.156809 0.234709H2.46908C2.78074 0.246257 3.03427 0.344143 3.12063 0.676297L3.62549 3.07617V3.07342ZM14.9217 3.60904L15.4957 2.14569C15.4869 2.15944 15.6136 1.84489 15.6856 1.64691L15.7836 2.0962L16.1157 3.60574H14.9217V3.60904Z" fill="#00262F"/>
</svg>
