<svg width="22" height="24" viewBox="0 0 22 24" fill="none" xmlns="http://www.w3.org/2000/svg">
<path d="M11.5544 0.0199997C12.9366 0 14.3082 0.00999987 15.6799 0C15.7643 1.52998 16.3446 3.08996 17.5263 4.16995C18.7081 5.27993 20.3751 5.78993 22 5.95993V9.98987C20.4806 9.93987 18.9507 9.63988 17.5685 9.01989C16.9671 8.75989 16.4079 8.42989 15.8593 8.0899C15.8487 11.0099 15.8698 13.9298 15.8382 16.8398C15.7537 18.2398 15.2684 19.6298 14.4138 20.7797C13.0316 22.6997 10.6365 23.9497 8.17806 23.9897C6.66925 24.0697 5.16044 23.6797 3.87321 22.9597C1.74188 21.7697 0.243627 19.5898 0.0220536 17.2498C0.000951386 16.7498 -0.00959971 16.2498 0.0115025 15.7598C0.201422 13.8598 1.19323 12.0398 2.73369 10.7999C4.48517 9.35988 6.93302 8.66989 9.22261 9.07989C9.24372 10.5599 9.18041 12.0398 9.18041 13.5198C8.13585 13.1998 6.91192 13.2898 5.99398 13.8898C5.32926 14.2998 4.82281 14.9298 4.55903 15.6398C4.33745 16.1498 4.40076 16.7098 4.41131 17.2498C4.66454 18.8898 6.33161 20.2697 8.1042 20.1197C9.28592 20.1097 10.4149 19.4598 11.0269 18.5098C11.2273 18.1798 11.4489 17.8398 11.4594 17.4498C11.565 15.6598 11.5228 13.8798 11.5333 12.0898C11.5439 8.0599 11.5228 4.03995 11.5544 0.0199997Z" fill="white" fill-opacity="0.5"/>
</svg>
