<svg width="31" height="27" viewBox="0 0 31 27" fill="none" xmlns="http://www.w3.org/2000/svg">
<g filter="url(#filter0_dd_432_2051)">
<path d="M8.66835 1.22852C5.50235 1.22852 2.85535 3.86085 2.85535 7.00712V17.3207C2.85535 20.466 5.50335 23.0983 8.66835 23.0983H23.0433C26.2073 23.0983 28.8554 20.466 28.8554 17.3197V7.00712C28.8554 3.86184 26.2073 1.22852 23.0423 1.22852H8.66835ZM8.66835 3.21668H23.0433C25.0784 3.21668 26.8554 4.98317 26.8554 7.00712V8.1871H20.8553C20.3003 8.1871 19.8553 7.74473 19.8553 7.19301C19.8553 6.6413 20.3003 6.19893 20.8553 6.19893C21.1206 6.19893 21.3749 6.0942 21.5625 5.90777C21.75 5.72134 21.8553 5.46849 21.8553 5.20485C21.8553 4.9412 21.75 4.68835 21.5625 4.50192C21.3749 4.3155 21.1206 4.21076 20.8553 4.21076C19.2103 4.21076 17.8553 5.55775 17.8553 7.19301C17.8553 8.47737 18.6993 9.57285 19.8553 9.98937V14.928C18.6573 15.7372 17.8553 17.0951 17.8553 18.625C17.8553 19.5425 18.1483 20.3954 18.6363 21.1102H13.0753C13.5808 20.3786 13.8527 19.5125 13.8553 18.625C13.8553 17.0961 13.0533 15.7372 11.8553 14.928V9.98837C13.0113 9.57285 13.8553 8.47737 13.8553 7.19301C13.8553 5.55775 12.5003 4.21076 10.8553 4.21076H8.85535C8.82403 4.2093 8.79266 4.2093 8.76135 4.21076C8.73036 4.20933 8.69933 4.20933 8.66835 4.21076C8.40313 4.23542 8.15863 4.36379 7.98863 4.56765C7.81862 4.77151 7.73705 5.03415 7.76185 5.29779C7.78664 5.56144 7.91578 5.8045 8.12085 5.97349C8.32593 6.14249 8.59013 6.22358 8.85535 6.19893H10.8553C11.4103 6.19893 11.8553 6.6413 11.8553 7.19301C11.8553 7.74473 11.4103 8.1871 10.8553 8.1871H4.85535V7.00612C4.85535 4.98317 6.63235 3.21668 8.66835 3.21668ZM4.85535 10.1753H9.85535V14.1516H4.85535V10.1753ZM21.8553 10.1753H26.8554V14.1516H21.8553V10.1753ZM4.85535 16.1398H9.35535C10.6943 16.1398 11.8553 17.2939 11.8553 18.625C11.8553 19.956 10.6943 21.1102 9.35535 21.1102H8.66735C6.63235 21.1102 4.85535 19.3437 4.85535 17.3197V16.1398ZM22.3553 16.1398H26.8554V17.3207C26.8554 19.3437 25.0784 21.1102 23.0423 21.1102H22.3553C21.0163 21.1102 19.8553 19.956 19.8553 18.625C19.8553 17.2939 21.0163 16.1398 22.3553 16.1398Z" fill="url(#paint0_linear_432_2051)"/>
</g>
<defs>
<filter id="filter0_dd_432_2051" x="0.862612" y="0.18233" width="29.9855" height="25.8556" filterUnits="userSpaceOnUse" color-interpolation-filters="sRGB">
<feFlood flood-opacity="0" result="BackgroundImageFix"/>
<feColorMatrix in="SourceAlpha" type="matrix" values="0 0 0 0 0 0 0 0 0 0 0 0 0 0 0 0 0 0 127 0" result="hardAlpha"/>
<feOffset dy="0.374267"/>
<feGaussianBlur stdDeviation="0.393965"/>
<feColorMatrix type="matrix" values="0 0 0 0 0 0 0 0 0 0 0 0 0 0 0 0 0 0 0.0775046 0"/>
<feBlend mode="normal" in2="BackgroundImageFix" result="effect1_dropShadow_432_2051"/>
<feColorMatrix in="SourceAlpha" type="matrix" values="0 0 0 0 0 0 0 0 0 0 0 0 0 0 0 0 0 0 127 0" result="hardAlpha"/>
<feOffset dy="0.946549"/>
<feGaussianBlur stdDeviation="0.996367"/>
<feColorMatrix type="matrix" values="0 0 0 0 0 0 0 0 0 0 0 0 0 0 0 0 0 0 0.110927 0"/>
<feBlend mode="normal" in2="effect1_dropShadow_432_2051" result="effect2_dropShadow_432_2051"/>
<feBlend mode="normal" in="SourceGraphic" in2="effect2_dropShadow_432_2051" result="shape"/>
</filter>
<linearGradient id="paint0_linear_432_2051" x1="15.8553" y1="1.22852" x2="15.8553" y2="23.0983" gradientUnits="userSpaceOnUse">
<stop stop-color="#EECA7B"/>
<stop offset="1" stop-color="#DDB762"/>
</linearGradient>
</defs>
</svg>
