<svg width="24" height="24" viewBox="0 0 24 24" fill="none" xmlns="http://www.w3.org/2000/svg">
<g id="Frame">
<g id="Group">
<path id="Vector" fill-rule="evenodd" clip-rule="evenodd" d="M12 1.25C17.933 1.25 22.75 6.067 22.75 12C22.75 17.933 17.933 22.75 12 22.75C6.067 22.75 1.25 17.933 1.25 12C1.25 6.067 6.067 1.25 12 1.25ZM12 2.75C6.895 2.75 2.75 6.895 2.75 12C2.75 17.105 6.895 21.25 12 21.25C17.105 21.25 21.25 17.105 21.25 12C21.25 6.895 17.105 2.75 12 2.75Z" fill="#DDB762"/>
<path id="Vector_2" d="M12 17.625C12.5523 17.625 13 17.1773 13 16.625C13 16.0727 12.5523 15.625 12 15.625C11.4477 15.625 11 16.0727 11 16.625C11 17.1773 11.4477 17.625 12 17.625Z" fill="#DDB762"/>
<path id="Vector_3" fill-rule="evenodd" clip-rule="evenodd" d="M10.75 7.625L11.25 13.625C11.25 13.8239 11.329 14.0147 11.4697 14.1553C11.6103 14.296 11.8011 14.375 12 14.375C12.1989 14.375 12.3897 14.296 12.5303 14.1553C12.671 14.0147 12.75 13.8239 12.75 13.625L13.25 7.625C13.25 7.211 13 6.375 12 6.375C11 6.375 10.75 7.211 10.75 7.625Z" fill="#DDB762"/>
</g>
</g>
</svg>
