<svg width="16" height="16" viewBox="0 0 16 16" fill="none" xmlns="http://www.w3.org/2000/svg">
<g id="location-sign-svgrepo-com 1">
<g id="Group">
<path id="Vector" d="M8.00027 0C4.93871 0 2.448 2.49108 2.448 5.55271C2.448 8.4998 7.48567 15.3852 7.70017 15.6768L7.90035 15.9493C7.92377 15.9813 7.96104 16 8.00027 16C8.04009 16 8.07713 15.9813 8.10078 15.9493L8.30085 15.6768C8.51547 15.3852 13.553 8.4998 13.553 5.55271C13.553 2.49108 11.0619 0 8.00027 0ZM8.00027 3.56374C9.09723 3.56374 9.98924 4.45579 9.98924 5.55271C9.98924 6.64907 9.09719 7.54168 8.00027 7.54168C6.90395 7.54168 6.01129 6.64907 6.01129 5.55271C6.01129 4.45579 6.90391 3.56374 8.00027 3.56374Z" fill="#DDB762"/>
</g>
</g>
</svg>
