<svg width="117" height="56" viewBox="0 0 117 56" fill="none" xmlns="http://www.w3.org/2000/svg">
<g id="mainLogo" clip-path="url(#clip0_622_21545)">
<g id="Clip path group">
<mask id="mask0_622_21545" style="mask-type:luminance" maskUnits="userSpaceOnUse" x="0" y="0" width="117" height="56">
<g id="clip0_11_16510">
<path id="Vector" d="M116.386 0H0.613525V55.6004H116.386V0Z" fill="white"/>
</g>
</mask>
<g mask="url(#mask0_622_21545)">
<g id="Group">
<path id="Vector_2" d="M96.9757 29.6994C96.9225 29.5675 96.8955 29.462 96.8423 29.3301L96.9757 29.6994Z" fill="#00262F"/>
<path id="Vector_3" d="M97.2156 15.667L97.5076 16.3L98.1196 16.3792L97.6672 16.8539L97.7736 17.5397L97.2156 17.2231L96.6837 17.5397L96.7901 16.8539L96.3376 16.3792L96.9496 16.3L97.2156 15.667Z" fill="#DDB762"/>
<path id="Vector_4" d="M99.7133 16.96L99.8458 17.2764L100.165 17.3292L99.926 17.5665L99.9792 17.9094L99.7133 17.7512L99.4474 17.9094L99.5006 17.5665L99.2878 17.3292L99.5799 17.2764L99.7133 16.96Z" fill="#DDB762"/>
<path id="Vector_5" d="M94.5834 16.96L94.7168 17.2764L95.035 17.3292L94.7961 17.5665L94.8493 17.9094L94.5834 17.7512L94.3175 17.9094L94.3707 17.5665L94.158 17.3292L94.4509 17.2764L94.5834 16.96Z" fill="#DDB762"/>
<path id="Vector_6" fill-rule="evenodd" clip-rule="evenodd" d="M97.3219 19.7031C99.6349 19.7031 101.496 20.5999 101.496 21.7077C101.496 21.9978 101.363 22.288 101.124 22.5254C100.911 21.9187 100.352 21.523 99.927 21.312C99.1292 20.9165 98.1458 20.7582 97.2949 20.7582C96.444 20.7582 95.4867 20.8901 94.6628 21.312C94.2373 21.523 93.6785 21.8923 93.4658 22.5254C93.2269 22.288 93.0935 21.9978 93.0935 21.7077C93.1467 20.5999 95.0081 19.7031 97.3219 19.7031Z" fill="#00262F"/>
<path id="Vector_7" fill-rule="evenodd" clip-rule="evenodd" d="M97.3226 18.6211C99.6888 18.6211 101.603 19.5179 101.603 20.6257C101.603 20.7575 101.577 20.863 101.55 20.9685C101.205 20.0191 99.4499 19.3069 97.3488 19.3069C95.2485 19.3069 93.4935 20.0191 93.1483 20.9685C93.0951 20.863 93.0951 20.7312 93.0951 20.6257C93.0419 19.5443 94.9556 18.6211 97.3226 18.6211Z" fill="#DDB762"/>
<path id="Vector_8" fill-rule="evenodd" clip-rule="evenodd" d="M94.3977 29.2246C94.6636 29.4884 94.9295 29.5675 95.1954 29.5675V30.4906C94.8763 30.0686 94.6104 29.6202 94.3977 29.2246Z" fill="#DDB762"/>
<path id="Vector_9" fill-rule="evenodd" clip-rule="evenodd" d="M100.751 22.5775V23.3161C100.672 23.2897 100.591 23.2897 100.512 23.3161C100.432 23.3425 100.379 23.3952 100.352 23.4743C100.325 23.5007 100.325 23.5271 100.325 23.5535V26.7713C100.033 27.1669 99.7674 27.6153 99.4745 28.0638V23.8963C99.4745 23.5535 99.2888 23.2897 99.0491 23.2897C98.8101 23.2897 98.6236 23.5535 98.6236 23.8963V29.3825C98.3045 29.8573 98.0124 30.2529 97.7727 30.5695V23.8963C97.7727 23.5535 97.587 23.2897 97.3472 23.2897C97.1083 23.2897 96.9218 23.5535 96.9218 23.8963V31.3871C96.6297 31.519 96.3368 31.4662 96.0709 31.3079V23.8963C96.0709 23.5535 95.8852 23.2897 95.6454 23.2897C95.4065 23.2897 95.22 23.5535 95.22 23.8963V29.1715C94.9009 29.1715 94.635 29.0132 94.3691 28.7758V23.5535C94.3429 23.3688 94.1301 23.237 93.9436 23.3161V22.5775C94.3429 21.839 95.7256 21.2852 97.3742 21.2852C98.9427 21.2852 100.325 21.839 100.751 22.5775Z" fill="#DDB762"/>
<path id="Vector_10" fill-rule="evenodd" clip-rule="evenodd" d="M105.566 21.1533C103.864 22.2875 102.135 24.1602 100.301 26.7714C100.008 27.1671 99.7421 27.6154 99.45 28.0638C99.3436 28.2221 99.2373 28.4067 99.1309 28.565C98.9443 28.8551 98.7586 29.1453 98.5991 29.3826C98.28 29.8573 97.9871 30.253 97.7482 30.5695C97.5616 30.7805 97.4021 30.9652 97.2695 31.1234C97.1362 31.2553 97.0298 31.3344 96.8973 31.3872C96.6043 31.5191 96.3123 31.4663 96.0463 31.3081C95.7534 31.1234 95.4613 30.8333 95.1954 30.4904C94.8763 30.0684 94.6104 29.62 94.3977 29.2244C94.6636 29.4882 94.9295 29.5673 95.1954 29.5673C95.4875 29.5673 95.7804 29.4354 96.0463 29.2244C96.3384 29.0134 96.6313 28.7232 96.8973 28.4067C97.083 28.1957 97.2425 27.9583 97.4021 27.7737C97.5084 27.6154 97.6418 27.4572 97.7482 27.299C98.0403 26.9297 98.3062 26.5604 98.5991 26.2175C98.8912 25.8746 99.1571 25.5317 99.45 25.2416C99.7421 24.9251 100.035 24.635 100.301 24.3448C102.135 22.5777 103.89 21.4962 105.566 21.1533Z" fill="#DDB762"/>
<path id="Vector_11" fill-rule="evenodd" clip-rule="evenodd" d="M96.4717 28.4596C96.3122 28.6178 96.1788 28.7233 96.0463 28.8288C95.7272 29.0662 95.4613 29.1454 95.1953 29.1454C94.8763 29.1454 94.6103 28.9871 94.3444 28.7497C93.4935 27.9849 92.8283 26.3495 91.7385 26.244C92.5624 25.2418 93.4665 24.978 94.3444 25.5847C94.6365 25.7693 94.9294 26.0594 95.1953 26.455C95.2485 26.5341 95.3017 26.5869 95.3549 26.6924C95.5676 27.0353 95.8065 27.431 96.0463 27.8266C96.1788 28.0376 96.3122 28.2749 96.4717 28.4596Z" fill="#DDB762"/>
<path id="Vector_12" d="M80.4361 32.0733C79.7713 32.0733 79.2396 31.7831 78.8939 31.2293C78.8407 31.1502 78.8141 31.1502 78.7875 31.1238C78.5482 31.071 78.3621 30.8864 78.3355 30.6754C78.2823 30.438 78.3886 30.2006 78.5748 30.0423C78.7077 29.9368 78.8407 29.8841 78.9736 29.8577C78.9736 29.8313 79.0002 29.8049 79.0268 29.7258C79.6118 27.6949 80.1702 25.6639 80.7552 23.633L81.2338 21.9714C81.2604 21.8658 81.2604 21.8131 81.2604 21.8131C81.2604 21.8131 81.2604 21.7867 81.2338 21.7603C81.0477 21.5757 80.9413 21.3119 80.9413 21.0482C80.9413 20.7316 81.0742 20.4415 81.287 20.2306C81.4731 20.0459 81.739 19.9668 82.0048 19.9668C82.2977 19.9668 82.5636 20.0723 82.7493 20.2833C82.962 20.4943 83.0954 20.8108 83.0684 21.1009C83.0684 21.3647 82.9359 21.6285 82.7231 21.8131C82.6961 21.8395 82.6961 21.8395 82.6961 21.8395C82.6961 21.8395 82.6961 21.8658 82.7231 21.945C83.255 23.7649 83.7598 25.5848 84.2916 27.4047C84.2916 27.4047 84.6639 28.7236 84.717 28.8555C84.7972 29.172 84.9036 29.4884 84.9829 29.8313C85.0893 29.8577 85.2489 29.8841 85.3552 29.9896C85.4346 30.0423 85.6473 30.2533 85.6211 30.5435C85.6211 30.7809 85.4084 31.0183 85.1695 31.0974C85.1425 31.0974 85.1163 31.1238 85.0361 31.2557C84.717 31.7568 84.2122 32.0469 83.6002 32.0469C83.3875 32.0469 83.1748 32.0469 82.989 32.0469C82.962 32.0733 80.702 32.0733 80.4361 32.0733ZM80.4892 29.6994C80.5158 29.6994 80.5424 29.6994 80.569 29.6994C80.8083 29.6994 81.0211 29.6731 81.2604 29.6731C81.2604 28.7499 81.2604 27.8531 81.2604 26.93L80.4892 29.6994ZM82.6699 29.6731C82.8827 29.6731 83.1216 29.6731 83.3613 29.6731H83.4677L82.6699 26.8773C82.6699 27.8004 82.6699 28.7499 82.6699 29.6731Z" fill="#00262F"/>
<path id="Vector_13" d="M106.974 21.7072V18.3838" stroke="#DDB762" stroke-width="0.529081" stroke-miterlimit="10"/>
<path id="Vector_14" d="M116.387 18.0411V54.1497C116.387 54.2288 116.36 54.3079 116.307 54.3607C116.228 54.4662 116.068 54.4925 115.935 54.4398C115.908 54.4398 115.881 54.4134 115.855 54.4134C115.589 54.3079 115.35 54.176 115.111 54.0441C114.924 53.9387 114.711 53.8332 114.526 53.7013C113.622 53.121 112.744 52.3825 111.973 51.5121L111.947 51.4858C111.894 51.4066 111.813 51.3275 111.76 51.2747C111.149 50.5626 110.59 49.7713 110.112 48.9009C110.058 48.7954 109.979 48.6635 109.926 48.558C109.42 47.6348 109.022 46.659 108.676 45.6039C108.596 45.3929 108.543 45.1819 108.49 44.9708C108.118 43.6257 107.878 42.2278 107.799 40.8035C107.799 40.6452 107.772 40.4869 107.772 40.3551C107.772 40.1968 107.772 40.065 107.772 39.9067V18.0411C107.772 16.8015 107.506 15.5881 107.001 14.5068C105.432 11.0251 101.576 8.54576 97.0829 8.54576C92.6156 8.54576 88.7865 10.9987 87.1911 14.454C86.6863 15.5618 86.3934 16.7751 86.3934 18.0147V38.5088C86.3934 39.432 87.1379 40.1705 88.069 40.1705H91.2861C92.0306 40.1705 92.6418 39.5638 92.6418 38.8253V35.6865C92.6418 35.502 92.8014 35.3437 92.9879 35.3437H102.002C102.188 35.3437 102.347 35.502 102.347 35.6865V48.3734C102.347 48.558 102.188 48.7163 102.002 48.7163H100.46H78.124C77.9379 48.7163 77.7783 48.558 77.7783 48.3734V18.0411C77.7783 13.1615 79.8257 8.57214 83.5485 5.16967C87.1911 1.84631 91.9775 0 97.0829 0C102.188 0 106.974 1.84631 110.617 5.16967C114.339 8.59852 116.387 13.1615 116.387 18.0411Z" fill="#DDB762"/>
<path id="Vector_15" d="M110.616 32.0733C109.951 32.0733 109.419 31.7831 109.073 31.2293C109.02 31.1501 108.994 31.1502 108.967 31.1238C108.728 31.071 108.542 30.8864 108.515 30.6754C108.462 30.438 108.569 30.2006 108.755 30.0423C108.888 29.9368 109.02 29.8841 109.154 29.8577C109.154 29.8313 109.18 29.8049 109.207 29.7258C109.818 27.563 110.43 25.4265 111.041 23.2637L111.413 21.9977C111.44 21.8922 111.44 21.8395 111.44 21.8395C111.44 21.8395 111.44 21.8131 111.413 21.7867C111.228 21.6021 111.121 21.3383 111.121 21.0745C111.121 20.758 111.254 20.4679 111.467 20.2569C111.653 20.0723 111.919 19.9932 112.185 19.9932C112.477 19.9932 112.743 20.0986 112.929 20.3096C113.142 20.5206 113.249 20.8371 113.249 21.1273C113.249 21.3911 113.115 21.6548 112.902 21.8395C112.876 21.8658 112.876 21.8658 112.876 21.8658C112.876 21.8658 112.876 21.8922 112.902 21.9713C113.381 23.6594 113.887 25.3738 114.365 27.0618L114.764 28.4598L114.87 28.8291C114.977 29.172 115.057 29.5148 115.163 29.8577C115.269 29.8841 115.429 29.9104 115.535 30.0159C115.615 30.0687 115.827 30.2797 115.801 30.5699C115.801 30.8073 115.589 31.0446 115.349 31.1238C115.323 31.1238 115.296 31.1502 115.216 31.282C114.897 31.7831 114.392 32.0733 113.78 32.0733C113.568 32.0733 113.355 32.0733 113.168 32.0733C113.168 32.0733 110.882 32.0733 110.616 32.0733ZM110.669 29.6994C110.696 29.6994 110.722 29.6994 110.749 29.6994C110.988 29.6994 111.201 29.673 111.44 29.673C111.44 28.7499 111.44 27.8531 111.44 26.93L110.669 29.6994ZM112.849 29.673C113.062 29.673 113.302 29.673 113.541 29.673H113.647C113.381 28.7499 113.115 27.8004 112.849 26.8773C112.849 27.8004 112.849 28.7499 112.849 29.673Z" fill="#00262F"/>
<g id="Mask group">
<mask id="mask1_622_21545" style="mask-type:luminance" maskUnits="userSpaceOnUse" x="108" y="19" width="8" height="14">
<g id="Group_2">
<path id="Vector_16" d="M115.83 19.9932H108.518V32.0733H115.83V19.9932Z" fill="white"/>
</g>
</mask>
<g mask="url(#mask1_622_21545)">
<g id="Group_3">
<path id="Vector_17" d="M110.619 32.0733C109.954 32.0733 109.423 31.7831 109.077 31.2293C109.023 31.1501 108.997 31.1502 108.97 31.1238C108.731 31.071 108.545 30.8864 108.519 30.6754C108.465 30.438 108.572 30.2006 108.757 30.0423C108.891 29.9368 109.023 29.8841 109.157 29.8577C109.157 29.8313 109.183 29.8049 109.21 29.7258C109.821 27.563 110.433 25.4265 111.044 23.2637L111.417 21.9977C111.444 21.8922 111.444 21.8395 111.444 21.8395C111.444 21.8395 111.444 21.8131 111.417 21.7867C111.231 21.6021 111.124 21.3383 111.124 21.0745C111.124 20.758 111.257 20.4679 111.47 20.2569C111.656 20.0723 111.922 19.9932 112.188 19.9932C112.48 19.9932 112.746 20.0986 112.933 20.3096C113.145 20.5206 113.252 20.8371 113.252 21.1273C113.252 21.3911 113.118 21.6548 112.906 21.8395C112.879 21.8658 112.879 21.8658 112.879 21.8658C112.879 21.8658 112.879 21.8922 112.906 21.9713C113.384 23.6594 113.89 25.3738 114.369 27.0618L114.767 28.4598L114.873 28.8291C114.98 29.172 115.06 29.5148 115.166 29.8577C115.273 29.8841 115.432 29.9104 115.539 30.0159C115.618 30.0687 115.831 30.2797 115.804 30.5699C115.804 30.8073 115.592 31.0446 115.352 31.1238C115.326 31.1238 115.299 31.1502 115.219 31.282C114.9 31.7831 114.395 32.0733 113.784 32.0733C113.571 32.0733 113.358 32.0733 113.172 32.0733C113.172 32.0733 110.885 32.0733 110.619 32.0733ZM110.672 29.6994C110.699 29.6994 110.725 29.6994 110.752 29.6994C110.991 29.6994 111.204 29.673 111.444 29.673C111.444 28.7499 111.444 27.8531 111.444 26.93L110.672 29.6994ZM112.852 29.673C113.065 29.673 113.305 29.673 113.544 29.673H113.65C113.384 28.7499 113.118 27.8004 112.852 26.8773C112.852 27.8004 112.852 28.7499 112.852 29.673Z" fill="#00262F"/>
</g>
</g>
</g>
<path id="Vector_18" d="M115.297 30.3326C115.244 30.2799 115.138 30.2535 115.058 30.2535C114.898 30.2271 114.819 30.148 114.766 29.9633C114.659 29.4886 114.5 29.0402 114.366 28.5655C113.755 26.4026 113.117 24.2398 112.505 22.077C112.452 21.866 112.426 21.7077 112.611 21.5231C112.904 21.2857 112.877 20.8637 112.611 20.6C112.372 20.3626 111.973 20.3362 111.734 20.5736C111.468 20.8109 111.415 21.2593 111.681 21.5231C111.894 21.7341 111.867 21.9187 111.787 22.1298C111.043 24.7146 110.324 27.2994 109.58 29.8579C109.527 30.0952 109.447 30.2535 109.154 30.2799C109.101 30.2799 109.022 30.3326 108.969 30.359C108.809 30.4909 108.835 30.7019 109.048 30.7547C109.208 30.8074 109.314 30.8865 109.394 31.0448C109.66 31.4932 110.059 31.6778 110.59 31.6778C111.096 31.6778 111.628 31.6778 112.133 31.6778C112.664 31.6778 113.223 31.6778 113.755 31.6778C114.234 31.6778 114.606 31.4668 114.872 31.0712C114.978 30.9129 115.058 30.8074 115.244 30.7547C115.324 30.7283 115.404 30.6491 115.404 30.57C115.404 30.4909 115.351 30.3854 115.297 30.3326ZM111.628 30.0689C111.229 30.0689 110.803 30.0952 110.405 30.1216C110.324 30.1216 110.245 30.1216 110.139 30.1216C110.724 28.0907 111.282 26.0861 111.841 24.0816H111.867C111.867 25.9806 111.867 27.906 111.867 29.8052C111.867 29.9897 111.841 30.0689 111.628 30.0689ZM112.585 30.0689C112.532 30.0689 112.479 29.9897 112.452 29.937C112.426 29.9107 112.452 29.8579 112.452 29.8052C112.452 27.8797 112.452 25.9279 112.479 23.9761C113.064 26.007 113.622 28.0379 114.207 30.0425C113.622 30.0689 113.117 30.0689 112.585 30.0689Z" fill="#00262F"/>
<g id="Mask group_2">
<mask id="mask2_622_21545" style="mask-type:luminance" maskUnits="userSpaceOnUse" x="78" y="19" width="8" height="14">
<g id="Group_4">
<path id="Vector_19" d="M85.621 19.9932H78.3088V32.0733H85.621V19.9932Z" fill="white"/>
</g>
</mask>
<g mask="url(#mask2_622_21545)">
<g id="Group_5">
<path id="Vector_20" d="M80.4361 32.0733C79.7713 32.0733 79.2396 31.7832 78.8939 31.2294C78.8407 31.1502 78.8141 31.1502 78.7875 31.1239C78.5482 31.0711 78.3621 30.8865 78.3355 30.6755C78.2823 30.4381 78.3886 30.2007 78.5748 30.0424C78.7077 29.9369 78.8407 29.8842 78.9736 29.8578C78.9736 29.8314 79.0002 29.805 79.0268 29.7259C79.6118 27.695 80.1702 25.664 80.7552 23.6331L81.2338 21.9714C81.2604 21.8659 81.2604 21.8132 81.2604 21.8132C81.2604 21.8132 81.2604 21.7868 81.2338 21.7604C81.0477 21.5758 80.9413 21.312 80.9413 21.0482C80.9413 20.7317 81.0742 20.4416 81.287 20.2306C81.4731 20.0459 81.739 19.9668 82.0048 19.9668C82.2977 19.9668 82.5636 20.0723 82.7493 20.2833C82.962 20.4943 83.0954 20.8109 83.0684 21.101C83.0684 21.3648 82.9359 21.6285 82.7231 21.8132C82.6961 21.8396 82.6961 21.8395 82.6961 21.8395C82.6961 21.8395 82.6961 21.8659 82.7231 21.9451C83.255 23.765 83.7598 25.5849 84.2916 27.4048C84.2916 27.4048 84.6639 28.7237 84.717 28.8555C84.7972 29.172 84.9036 29.4885 84.9829 29.8314C85.0893 29.8578 85.2489 29.8842 85.3552 29.9897C85.4346 30.0424 85.6473 30.2534 85.6211 30.5436C85.6211 30.781 85.4084 31.0184 85.1695 31.0975C85.1425 31.0975 85.1163 31.1239 85.0361 31.2557C84.717 31.7568 84.2122 32.047 83.6002 32.047C83.3875 32.047 83.1748 32.047 82.989 32.047C82.962 32.0733 80.702 32.0733 80.4361 32.0733ZM80.4892 29.6995C80.5158 29.6995 80.5424 29.6995 80.569 29.6995C80.8083 29.6995 81.0211 29.6731 81.2604 29.6731C81.2604 28.75 81.2604 27.8532 81.2604 26.93L80.4892 29.6995ZM82.6699 29.6731C82.8827 29.6731 83.1216 29.6731 83.3613 29.6731H83.4677L82.6699 26.8773C82.6699 27.8005 82.6699 28.75 82.6699 29.6731Z" fill="#00262F"/>
</g>
</g>
</g>
<path id="Vector_21" d="M85.0916 30.3326C85.0384 30.2799 84.9321 30.2535 84.8519 30.2535C84.6923 30.2271 84.613 30.148 84.5598 29.9633C84.4534 29.4886 84.2939 29.0402 84.1605 28.5655C83.5493 26.4026 82.9111 24.2398 82.2991 22.077C82.246 21.866 82.2198 21.7077 82.4055 21.5231C82.6984 21.2857 82.6714 20.8637 82.4055 20.6C82.1666 20.3626 81.7676 20.3362 81.5283 20.5736C81.2624 20.8109 81.2092 21.2593 81.4752 21.5231C81.6879 21.7341 81.6613 21.9187 81.5815 22.1298C80.837 24.7146 80.0924 27.2995 79.3746 29.8579C79.3214 30.0952 79.2416 30.2535 78.9491 30.2799C78.8959 30.2799 78.8161 30.3326 78.763 30.359C78.6034 30.4909 78.63 30.7019 78.8427 30.7547C79.0023 30.8074 79.1086 30.8865 79.1884 31.0448C79.4542 31.4932 79.8531 31.6778 80.3849 31.6778C80.8902 31.6778 81.422 31.6778 81.9269 31.6778C82.4587 31.6778 83.0175 31.6778 83.5493 31.6778C84.028 31.6778 84.4002 31.4668 84.6661 31.0712C84.7725 30.9129 84.8519 30.8074 85.0384 30.7547C85.1178 30.7283 85.198 30.6491 85.198 30.57C85.2241 30.4909 85.171 30.3854 85.0916 30.3326ZM81.4486 30.0689C81.0497 30.0689 80.6242 30.0952 80.2254 30.1216C80.1456 30.1216 80.0658 30.1216 79.9595 30.1216C80.5445 28.0907 81.1029 26.0861 81.6612 24.0816H81.6878C81.6878 25.9806 81.6878 27.906 81.6878 29.8052C81.6878 29.9897 81.6347 30.0689 81.4486 30.0689ZM82.4055 30.0689C82.3523 30.0689 82.2991 29.9897 82.273 29.937C82.246 29.9107 82.273 29.8579 82.273 29.8052C82.273 27.8797 82.273 25.9279 82.2991 23.9761C82.8841 26.007 83.443 28.0379 84.028 30.0425C83.443 30.0689 82.9373 30.0689 82.4055 30.0689Z" fill="#00262F"/>
<path id="Vector_22" d="M106.974 18.3838V21.7072C106.974 27.7736 107.027 31.6245 107.027 41.5154" stroke="#DDB762" stroke-width="0.529081" stroke-miterlimit="10"/>
<path id="Vector_23" d="M87.1902 18.2256V22.3138V38.2977C87.1902 38.9043 87.6426 39.4054 88.2538 39.4582C88.2808 39.4582 88.307 39.4582 88.307 39.4582H90.6208H91.3915H91.4185" stroke="#DDB762" stroke-width="0.529081" stroke-miterlimit="10"/>
<path id="Vector_24" d="M106.976 18.4366C106.976 17.0915 106.657 15.7463 105.992 14.5594C104.317 11.4734 101.046 9.36332 97.2966 9.25781C97.1902 9.25781 97.0838 9.25781 96.9775 9.25781C96.8711 9.25781 96.7647 9.25781 96.6592 9.25781C93.4413 9.36332 90.5965 10.9196 88.7883 13.2934C87.7246 14.7177 87.1396 16.4321 87.1396 18.2257V22.3139" stroke="#DDB762" stroke-width="0.529081" stroke-miterlimit="10"/>
<path id="Vector_25" d="M107.028 41.5156C107.028 43.7839 108.863 52.7254 116.043 55.3893" stroke="#DDB762" stroke-width="0.529081" stroke-miterlimit="10"/>
<path id="Vector_26" d="M30.7678 27.7734C31.2199 27.3514 31.6719 26.9031 32.1771 26.5074C32.7886 26.0063 33.5598 25.9007 34.198 26.3755C35.7401 27.5096 37.2292 27.1668 38.6651 26.2436C40.1541 25.2941 41.5633 24.2655 43.0258 23.3159C45.2328 21.8916 45.3125 21.8916 47.36 23.4742C47.4397 23.5269 47.5195 23.606 47.6259 23.6588C48.2906 24.1863 48.9819 24.2127 49.6201 23.6852C50.2849 23.1313 50.9496 22.5247 51.508 21.8653C53.0768 19.8871 53.0236 19.3595 50.9762 17.7506C50.3912 17.3022 50.4178 17.0121 50.923 16.5373C52.4918 15.113 54.2202 13.9261 56.3474 13.3722C58.5011 12.8183 60.0168 11.5786 61.2665 9.99609C61.6388 9.52131 62.4098 8.9674 61.8515 8.30806C61.2665 7.64864 60.4422 8.1498 59.8307 8.41357C54.9381 10.4181 50.6837 13.1612 47.8918 17.4869C47.5727 17.988 47.0143 18.3836 46.4825 18.7265C45.5519 19.3332 44.5414 19.8343 43.6108 20.4145C42.2281 21.285 40.872 22.2345 39.4627 23.1049C38.4257 23.7643 37.2823 23.8962 36.1124 23.3687C34.8361 22.8147 33.613 22.9466 32.443 23.606C31.8049 23.9489 31.1933 24.3182 30.5285 24.6347C29.9169 24.9248 29.2522 25.1886 28.5874 25.3468C24.9978 26.2436 22.4186 24.3446 22.8175 20.9684C23.1896 17.4605 23.8012 13.9788 24.2799 10.4973C24.5192 8.75646 24.7053 7.01562 24.8117 5.27481C24.8383 4.90555 24.4394 4.48353 24.2533 4.08789C23.9076 4.35165 23.4024 4.56266 23.2694 4.90555C22.6313 6.46172 21.9665 8.04427 21.5677 9.67957C21.0359 11.9479 20.7168 14.2426 20.2914 16.5373C19.8128 19.1749 19.3341 21.8389 18.8821 24.3446C19.1214 25.7161 19.2012 26.9558 19.5469 28.0899C20.5839 31.4661 24.6787 32.7321 27.7365 30.5957C28.8799 29.778 29.784 28.723 30.7678 27.7734Z" fill="#DDB762"/>
<path id="Vector_27" d="M27.3097 16.8802C28.2936 17.4077 29.2774 17.9352 30.2346 18.4891C30.8993 18.8847 31.4843 18.832 32.0427 18.3836C32.6809 17.8825 33.3456 17.3813 33.8508 16.7747C34.3826 16.1416 34.8347 16.1152 35.4994 16.5637C36.1376 17.0121 36.8821 17.355 37.5203 17.777C38.1584 18.1989 38.7434 18.1726 39.3284 17.777C39.5943 17.5924 39.8602 17.4077 40.126 17.2231C42.8914 15.0866 42.5457 13.5568 39.4613 12.0534C38.2913 11.4995 37.9723 11.5786 37.0682 12.449C36.2971 13.1876 35.4994 13.9261 34.9145 14.5327C33.5849 13.7414 32.548 13.0821 31.4577 12.5282C31.1652 12.3699 30.5005 12.4227 30.2612 12.6337C29.1444 13.5568 28.134 14.5855 27.097 15.5878C26.5386 16.0889 26.6183 16.5109 27.3097 16.8802Z" fill="#DDB762"/>
<path id="Vector_28" d="M63.3925 16.1945C61.9035 13.8998 59.1115 13.4514 56.9045 15.2185C56.4259 15.5878 56.0536 16.0626 55.6548 16.4846C55.1496 17.0384 55.256 17.4869 55.8941 17.9353C56.7716 18.5419 57.5959 19.2013 58.3935 19.8343C57.4629 20.5992 56.6386 21.2059 55.9207 21.918C55.123 22.6829 55.1762 22.9731 56.027 23.6588C56.7184 24.2127 57.4098 24.7666 58.101 25.3205C58.9254 26.0062 59.2444 26.0326 60.0688 25.3733C61.0525 24.6083 62.0098 23.817 62.9936 23.0786C63.7382 22.4983 63.8445 22.2345 63.1 21.6278C62.2226 20.8894 61.2387 20.2827 60.2282 19.5442C61.1057 18.8584 62.063 18.0935 63.0202 17.3286C63.4191 17.0121 63.7381 16.7219 63.3925 16.1945Z" fill="#DDB762"/>
<path id="Vector_29" d="M16.4085 16.1953C16.1692 16.037 15.5576 16.0898 15.3449 16.2744C14.8929 16.6436 14.5206 17.1448 14.2813 17.6459C13.5633 19.0438 12.9518 20.4682 12.2605 21.8924C11.383 23.7123 10.1865 25.2949 8.37828 26.4554C7.31472 27.1149 6.19793 27.6952 5.10774 28.3281C3.75166 29.093 2.39557 29.8052 1.06607 30.5964C0.826763 30.7283 0.56086 31.1504 0.61404 31.2822C0.74699 31.5196 1.11925 31.6515 1.46492 31.8889C3.75166 31.335 6.0118 30.8338 8.21873 30.2272C10.798 29.5151 12.6062 27.9325 13.5368 25.6115C14.6536 22.8156 15.6905 19.9934 16.701 17.1448C16.7808 16.8546 16.6212 16.3272 16.4085 16.1953Z" fill="#DDB762"/>
<path id="Vector_30" d="M12.339 12.4227C13.2962 12.9766 14.2269 13.5833 15.2107 14.1372C15.45 14.2691 15.7425 14.3218 15.9818 14.4273C16.2211 14.3746 16.4073 14.3482 16.5668 14.2691C17.7367 13.7152 18.694 12.9502 19.3322 11.8952C19.7842 11.1567 19.7842 10.3126 19.0397 9.78517C18.1622 9.15213 17.1784 8.65097 16.168 8.14981C15.9552 8.04433 15.4234 8.17618 15.2107 8.36082C14.1737 9.28401 13.2164 10.2599 12.2327 11.1831C11.754 11.6842 11.7274 12.0535 12.339 12.4227Z" fill="#DDB762"/>
<path id="Vector_31" d="M44.5408 9.7326C45.2322 9.4952 45.8704 9.25781 46.5085 9.07318C49.3536 8.28195 52.2253 7.51702 55.0705 6.75212C57.7561 6.0136 60.415 5.30145 63.1006 4.56293C63.7388 4.3783 64.377 4.19367 64.1908 3.27051C63.9781 3.27051 63.8717 3.24414 63.7654 3.27051C58.8196 4.61568 53.9005 5.93447 48.9813 7.27964C47.705 7.62253 46.4553 7.99179 45.2056 8.38746C44.6472 8.59847 44.0622 8.91491 44.5408 9.7326Z" fill="#DDB762"/>
<path id="Vector_32" d="M31.8584 9.1521C36.4585 7.88603 41.0851 6.61999 45.6852 5.38032C46.35 5.1957 46.935 5.01107 47.0413 4.03516C46.5095 4.11429 46.1373 4.16703 45.765 4.24616C42.6274 5.09019 39.4898 5.90784 36.3521 6.77825C33.7197 7.4904 31.0874 8.22891 28.455 8.96746C27.7636 9.1521 27.0456 9.38949 27.019 10.3917C27.3913 10.3654 27.7104 10.3917 28.0029 10.2862C29.2792 9.94333 30.5556 9.495 31.8584 9.1521Z" fill="#DDB762"/>
<path id="Vector_33" d="M5.42769 46.2374V42.0699L2.2103 37.0849C1.91781 36.6365 1.73168 36.2936 1.59873 36.0299C1.49237 35.7661 1.4126 35.5551 1.4126 35.3704C1.4126 35.0539 1.51896 34.7902 1.75827 34.5792C1.99758 34.3682 2.29006 34.2363 2.63574 34.2363C3.00799 34.2363 3.2739 34.3418 3.46002 34.5529C3.64616 34.7638 3.93864 35.1594 4.31091 35.7925L6.78377 39.7752L9.28321 35.7925C9.44276 35.5551 9.54912 35.3441 9.65549 35.1858C9.76185 35.0276 9.86821 34.8693 10.0012 34.7111C10.1341 34.5529 10.2671 34.4473 10.4 34.3682C10.5596 34.2891 10.7457 34.2627 10.9584 34.2627C11.304 34.2627 11.5699 34.3682 11.8093 34.5792C12.0486 34.7902 12.1549 35.0539 12.1549 35.3441C12.1549 35.5815 12.1018 35.8189 11.9954 36.0562C11.889 36.2936 11.6763 36.6102 11.4104 37.0321L8.08668 42.0699V46.2374C8.08668 46.7912 7.95373 47.1869 7.71442 47.4506C7.44852 47.7144 7.12945 47.8463 6.75718 47.8463C6.35834 47.8463 6.03925 47.7144 5.79994 47.4506C5.56063 47.1869 5.42769 46.7648 5.42769 46.2374Z" fill="#DDB762"/>
<path id="Vector_34" d="M18.509 45.657L16.3818 37.2959V46.3691C16.3818 46.8703 16.2754 47.2396 16.0361 47.5034C15.7968 47.767 15.5043 47.8725 15.132 47.8725C14.7598 47.8725 14.4673 47.7407 14.2546 47.5034C14.0153 47.266 13.9089 46.8703 13.9089 46.3691V35.9771C13.9089 35.3968 14.0685 35.0275 14.361 34.8165C14.6535 34.6055 15.0789 34.5264 15.5841 34.5264H16.4084C16.9136 34.5264 17.2593 34.5791 17.4985 34.6583C17.7113 34.7374 17.8974 34.922 18.0038 35.133C18.1101 35.3704 18.2431 35.7397 18.376 36.2672L20.2905 43.4678L22.205 36.2672C22.3379 35.7397 22.4709 35.3704 22.5772 35.133C22.6836 34.8956 22.8432 34.7374 23.0825 34.6583C23.2952 34.5791 23.6675 34.5264 24.1727 34.5264H24.9969C25.5022 34.5264 25.9276 34.6319 26.2201 34.8165C26.5126 35.0275 26.6721 35.3968 26.6721 35.9771V46.3691C26.6721 46.8703 26.5658 47.2396 26.3265 47.5034C26.0872 47.767 25.7947 47.8725 25.4224 47.8725C25.0767 47.8725 24.7842 47.7407 24.5449 47.5034C24.3057 47.2396 24.1993 46.8703 24.1993 46.3691V37.2959L22.072 45.657C21.9391 46.2109 21.8328 46.6065 21.7264 46.8439C21.6466 47.1077 21.4871 47.3187 21.2478 47.5296C21.0085 47.7407 20.6894 47.8462 20.2639 47.8462C19.9448 47.8462 19.679 47.767 19.4663 47.6352C19.2535 47.5034 19.094 47.3187 18.961 47.1077C18.8281 46.8967 18.7483 46.6593 18.6685 46.4219C18.6685 46.1845 18.5888 45.9207 18.509 45.657Z" fill="#DDB762"/>
<path id="Vector_35" d="M38.0516 36.6893H35.1267V46.2373C35.1267 46.7912 34.9938 47.1868 34.7545 47.4506C34.5151 47.7144 34.196 47.8463 33.7972 47.8463C33.3983 47.8463 33.0793 47.7144 32.8134 47.4506C32.5741 47.1868 32.4411 46.7648 32.4411 46.2373V36.6893H29.5162C29.0642 36.6893 28.7185 36.5838 28.5058 36.3991C28.2931 36.1881 28.1602 35.9243 28.1602 35.6078C28.1602 35.2649 28.2665 35.0012 28.5058 34.7901C28.7451 34.5791 29.0642 34.5 29.5162 34.5H38.0516C38.5036 34.5 38.8493 34.6055 39.0886 34.8165C39.3013 35.0275 39.4343 35.2913 39.4343 35.6078C39.4343 35.9243 39.3279 36.1881 39.0886 36.3991C38.8759 36.5838 38.5302 36.6893 38.0516 36.6893Z" fill="#DDB762"/>
<path id="Vector_36" d="M48.3423 46.1319L47.7041 44.4701H42.3064L41.6682 46.1582C41.4289 46.8176 41.2161 47.266 41.03 47.477C40.8439 47.7144 40.578 47.8199 40.1792 47.8199C39.8335 47.8199 39.541 47.688 39.2751 47.4506C39.0092 47.2132 38.8762 46.9231 38.8762 46.6066C38.8762 46.4219 38.9028 46.2374 38.956 46.0527C39.0092 45.8681 39.1155 45.6043 39.2485 45.2614L42.6255 36.7157C42.7318 36.4783 42.8382 36.1881 42.9711 35.8452C43.104 35.5023 43.2636 35.2122 43.3965 35.0012C43.5561 34.7638 43.7422 34.5792 44.0081 34.4473C44.2474 34.3155 44.5665 34.2363 44.9388 34.2363C45.311 34.2363 45.6301 34.3155 45.8694 34.4473C46.1087 34.5792 46.3214 34.7638 46.481 35.0012C46.6405 35.2386 46.7735 35.4496 46.8798 35.7133C46.9862 35.9771 47.1192 36.2936 47.2787 36.742L50.7354 45.2087C51.0013 45.8417 51.1342 46.3164 51.1342 46.6066C51.1342 46.9231 51.0013 47.1869 50.7619 47.4506C50.496 47.7144 50.2035 47.8199 49.8314 47.8199C49.6186 47.8199 49.4325 47.7935 49.2995 47.7144C49.14 47.6353 49.0336 47.5298 48.9273 47.3979C48.8209 47.266 48.7145 47.0813 48.6082 46.8176C48.5018 46.5538 48.422 46.3428 48.3423 46.1319ZM43.0242 42.4919H46.9862L44.992 37.0585L43.0242 42.4919Z" fill="#DDB762"/>
<path id="Vector_37" d="M52.8115 44.5492L59.6185 36.4782H53.7687C53.3698 36.4782 53.0507 36.3991 52.8381 36.2144C52.6253 36.0298 52.519 35.7924 52.519 35.5022C52.519 35.1857 52.6253 34.9483 52.8381 34.7637C53.0507 34.5791 53.3432 34.4736 53.7687 34.4736H61.2936C62.2774 34.4736 62.7561 34.922 62.7561 35.8188C62.7561 36.2408 62.6763 36.5837 62.5168 36.8474C62.3572 37.1111 62.0382 37.5068 61.533 38.0871L55.178 45.6306H62.1977C62.6231 45.6306 62.9156 45.7097 63.1283 45.8944C63.3411 46.0526 63.4474 46.29 63.4474 46.6065C63.4474 46.923 63.3411 47.1868 63.1283 47.3714C62.9156 47.556 62.6231 47.6615 62.1977 47.6615H53.5825C52.9975 47.6615 52.5456 47.5297 52.2531 47.2659C51.9606 47.0021 51.801 46.6592 51.801 46.2108C51.801 46.0526 51.8276 45.9208 51.8808 45.7889C51.934 45.657 51.9872 45.5515 52.0669 45.446C52.1467 45.3405 52.2531 45.1822 52.4126 45.0239C52.5988 44.8393 52.7051 44.6811 52.8115 44.5492Z" fill="#DDB762"/>
</g>
</g>
</g>
</g>
<defs>
<clipPath id="clip0_622_21545">
<rect width="117" height="56" fill="white"/>
</clipPath>
</defs>
</svg>
