<svg width="40" height="40" viewBox="0 0 40 40" fill="none" xmlns="http://www.w3.org/2000/svg">
<g id="Frame">
<g id="Group">
<path id="Vector" d="M30.552 14.1512C29.5236 12.226 28.0298 10.5896 26.1957 9.38724C24.0857 8.00446 21.6333 7.27344 19.1031 7.27344C12.8131 7.27344 7.48258 11.7722 6.34219 17.8816C2.71758 18.556 0 21.752 0 25.5418C0 29.8385 3.48359 33.334 7.76547 33.334H18.8281V23.4702L16.3452 25.9617C15.8874 26.4207 15.1455 26.4207 14.6878 25.9617C14.23 25.5023 14.23 24.7579 14.6878 24.2986L19.1714 19.7998C19.6289 19.3404 20.3708 19.3404 20.8285 19.7998L25.3122 24.2986C25.77 24.758 25.77 25.5023 25.3122 25.9617C25.2035 26.071 25.0744 26.1578 24.9322 26.2169C24.79 26.276 24.6376 26.3063 24.4837 26.3062C24.1837 26.3062 23.8837 26.1913 23.6548 25.9617L21.1719 23.4702V33.334H30.441C35.712 33.334 40 29.0313 40 23.7422C40 18.4904 35.7721 14.2109 30.552 14.1512Z" fill="#DDB762"/>
</g>
</g>
</svg>
