<svg width="20" height="20" viewBox="0 0 20 20" fill="none" xmlns="http://www.w3.org/2000/svg">
<g id="Frame">
<g id="Group">
<path id="Vector" d="M17.9677 8.94948L16.8344 7.63281C16.6177 7.38281 16.4427 6.91615 16.4427 6.58281V5.16615C16.4427 4.28281 15.7177 3.55781 14.8344 3.55781H13.4177C13.0927 3.55781 12.6177 3.38281 12.3677 3.16615L11.051 2.03281C10.476 1.54115 9.53437 1.54115 8.95104 2.03281L7.64271 3.17448C7.39271 3.38281 6.91771 3.55781 6.59271 3.55781H5.15104C4.26771 3.55781 3.54271 4.28281 3.54271 5.16615V6.59115C3.54271 6.91615 3.36771 7.38281 3.15937 7.63281L2.03437 8.95781C1.55104 9.53281 1.55104 10.4661 2.03437 11.0411L3.15937 12.3661C3.36771 12.6161 3.54271 13.0828 3.54271 13.4078V14.8328C3.54271 15.7161 4.26771 16.4411 5.15104 16.4411H6.59271C6.91771 16.4411 7.39271 16.6161 7.64271 16.8328L8.95937 17.9661C9.53437 18.4578 10.476 18.4578 11.0594 17.9661L12.376 16.8328C12.626 16.6161 13.0927 16.4411 13.426 16.4411H14.8427C15.726 16.4411 16.451 15.7161 16.451 14.8328V13.4161C16.451 13.0911 16.626 12.6161 16.8427 12.3661L17.976 11.0495C18.4594 10.4745 18.4594 9.52448 17.9677 8.94948ZM13.4677 8.42448L9.44271 12.4495C9.32552 12.5665 9.16667 12.6323 9.00104 12.6323C8.83542 12.6323 8.67656 12.5665 8.55937 12.4495L6.54271 10.4328C6.30104 10.1911 6.30104 9.79115 6.54271 9.54948C6.78437 9.30781 7.18437 9.30781 7.42604 9.54948L9.00104 11.1245L12.5844 7.54115C12.826 7.29948 13.226 7.29948 13.4677 7.54115C13.7094 7.78281 13.7094 8.18281 13.4677 8.42448Z" fill="#62AAFB"/>
</g>
</g>
</svg>
