<svg width="78" height="45" viewBox="0 0 78 45" fill="none" xmlns="http://www.w3.org/2000/svg">
<mask id="mask0_432_463" style="mask-type:luminance" maskUnits="userSpaceOnUse" x="0" y="0" width="78" height="45">
<path d="M78 0H0V45H78V0Z" fill="white"/>
</mask>
<g mask="url(#mask0_432_463)">
<path d="M72.8871 5.07584C69.8702 2.10994 65.8548 0.330598 61.5966 0.0726813C57.3387 -0.185235 53.1315 1.09606 49.7671 3.67543C46.695 1.32839 42.9154 0.0539749 39.0249 0.0532336C35.1344 0.0524924 31.3544 1.32547 28.2813 3.67133C24.7764 0.967035 20.354 -0.319866 15.917 0.0733568C11.4799 0.466578 7.36276 2.51027 4.4061 5.7872C1.44944 9.06414 -0.123784 13.3272 0.00761503 17.706C0.139014 22.0849 1.96512 26.2494 5.11314 29.3491L15.864 39.9221C15.8723 39.9301 15.8806 39.9378 15.89 39.9459C15.8994 39.9541 15.902 39.958 15.908 39.9639C15.9192 39.9749 15.9311 39.9848 15.9423 39.9958C16.1132 40.1622 16.2867 40.3241 16.4628 40.482C16.5533 40.5636 16.6449 40.6427 16.737 40.7223C16.8118 40.7862 16.8869 40.8497 16.9624 40.9124C20.027 43.4658 23.892 44.9046 27.9079 44.9865C31.9241 45.0686 35.8463 43.7892 39.0163 41.363C42.3806 43.9422 46.5878 45.2237 50.8457 44.9657C55.1039 44.7078 59.1193 42.9284 62.1363 39.9626L72.8874 29.391C76.1617 26.1642 78.0004 21.7918 78.0004 17.2334C78.0004 12.675 76.1615 8.30272 72.8871 5.07584ZM39.0215 4.53133C41.5776 4.52972 44.0767 5.27384 46.2024 6.66946C48.3284 8.06509 49.9852 10.0495 50.9636 12.3715C51.942 14.6936 52.1978 17.2488 51.6987 19.7139C51.1996 22.1789 49.968 24.443 48.1598 26.2194L39.0215 35.2051L29.8829 26.2194C28.0747 24.443 26.8431 22.1789 26.344 19.7138C25.8448 17.2487 26.1007 14.6934 27.0791 12.3714C28.0575 10.0494 29.7146 8.06496 31.8403 6.66936C33.9662 5.27376 36.4654 4.52967 39.0215 4.53133ZM15.3464 27.8054C15.3418 26.1358 15.674 24.482 16.3237 22.9396C16.9735 21.3971 17.9279 19.9967 19.1318 18.8195L21.564 16.4278C21.4463 18.8184 21.8386 21.2068 22.7158 23.4394C23.5931 25.6719 24.9358 27.6992 26.6575 29.391L35.609 38.1932C33.6782 39.523 31.4133 40.3062 29.0609 40.4572C26.7088 40.6082 24.3594 40.1215 22.2691 39.0499C20.1789 37.978 18.4279 36.3629 17.2071 34.3799C15.9863 32.3971 15.3425 30.1226 15.3459 27.8046L15.3464 27.8054ZM8.338 26.1772C6.05057 23.9285 4.70397 20.9179 4.56421 17.7403C4.42445 14.5627 5.50167 11.4491 7.58309 9.01455C9.66451 6.57998 12.5988 5.00153 15.8063 4.59098C19.0137 4.18042 22.2612 4.96765 24.9071 6.79712L15.9064 15.6476C14.2777 17.2405 12.9864 19.1352 12.1074 21.2221C11.2284 23.309 10.779 25.5466 10.7853 27.8054C10.7853 28.072 10.7917 28.3376 10.8043 28.6024L8.338 26.1772ZM49.7731 40.513C47.1327 40.5191 44.5547 39.7238 42.391 38.2357L51.3865 29.391C53.1083 27.6992 54.4508 25.6719 55.328 23.4393C56.2052 21.2068 56.5976 18.8184 56.4799 16.4278L58.9122 18.8195C60.7197 20.5968 61.9502 22.8612 62.4488 25.3263C62.9476 27.7913 62.6916 30.3465 61.7132 32.6686C60.735 34.9906 59.0785 36.9752 56.9533 38.3715C54.8278 39.7679 52.3292 40.513 49.7731 40.513ZM69.6623 26.2194L67.2389 28.6024C67.2511 28.3378 67.2573 28.0722 67.2579 27.8054C67.2641 25.5466 66.8147 23.3089 65.9357 21.2221C65.0567 19.1352 63.7652 17.2405 62.1365 15.6476L53.1421 6.80301C55.7927 4.9893 59.0379 4.21712 62.2385 4.63847C65.4392 5.05979 68.3635 6.64416 70.4356 9.07957C72.5077 11.515 73.5775 14.6249 73.4344 17.7972C73.2913 20.9694 71.9457 23.974 69.6623 26.2194Z" fill="#00262F"/>
</g>
</svg>
